M48
; DRILL file {KiCad 8.0.4} date 2024-07-20T20:36:04+0200
; FORMAT={-:-/ absolute / inch / decimal}
; #@! TF.CreationDate,2024-07-20T20:36:04+02:00
; #@! TF.GenerationSoftware,Kicad,Pcbnew,8.0.4
; #@! TF.FileFunction,Plated,1,2,PTH
FMAT,2
INCH
; #@! TA.AperFunction,Plated,PTH,ViaDrill
T1C0.0138
; #@! TA.AperFunction,Plated,PTH,ComponentDrill
T2C0.0138
; #@! TA.AperFunction,Plated,PTH,ComponentDrill
T3C0.0197
; #@! TA.AperFunction,Plated,PTH,ComponentDrill
T4C0.0256
; #@! TA.AperFunction,Plated,PTH,ComponentDrill
T5C0.0276
; #@! TA.AperFunction,Plated,PTH,ComponentDrill
T6C0.0394
; #@! TA.AperFunction,Plated,PTH,ComponentDrill
T7C0.0433
%
G90
G05
T1
X3.1002Y-3.1498
X3.1398Y-4.6949
X3.2185Y-4.1732
X3.3002Y-3.0498
X3.3268Y-3.7697
X3.3957Y-3.622
X3.5138Y-4.6949
X3.5335Y-4.1732
X3.563Y-3.9862
X3.58Y-3.9434
X3.6099Y-4.5833
X3.622Y-3.563
X3.624Y-4.5374
X3.65Y-4.4934
X3.6909Y-3.795
X3.74Y-3.6828
X3.74Y-3.7934
X3.7459Y-3.9075
X3.752Y-3.9717
X3.76Y-3.8634
X3.8287Y-4.1339
X3.8386Y-4.1732
X3.8402Y-3.0998
X3.878Y-4.1339
X3.8998Y-3.6834
X3.9606Y-4.0197
X3.9646Y-3.8543
X3.98Y-4.1917
X4.0802Y-3.0498
X4.0846Y-4.0945
X4.124Y-3.8878
X4.1535Y-4.3012
X4.1535Y-4.5079
X4.2224Y-3.5531
X4.2226Y-2.999
X4.2323Y-4.0354
X4.2649Y-3.9291
X4.321Y-2.999
X4.4193Y-3.8583
X4.4193Y-3.937
X4.4193Y-4.0256
X4.4194Y-2.999
X4.4783Y-4.3602
X4.5079Y-4.5768
X4.5079Y-4.6654
X4.5177Y-3.5531
X4.5177Y-3.9272
X4.5179Y-2.999
X4.5472Y-4.3602
X4.5602Y-3.0998
X4.5866Y-3.9862
X4.7343Y-3.7697
X4.7343Y-3.8386
X4.7343Y-4.0256
X4.7343Y-4.1142
X4.7441Y-4.4193
T2
X3.8868Y-3.8868
X3.8868Y-3.937
X3.8868Y-3.9872
X3.937Y-3.8868
X3.937Y-3.937
X3.937Y-3.9872
X3.9872Y-3.8868
X3.9872Y-3.937
X3.9872Y-3.9872
T3
X3.75Y-4.1339
X3.75Y-4.2224
X3.75Y-4.311
X3.75Y-4.3996
X3.75Y-4.4882
X3.75Y-4.5768
X3.75Y-4.6654
T6
X2.99Y-3.9334
X2.9911Y-4.2307
X2.9911Y-4.3307
X3.4702Y-3.2398
X3.6202Y-3.2398
X3.7702Y-3.2398
X3.9202Y-3.2398
X4.0702Y-3.2398
X4.2202Y-3.2398
X4.2224Y-4.6841
X4.2702Y-2.8698
X4.3224Y-4.6841
X4.3702Y-2.8698
X4.3702Y-3.2398
X4.4702Y-2.8698
X4.87Y-3.9334
X4.873Y-4.5079
X4.873Y-4.6079
T7
X4.5202Y-3.2398
T4
G00X3.8937Y-2.9677
M15
G01X3.8937Y-2.9835
M16
G05
G00X4.0846Y-2.9677
M15
G01X4.0846Y-2.9835
M16
G05
T5
G00X3.8819Y-2.8465
M15
G01X3.8819Y-2.8661
M16
G05
G00X4.0965Y-2.8465
M15
G01X4.0965Y-2.8661
M16
G05
M30
