%TF.GenerationSoftware,KiCad,Pcbnew,8.0.4*%
%TF.CreationDate,2024-07-20T20:35:12+02:00*%
%TF.ProjectId,pico-HABakuk,7069636f-2d48-4414-9261-6b756b2e6b69,REV1*%
%TF.SameCoordinates,Original*%
%TF.FileFunction,Profile,NP*%
%FSLAX46Y46*%
G04 Gerber Fmt 4.6, Leading zero omitted, Abs format (unit mm)*
G04 Created by KiCad (PCBNEW 8.0.4) date 2024-07-20 20:35:12*
%MOMM*%
%LPD*%
G01*
G04 APERTURE LIST*
%TA.AperFunction,Profile*%
%ADD10C,0.050000*%
%TD*%
%TA.AperFunction,Profile*%
%ADD11C,0.100000*%
%TD*%
G04 APERTURE END LIST*
D10*
X103000000Y-85500000D02*
X106500000Y-85500000D01*
X106500000Y-86500000D01*
X103000000Y-86500000D01*
X103000000Y-85500000D01*
D11*
X74000000Y-119250000D02*
X74000000Y-88500000D01*
X124000000Y-86500000D02*
X115750000Y-86500000D01*
D10*
X96500000Y-85500000D02*
X100000000Y-85500000D01*
X100000000Y-86500000D01*
X96500000Y-86500000D01*
X96500000Y-85500000D01*
D11*
X124000000Y-121250000D02*
X76000000Y-121250000D01*
X126000000Y-119250000D02*
G75*
G02*
X124000000Y-121250000I-2000000J0D01*
G01*
X115750000Y-85500000D02*
X126000000Y-85500000D01*
X87250000Y-85500000D02*
X87250000Y-86500000D01*
X87250000Y-86500000D02*
X76000000Y-86500000D01*
D10*
X89000000Y-85500000D02*
X91000000Y-85500000D01*
X91000000Y-86500000D01*
X89000000Y-86500000D01*
X89000000Y-85500000D01*
D11*
X126000000Y-70000000D02*
X126000000Y-85500000D01*
X126000000Y-88500000D02*
X126000000Y-119250000D01*
X74000000Y-85500000D02*
X74000000Y-70000000D01*
X74000000Y-85500000D02*
X87250000Y-85500000D01*
X124000000Y-86500000D02*
G75*
G02*
X126000000Y-88500000I0J-2000000D01*
G01*
D10*
X111750000Y-85500000D02*
X114000000Y-85500000D01*
X114000000Y-86500000D01*
X111750000Y-86500000D01*
X111750000Y-85500000D01*
X92750000Y-85500000D02*
X95000000Y-85500000D01*
X95000000Y-86500000D01*
X92750000Y-86500000D01*
X92750000Y-85500000D01*
D11*
X76000000Y-121250000D02*
G75*
G02*
X74000000Y-119250000I0J2000000D01*
G01*
X74000000Y-70000000D02*
X126000000Y-70000000D01*
D10*
X108000000Y-85500000D02*
X110250000Y-85500000D01*
X110250000Y-86500000D01*
X108000000Y-86500000D01*
X108000000Y-85500000D01*
D11*
X115750000Y-86500000D02*
X115750000Y-85500000D01*
X74000000Y-88500000D02*
G75*
G02*
X76000000Y-86500000I2000000J0D01*
G01*
M02*
