%TF.GenerationSoftware,KiCad,Pcbnew,8.0.4*%
%TF.CreationDate,2024-07-20T20:35:12+02:00*%
%TF.ProjectId,pico-HABakuk,7069636f-2d48-4414-9261-6b756b2e6b69,REV1*%
%TF.SameCoordinates,Original*%
%TF.FileFunction,Legend,Top*%
%TF.FilePolarity,Positive*%
%FSLAX46Y46*%
G04 Gerber Fmt 4.6, Leading zero omitted, Abs format (unit mm)*
G04 Created by KiCad (PCBNEW 8.0.4) date 2024-07-20 20:35:12*
%MOMM*%
%LPD*%
G01*
G04 APERTURE LIST*
%ADD10C,0.150000*%
%ADD11C,0.120000*%
%ADD12C,0.250000*%
%ADD13C,0.300000*%
%ADD14C,0.200000*%
%ADD15C,0.100000*%
G04 APERTURE END LIST*
D10*
X123336779Y-119238866D02*
X124098684Y-119238866D01*
X123586779Y-112488866D02*
X124348684Y-112488866D01*
X123967731Y-112869819D02*
X123967731Y-112107914D01*
X122500771Y-119127506D02*
X122453152Y-119175125D01*
X122453152Y-119175125D02*
X122310295Y-119270363D01*
X122310295Y-119270363D02*
X122215057Y-119317982D01*
X122215057Y-119317982D02*
X122072200Y-119365601D01*
X122072200Y-119365601D02*
X121834104Y-119413220D01*
X121834104Y-119413220D02*
X121643628Y-119413220D01*
X121643628Y-119413220D02*
X121405533Y-119365601D01*
X121405533Y-119365601D02*
X121262676Y-119317982D01*
X121262676Y-119317982D02*
X121167438Y-119270363D01*
X121167438Y-119270363D02*
X121024580Y-119175125D01*
X121024580Y-119175125D02*
X120976961Y-119127506D01*
X122072200Y-118794172D02*
X122119819Y-118698934D01*
X122119819Y-118698934D02*
X122119819Y-118508458D01*
X122119819Y-118508458D02*
X122072200Y-118413220D01*
X122072200Y-118413220D02*
X121976961Y-118365601D01*
X121976961Y-118365601D02*
X121929342Y-118365601D01*
X121929342Y-118365601D02*
X121834104Y-118413220D01*
X121834104Y-118413220D02*
X121786485Y-118508458D01*
X121786485Y-118508458D02*
X121786485Y-118651315D01*
X121786485Y-118651315D02*
X121738866Y-118746553D01*
X121738866Y-118746553D02*
X121643628Y-118794172D01*
X121643628Y-118794172D02*
X121596009Y-118794172D01*
X121596009Y-118794172D02*
X121500771Y-118746553D01*
X121500771Y-118746553D02*
X121453152Y-118651315D01*
X121453152Y-118651315D02*
X121453152Y-118508458D01*
X121453152Y-118508458D02*
X121500771Y-118413220D01*
X121453152Y-117508458D02*
X122119819Y-117508458D01*
X121453152Y-117937029D02*
X121976961Y-117937029D01*
X121976961Y-117937029D02*
X122072200Y-117889410D01*
X122072200Y-117889410D02*
X122119819Y-117794172D01*
X122119819Y-117794172D02*
X122119819Y-117651315D01*
X122119819Y-117651315D02*
X122072200Y-117556077D01*
X122072200Y-117556077D02*
X122024580Y-117508458D01*
X121453152Y-117032267D02*
X122453152Y-117032267D01*
X121500771Y-117032267D02*
X121453152Y-116937029D01*
X121453152Y-116937029D02*
X121453152Y-116746553D01*
X121453152Y-116746553D02*
X121500771Y-116651315D01*
X121500771Y-116651315D02*
X121548390Y-116603696D01*
X121548390Y-116603696D02*
X121643628Y-116556077D01*
X121643628Y-116556077D02*
X121929342Y-116556077D01*
X121929342Y-116556077D02*
X122024580Y-116603696D01*
X122024580Y-116603696D02*
X122072200Y-116651315D01*
X122072200Y-116651315D02*
X122119819Y-116746553D01*
X122119819Y-116746553D02*
X122119819Y-116937029D01*
X122119819Y-116937029D02*
X122072200Y-117032267D01*
X122072200Y-115746553D02*
X122119819Y-115841791D01*
X122119819Y-115841791D02*
X122119819Y-116032267D01*
X122119819Y-116032267D02*
X122072200Y-116127505D01*
X122072200Y-116127505D02*
X121976961Y-116175124D01*
X121976961Y-116175124D02*
X121596009Y-116175124D01*
X121596009Y-116175124D02*
X121500771Y-116127505D01*
X121500771Y-116127505D02*
X121453152Y-116032267D01*
X121453152Y-116032267D02*
X121453152Y-115841791D01*
X121453152Y-115841791D02*
X121500771Y-115746553D01*
X121500771Y-115746553D02*
X121596009Y-115698934D01*
X121596009Y-115698934D02*
X121691247Y-115698934D01*
X121691247Y-115698934D02*
X121786485Y-116175124D01*
X122119819Y-115270362D02*
X121453152Y-115270362D01*
X121643628Y-115270362D02*
X121548390Y-115222743D01*
X121548390Y-115222743D02*
X121500771Y-115175124D01*
X121500771Y-115175124D02*
X121453152Y-115079886D01*
X121453152Y-115079886D02*
X121453152Y-114984648D01*
X122072200Y-114222743D02*
X122119819Y-114317981D01*
X122119819Y-114317981D02*
X122119819Y-114508457D01*
X122119819Y-114508457D02*
X122072200Y-114603695D01*
X122072200Y-114603695D02*
X122024580Y-114651314D01*
X122024580Y-114651314D02*
X121929342Y-114698933D01*
X121929342Y-114698933D02*
X121643628Y-114698933D01*
X121643628Y-114698933D02*
X121548390Y-114651314D01*
X121548390Y-114651314D02*
X121500771Y-114603695D01*
X121500771Y-114603695D02*
X121453152Y-114508457D01*
X121453152Y-114508457D02*
X121453152Y-114317981D01*
X121453152Y-114317981D02*
X121500771Y-114222743D01*
X122119819Y-113365600D02*
X121596009Y-113365600D01*
X121596009Y-113365600D02*
X121500771Y-113413219D01*
X121500771Y-113413219D02*
X121453152Y-113508457D01*
X121453152Y-113508457D02*
X121453152Y-113698933D01*
X121453152Y-113698933D02*
X121500771Y-113794171D01*
X122072200Y-113365600D02*
X122119819Y-113460838D01*
X122119819Y-113460838D02*
X122119819Y-113698933D01*
X122119819Y-113698933D02*
X122072200Y-113794171D01*
X122072200Y-113794171D02*
X121976961Y-113841790D01*
X121976961Y-113841790D02*
X121881723Y-113841790D01*
X121881723Y-113841790D02*
X121786485Y-113794171D01*
X121786485Y-113794171D02*
X121738866Y-113698933D01*
X121738866Y-113698933D02*
X121738866Y-113460838D01*
X121738866Y-113460838D02*
X121691247Y-113365600D01*
X121453152Y-112889409D02*
X122453152Y-112889409D01*
X121500771Y-112889409D02*
X121453152Y-112794171D01*
X121453152Y-112794171D02*
X121453152Y-112603695D01*
X121453152Y-112603695D02*
X121500771Y-112508457D01*
X121500771Y-112508457D02*
X121548390Y-112460838D01*
X121548390Y-112460838D02*
X121643628Y-112413219D01*
X121643628Y-112413219D02*
X121929342Y-112413219D01*
X121929342Y-112413219D02*
X122024580Y-112460838D01*
X122024580Y-112460838D02*
X122072200Y-112508457D01*
X122072200Y-112508457D02*
X122119819Y-112603695D01*
X122119819Y-112603695D02*
X122119819Y-112794171D01*
X122119819Y-112794171D02*
X122072200Y-112889409D01*
X122500771Y-112079885D02*
X122453152Y-112032266D01*
X122453152Y-112032266D02*
X122310295Y-111937028D01*
X122310295Y-111937028D02*
X122215057Y-111889409D01*
X122215057Y-111889409D02*
X122072200Y-111841790D01*
X122072200Y-111841790D02*
X121834104Y-111794171D01*
X121834104Y-111794171D02*
X121643628Y-111794171D01*
X121643628Y-111794171D02*
X121405533Y-111841790D01*
X121405533Y-111841790D02*
X121262676Y-111889409D01*
X121262676Y-111889409D02*
X121167438Y-111937028D01*
X121167438Y-111937028D02*
X121024580Y-112032266D01*
X121024580Y-112032266D02*
X120976961Y-112079885D01*
X111586779Y-118988866D02*
X112348684Y-118988866D01*
X100289160Y-119322200D02*
X100432017Y-119369819D01*
X100432017Y-119369819D02*
X100670112Y-119369819D01*
X100670112Y-119369819D02*
X100765350Y-119322200D01*
X100765350Y-119322200D02*
X100812969Y-119274580D01*
X100812969Y-119274580D02*
X100860588Y-119179342D01*
X100860588Y-119179342D02*
X100860588Y-119084104D01*
X100860588Y-119084104D02*
X100812969Y-118988866D01*
X100812969Y-118988866D02*
X100765350Y-118941247D01*
X100765350Y-118941247D02*
X100670112Y-118893628D01*
X100670112Y-118893628D02*
X100479636Y-118846009D01*
X100479636Y-118846009D02*
X100384398Y-118798390D01*
X100384398Y-118798390D02*
X100336779Y-118750771D01*
X100336779Y-118750771D02*
X100289160Y-118655533D01*
X100289160Y-118655533D02*
X100289160Y-118560295D01*
X100289160Y-118560295D02*
X100336779Y-118465057D01*
X100336779Y-118465057D02*
X100384398Y-118417438D01*
X100384398Y-118417438D02*
X100479636Y-118369819D01*
X100479636Y-118369819D02*
X100717731Y-118369819D01*
X100717731Y-118369819D02*
X100860588Y-118417438D01*
X101432017Y-119369819D02*
X101336779Y-119322200D01*
X101336779Y-119322200D02*
X101289160Y-119274580D01*
X101289160Y-119274580D02*
X101241541Y-119179342D01*
X101241541Y-119179342D02*
X101241541Y-118893628D01*
X101241541Y-118893628D02*
X101289160Y-118798390D01*
X101289160Y-118798390D02*
X101336779Y-118750771D01*
X101336779Y-118750771D02*
X101432017Y-118703152D01*
X101432017Y-118703152D02*
X101574874Y-118703152D01*
X101574874Y-118703152D02*
X101670112Y-118750771D01*
X101670112Y-118750771D02*
X101717731Y-118798390D01*
X101717731Y-118798390D02*
X101765350Y-118893628D01*
X101765350Y-118893628D02*
X101765350Y-119179342D01*
X101765350Y-119179342D02*
X101717731Y-119274580D01*
X101717731Y-119274580D02*
X101670112Y-119322200D01*
X101670112Y-119322200D02*
X101574874Y-119369819D01*
X101574874Y-119369819D02*
X101432017Y-119369819D01*
X102336779Y-119369819D02*
X102241541Y-119322200D01*
X102241541Y-119322200D02*
X102193922Y-119226961D01*
X102193922Y-119226961D02*
X102193922Y-118369819D01*
X103146303Y-119369819D02*
X103146303Y-118846009D01*
X103146303Y-118846009D02*
X103098684Y-118750771D01*
X103098684Y-118750771D02*
X103003446Y-118703152D01*
X103003446Y-118703152D02*
X102812970Y-118703152D01*
X102812970Y-118703152D02*
X102717732Y-118750771D01*
X103146303Y-119322200D02*
X103051065Y-119369819D01*
X103051065Y-119369819D02*
X102812970Y-119369819D01*
X102812970Y-119369819D02*
X102717732Y-119322200D01*
X102717732Y-119322200D02*
X102670113Y-119226961D01*
X102670113Y-119226961D02*
X102670113Y-119131723D01*
X102670113Y-119131723D02*
X102717732Y-119036485D01*
X102717732Y-119036485D02*
X102812970Y-118988866D01*
X102812970Y-118988866D02*
X103051065Y-118988866D01*
X103051065Y-118988866D02*
X103146303Y-118941247D01*
X103622494Y-119369819D02*
X103622494Y-118703152D01*
X103622494Y-118893628D02*
X103670113Y-118798390D01*
X103670113Y-118798390D02*
X103717732Y-118750771D01*
X103717732Y-118750771D02*
X103812970Y-118703152D01*
X103812970Y-118703152D02*
X103908208Y-118703152D01*
X105003447Y-118988866D02*
X105765352Y-118988866D01*
X105384399Y-119369819D02*
X105384399Y-118607914D01*
X122289160Y-97834104D02*
X122765350Y-97834104D01*
X122193922Y-98119819D02*
X122527255Y-97119819D01*
X122527255Y-97119819D02*
X122860588Y-98119819D01*
X123193922Y-97453152D02*
X123193922Y-98119819D01*
X123193922Y-97548390D02*
X123241541Y-97500771D01*
X123241541Y-97500771D02*
X123336779Y-97453152D01*
X123336779Y-97453152D02*
X123479636Y-97453152D01*
X123479636Y-97453152D02*
X123574874Y-97500771D01*
X123574874Y-97500771D02*
X123622493Y-97596009D01*
X123622493Y-97596009D02*
X123622493Y-98119819D01*
X123955827Y-97453152D02*
X124336779Y-97453152D01*
X124098684Y-97119819D02*
X124098684Y-97976961D01*
X124098684Y-97976961D02*
X124146303Y-98072200D01*
X124146303Y-98072200D02*
X124241541Y-98119819D01*
X124241541Y-98119819D02*
X124336779Y-98119819D01*
X124670113Y-97738866D02*
X125432018Y-97738866D01*
X74789160Y-97834104D02*
X75265350Y-97834104D01*
X74693922Y-98119819D02*
X75027255Y-97119819D01*
X75027255Y-97119819D02*
X75360588Y-98119819D01*
X75693922Y-97453152D02*
X75693922Y-98119819D01*
X75693922Y-97548390D02*
X75741541Y-97500771D01*
X75741541Y-97500771D02*
X75836779Y-97453152D01*
X75836779Y-97453152D02*
X75979636Y-97453152D01*
X75979636Y-97453152D02*
X76074874Y-97500771D01*
X76074874Y-97500771D02*
X76122493Y-97596009D01*
X76122493Y-97596009D02*
X76122493Y-98119819D01*
X76455827Y-97453152D02*
X76836779Y-97453152D01*
X76598684Y-97119819D02*
X76598684Y-97976961D01*
X76598684Y-97976961D02*
X76646303Y-98072200D01*
X76646303Y-98072200D02*
X76741541Y-98119819D01*
X76741541Y-98119819D02*
X76836779Y-98119819D01*
X77170113Y-97738866D02*
X77932018Y-97738866D01*
X77551065Y-98119819D02*
X77551065Y-97357914D01*
X106289160Y-75322200D02*
X106384398Y-75369819D01*
X106384398Y-75369819D02*
X106574874Y-75369819D01*
X106574874Y-75369819D02*
X106670112Y-75322200D01*
X106670112Y-75322200D02*
X106717731Y-75226961D01*
X106717731Y-75226961D02*
X106717731Y-75179342D01*
X106717731Y-75179342D02*
X106670112Y-75084104D01*
X106670112Y-75084104D02*
X106574874Y-75036485D01*
X106574874Y-75036485D02*
X106432017Y-75036485D01*
X106432017Y-75036485D02*
X106336779Y-74988866D01*
X106336779Y-74988866D02*
X106289160Y-74893628D01*
X106289160Y-74893628D02*
X106289160Y-74846009D01*
X106289160Y-74846009D02*
X106336779Y-74750771D01*
X106336779Y-74750771D02*
X106432017Y-74703152D01*
X106432017Y-74703152D02*
X106574874Y-74703152D01*
X106574874Y-74703152D02*
X106670112Y-74750771D01*
X107051065Y-74703152D02*
X107241541Y-75369819D01*
X107241541Y-75369819D02*
X107432017Y-74893628D01*
X107432017Y-74893628D02*
X107622493Y-75369819D01*
X107622493Y-75369819D02*
X107812969Y-74703152D01*
X108622493Y-75322200D02*
X108527255Y-75369819D01*
X108527255Y-75369819D02*
X108336779Y-75369819D01*
X108336779Y-75369819D02*
X108241541Y-75322200D01*
X108241541Y-75322200D02*
X108193922Y-75274580D01*
X108193922Y-75274580D02*
X108146303Y-75179342D01*
X108146303Y-75179342D02*
X108146303Y-74893628D01*
X108146303Y-74893628D02*
X108193922Y-74798390D01*
X108193922Y-74798390D02*
X108241541Y-74750771D01*
X108241541Y-74750771D02*
X108336779Y-74703152D01*
X108336779Y-74703152D02*
X108527255Y-74703152D01*
X108527255Y-74703152D02*
X108622493Y-74750771D01*
X109193922Y-75369819D02*
X109098684Y-75322200D01*
X109098684Y-75322200D02*
X109051065Y-75226961D01*
X109051065Y-75226961D02*
X109051065Y-74369819D01*
X109574875Y-75369819D02*
X109574875Y-74369819D01*
X109670113Y-74988866D02*
X109955827Y-75369819D01*
X109955827Y-74703152D02*
X109574875Y-75084104D01*
X113039160Y-75322200D02*
X113134398Y-75369819D01*
X113134398Y-75369819D02*
X113324874Y-75369819D01*
X113324874Y-75369819D02*
X113420112Y-75322200D01*
X113420112Y-75322200D02*
X113467731Y-75226961D01*
X113467731Y-75226961D02*
X113467731Y-75179342D01*
X113467731Y-75179342D02*
X113420112Y-75084104D01*
X113420112Y-75084104D02*
X113324874Y-75036485D01*
X113324874Y-75036485D02*
X113182017Y-75036485D01*
X113182017Y-75036485D02*
X113086779Y-74988866D01*
X113086779Y-74988866D02*
X113039160Y-74893628D01*
X113039160Y-74893628D02*
X113039160Y-74846009D01*
X113039160Y-74846009D02*
X113086779Y-74750771D01*
X113086779Y-74750771D02*
X113182017Y-74703152D01*
X113182017Y-74703152D02*
X113324874Y-74703152D01*
X113324874Y-74703152D02*
X113420112Y-74750771D01*
X113801065Y-74703152D02*
X113991541Y-75369819D01*
X113991541Y-75369819D02*
X114182017Y-74893628D01*
X114182017Y-74893628D02*
X114372493Y-75369819D01*
X114372493Y-75369819D02*
X114562969Y-74703152D01*
X115372493Y-75369819D02*
X115372493Y-74369819D01*
X115372493Y-75322200D02*
X115277255Y-75369819D01*
X115277255Y-75369819D02*
X115086779Y-75369819D01*
X115086779Y-75369819D02*
X114991541Y-75322200D01*
X114991541Y-75322200D02*
X114943922Y-75274580D01*
X114943922Y-75274580D02*
X114896303Y-75179342D01*
X114896303Y-75179342D02*
X114896303Y-74893628D01*
X114896303Y-74893628D02*
X114943922Y-74798390D01*
X114943922Y-74798390D02*
X114991541Y-74750771D01*
X114991541Y-74750771D02*
X115086779Y-74703152D01*
X115086779Y-74703152D02*
X115277255Y-74703152D01*
X115277255Y-74703152D02*
X115372493Y-74750771D01*
D11*
X90750000Y-104000000D02*
X96250000Y-104000000D01*
X96250000Y-120000000D01*
X90750000Y-120000000D01*
X90750000Y-104000000D01*
D10*
X93154761Y-95454819D02*
X92821428Y-94978628D01*
X92583333Y-95454819D02*
X92583333Y-94454819D01*
X92583333Y-94454819D02*
X92964285Y-94454819D01*
X92964285Y-94454819D02*
X93059523Y-94502438D01*
X93059523Y-94502438D02*
X93107142Y-94550057D01*
X93107142Y-94550057D02*
X93154761Y-94645295D01*
X93154761Y-94645295D02*
X93154761Y-94788152D01*
X93154761Y-94788152D02*
X93107142Y-94883390D01*
X93107142Y-94883390D02*
X93059523Y-94931009D01*
X93059523Y-94931009D02*
X92964285Y-94978628D01*
X92964285Y-94978628D02*
X92583333Y-94978628D01*
X93583333Y-95454819D02*
X93583333Y-94454819D01*
X93583333Y-94454819D02*
X93964285Y-94454819D01*
X93964285Y-94454819D02*
X94059523Y-94502438D01*
X94059523Y-94502438D02*
X94107142Y-94550057D01*
X94107142Y-94550057D02*
X94154761Y-94645295D01*
X94154761Y-94645295D02*
X94154761Y-94788152D01*
X94154761Y-94788152D02*
X94107142Y-94883390D01*
X94107142Y-94883390D02*
X94059523Y-94931009D01*
X94059523Y-94931009D02*
X93964285Y-94978628D01*
X93964285Y-94978628D02*
X93583333Y-94978628D01*
X94535714Y-94550057D02*
X94583333Y-94502438D01*
X94583333Y-94502438D02*
X94678571Y-94454819D01*
X94678571Y-94454819D02*
X94916666Y-94454819D01*
X94916666Y-94454819D02*
X95011904Y-94502438D01*
X95011904Y-94502438D02*
X95059523Y-94550057D01*
X95059523Y-94550057D02*
X95107142Y-94645295D01*
X95107142Y-94645295D02*
X95107142Y-94740533D01*
X95107142Y-94740533D02*
X95059523Y-94883390D01*
X95059523Y-94883390D02*
X94488095Y-95454819D01*
X94488095Y-95454819D02*
X95107142Y-95454819D01*
X95726190Y-94454819D02*
X95821428Y-94454819D01*
X95821428Y-94454819D02*
X95916666Y-94502438D01*
X95916666Y-94502438D02*
X95964285Y-94550057D01*
X95964285Y-94550057D02*
X96011904Y-94645295D01*
X96011904Y-94645295D02*
X96059523Y-94835771D01*
X96059523Y-94835771D02*
X96059523Y-95073866D01*
X96059523Y-95073866D02*
X96011904Y-95264342D01*
X96011904Y-95264342D02*
X95964285Y-95359580D01*
X95964285Y-95359580D02*
X95916666Y-95407200D01*
X95916666Y-95407200D02*
X95821428Y-95454819D01*
X95821428Y-95454819D02*
X95726190Y-95454819D01*
X95726190Y-95454819D02*
X95630952Y-95407200D01*
X95630952Y-95407200D02*
X95583333Y-95359580D01*
X95583333Y-95359580D02*
X95535714Y-95264342D01*
X95535714Y-95264342D02*
X95488095Y-95073866D01*
X95488095Y-95073866D02*
X95488095Y-94835771D01*
X95488095Y-94835771D02*
X95535714Y-94645295D01*
X95535714Y-94645295D02*
X95583333Y-94550057D01*
X95583333Y-94550057D02*
X95630952Y-94502438D01*
X95630952Y-94502438D02*
X95726190Y-94454819D01*
X96916666Y-94788152D02*
X96916666Y-95454819D01*
X96678571Y-94407200D02*
X96440476Y-95121485D01*
X96440476Y-95121485D02*
X97059523Y-95121485D01*
X97630952Y-94454819D02*
X97726190Y-94454819D01*
X97726190Y-94454819D02*
X97821428Y-94502438D01*
X97821428Y-94502438D02*
X97869047Y-94550057D01*
X97869047Y-94550057D02*
X97916666Y-94645295D01*
X97916666Y-94645295D02*
X97964285Y-94835771D01*
X97964285Y-94835771D02*
X97964285Y-95073866D01*
X97964285Y-95073866D02*
X97916666Y-95264342D01*
X97916666Y-95264342D02*
X97869047Y-95359580D01*
X97869047Y-95359580D02*
X97821428Y-95407200D01*
X97821428Y-95407200D02*
X97726190Y-95454819D01*
X97726190Y-95454819D02*
X97630952Y-95454819D01*
X97630952Y-95454819D02*
X97535714Y-95407200D01*
X97535714Y-95407200D02*
X97488095Y-95359580D01*
X97488095Y-95359580D02*
X97440476Y-95264342D01*
X97440476Y-95264342D02*
X97392857Y-95073866D01*
X97392857Y-95073866D02*
X97392857Y-94835771D01*
X97392857Y-94835771D02*
X97440476Y-94645295D01*
X97440476Y-94645295D02*
X97488095Y-94550057D01*
X97488095Y-94550057D02*
X97535714Y-94502438D01*
X97535714Y-94502438D02*
X97630952Y-94454819D01*
D12*
X112107143Y-91492142D02*
X112107143Y-92692142D01*
X112107143Y-91549285D02*
X112221429Y-91492142D01*
X112221429Y-91492142D02*
X112450000Y-91492142D01*
X112450000Y-91492142D02*
X112564286Y-91549285D01*
X112564286Y-91549285D02*
X112621429Y-91606428D01*
X112621429Y-91606428D02*
X112678571Y-91720714D01*
X112678571Y-91720714D02*
X112678571Y-92063571D01*
X112678571Y-92063571D02*
X112621429Y-92177857D01*
X112621429Y-92177857D02*
X112564286Y-92235000D01*
X112564286Y-92235000D02*
X112450000Y-92292142D01*
X112450000Y-92292142D02*
X112221429Y-92292142D01*
X112221429Y-92292142D02*
X112107143Y-92235000D01*
X113192857Y-92292142D02*
X113192857Y-91492142D01*
X113192857Y-91092142D02*
X113135714Y-91149285D01*
X113135714Y-91149285D02*
X113192857Y-91206428D01*
X113192857Y-91206428D02*
X113250000Y-91149285D01*
X113250000Y-91149285D02*
X113192857Y-91092142D01*
X113192857Y-91092142D02*
X113192857Y-91206428D01*
X114278572Y-92235000D02*
X114164286Y-92292142D01*
X114164286Y-92292142D02*
X113935714Y-92292142D01*
X113935714Y-92292142D02*
X113821429Y-92235000D01*
X113821429Y-92235000D02*
X113764286Y-92177857D01*
X113764286Y-92177857D02*
X113707143Y-92063571D01*
X113707143Y-92063571D02*
X113707143Y-91720714D01*
X113707143Y-91720714D02*
X113764286Y-91606428D01*
X113764286Y-91606428D02*
X113821429Y-91549285D01*
X113821429Y-91549285D02*
X113935714Y-91492142D01*
X113935714Y-91492142D02*
X114164286Y-91492142D01*
X114164286Y-91492142D02*
X114278572Y-91549285D01*
X114964285Y-92292142D02*
X114850000Y-92235000D01*
X114850000Y-92235000D02*
X114792857Y-92177857D01*
X114792857Y-92177857D02*
X114735714Y-92063571D01*
X114735714Y-92063571D02*
X114735714Y-91720714D01*
X114735714Y-91720714D02*
X114792857Y-91606428D01*
X114792857Y-91606428D02*
X114850000Y-91549285D01*
X114850000Y-91549285D02*
X114964285Y-91492142D01*
X114964285Y-91492142D02*
X115135714Y-91492142D01*
X115135714Y-91492142D02*
X115250000Y-91549285D01*
X115250000Y-91549285D02*
X115307143Y-91606428D01*
X115307143Y-91606428D02*
X115364285Y-91720714D01*
X115364285Y-91720714D02*
X115364285Y-92063571D01*
X115364285Y-92063571D02*
X115307143Y-92177857D01*
X115307143Y-92177857D02*
X115250000Y-92235000D01*
X115250000Y-92235000D02*
X115135714Y-92292142D01*
X115135714Y-92292142D02*
X114964285Y-92292142D01*
X115878571Y-91835000D02*
X116792857Y-91835000D01*
X117364285Y-92292142D02*
X117364285Y-91092142D01*
X117364285Y-91663571D02*
X118049999Y-91663571D01*
X118049999Y-92292142D02*
X118049999Y-91092142D01*
X118564285Y-91949285D02*
X119135714Y-91949285D01*
X118449999Y-92292142D02*
X118849999Y-91092142D01*
X118849999Y-91092142D02*
X119249999Y-92292142D01*
X120049999Y-91663571D02*
X120221427Y-91720714D01*
X120221427Y-91720714D02*
X120278570Y-91777857D01*
X120278570Y-91777857D02*
X120335713Y-91892142D01*
X120335713Y-91892142D02*
X120335713Y-92063571D01*
X120335713Y-92063571D02*
X120278570Y-92177857D01*
X120278570Y-92177857D02*
X120221427Y-92235000D01*
X120221427Y-92235000D02*
X120107142Y-92292142D01*
X120107142Y-92292142D02*
X119649999Y-92292142D01*
X119649999Y-92292142D02*
X119649999Y-91092142D01*
X119649999Y-91092142D02*
X120049999Y-91092142D01*
X120049999Y-91092142D02*
X120164285Y-91149285D01*
X120164285Y-91149285D02*
X120221427Y-91206428D01*
X120221427Y-91206428D02*
X120278570Y-91320714D01*
X120278570Y-91320714D02*
X120278570Y-91435000D01*
X120278570Y-91435000D02*
X120221427Y-91549285D01*
X120221427Y-91549285D02*
X120164285Y-91606428D01*
X120164285Y-91606428D02*
X120049999Y-91663571D01*
X120049999Y-91663571D02*
X119649999Y-91663571D01*
X121364285Y-92292142D02*
X121364285Y-91663571D01*
X121364285Y-91663571D02*
X121307142Y-91549285D01*
X121307142Y-91549285D02*
X121192856Y-91492142D01*
X121192856Y-91492142D02*
X120964285Y-91492142D01*
X120964285Y-91492142D02*
X120849999Y-91549285D01*
X121364285Y-92235000D02*
X121249999Y-92292142D01*
X121249999Y-92292142D02*
X120964285Y-92292142D01*
X120964285Y-92292142D02*
X120849999Y-92235000D01*
X120849999Y-92235000D02*
X120792856Y-92120714D01*
X120792856Y-92120714D02*
X120792856Y-92006428D01*
X120792856Y-92006428D02*
X120849999Y-91892142D01*
X120849999Y-91892142D02*
X120964285Y-91835000D01*
X120964285Y-91835000D02*
X121249999Y-91835000D01*
X121249999Y-91835000D02*
X121364285Y-91777857D01*
X121935713Y-92292142D02*
X121935713Y-91092142D01*
X122049999Y-91835000D02*
X122392856Y-92292142D01*
X122392856Y-91492142D02*
X121935713Y-91949285D01*
X123421428Y-91492142D02*
X123421428Y-92292142D01*
X122907142Y-91492142D02*
X122907142Y-92120714D01*
X122907142Y-92120714D02*
X122964285Y-92235000D01*
X122964285Y-92235000D02*
X123078570Y-92292142D01*
X123078570Y-92292142D02*
X123249999Y-92292142D01*
X123249999Y-92292142D02*
X123364285Y-92235000D01*
X123364285Y-92235000D02*
X123421428Y-92177857D01*
X123992856Y-92292142D02*
X123992856Y-91092142D01*
X124107142Y-91835000D02*
X124449999Y-92292142D01*
X124449999Y-91492142D02*
X123992856Y-91949285D01*
D13*
X91122257Y-113409774D02*
X91050828Y-113552632D01*
X91050828Y-113552632D02*
X91050828Y-113766917D01*
X91050828Y-113766917D02*
X91122257Y-113981203D01*
X91122257Y-113981203D02*
X91265114Y-114124060D01*
X91265114Y-114124060D02*
X91407971Y-114195489D01*
X91407971Y-114195489D02*
X91693685Y-114266917D01*
X91693685Y-114266917D02*
X91907971Y-114266917D01*
X91907971Y-114266917D02*
X92193685Y-114195489D01*
X92193685Y-114195489D02*
X92336542Y-114124060D01*
X92336542Y-114124060D02*
X92479400Y-113981203D01*
X92479400Y-113981203D02*
X92550828Y-113766917D01*
X92550828Y-113766917D02*
X92550828Y-113624060D01*
X92550828Y-113624060D02*
X92479400Y-113409774D01*
X92479400Y-113409774D02*
X92407971Y-113338346D01*
X92407971Y-113338346D02*
X91907971Y-113338346D01*
X91907971Y-113338346D02*
X91907971Y-113624060D01*
X92550828Y-112695489D02*
X91050828Y-112695489D01*
X91050828Y-112695489D02*
X91050828Y-112124060D01*
X91050828Y-112124060D02*
X91122257Y-111981203D01*
X91122257Y-111981203D02*
X91193685Y-111909774D01*
X91193685Y-111909774D02*
X91336542Y-111838346D01*
X91336542Y-111838346D02*
X91550828Y-111838346D01*
X91550828Y-111838346D02*
X91693685Y-111909774D01*
X91693685Y-111909774D02*
X91765114Y-111981203D01*
X91765114Y-111981203D02*
X91836542Y-112124060D01*
X91836542Y-112124060D02*
X91836542Y-112695489D01*
X92550828Y-111195489D02*
X91050828Y-111195489D01*
X91050828Y-110195488D02*
X91050828Y-109909774D01*
X91050828Y-109909774D02*
X91122257Y-109766917D01*
X91122257Y-109766917D02*
X91265114Y-109624060D01*
X91265114Y-109624060D02*
X91550828Y-109552631D01*
X91550828Y-109552631D02*
X92050828Y-109552631D01*
X92050828Y-109552631D02*
X92336542Y-109624060D01*
X92336542Y-109624060D02*
X92479400Y-109766917D01*
X92479400Y-109766917D02*
X92550828Y-109909774D01*
X92550828Y-109909774D02*
X92550828Y-110195488D01*
X92550828Y-110195488D02*
X92479400Y-110338346D01*
X92479400Y-110338346D02*
X92336542Y-110481203D01*
X92336542Y-110481203D02*
X92050828Y-110552631D01*
X92050828Y-110552631D02*
X91550828Y-110552631D01*
X91550828Y-110552631D02*
X91265114Y-110481203D01*
X91265114Y-110481203D02*
X91122257Y-110338346D01*
X91122257Y-110338346D02*
X91050828Y-110195488D01*
D10*
X75178571Y-81759791D02*
X75178571Y-82569314D01*
X75178571Y-82569314D02*
X75226190Y-82664552D01*
X75226190Y-82664552D02*
X75273809Y-82712172D01*
X75273809Y-82712172D02*
X75369047Y-82759791D01*
X75369047Y-82759791D02*
X75559523Y-82759791D01*
X75559523Y-82759791D02*
X75654761Y-82712172D01*
X75654761Y-82712172D02*
X75702380Y-82664552D01*
X75702380Y-82664552D02*
X75749999Y-82569314D01*
X75749999Y-82569314D02*
X75749999Y-81759791D01*
X76178571Y-82712172D02*
X76321428Y-82759791D01*
X76321428Y-82759791D02*
X76559523Y-82759791D01*
X76559523Y-82759791D02*
X76654761Y-82712172D01*
X76654761Y-82712172D02*
X76702380Y-82664552D01*
X76702380Y-82664552D02*
X76749999Y-82569314D01*
X76749999Y-82569314D02*
X76749999Y-82474076D01*
X76749999Y-82474076D02*
X76702380Y-82378838D01*
X76702380Y-82378838D02*
X76654761Y-82331219D01*
X76654761Y-82331219D02*
X76559523Y-82283600D01*
X76559523Y-82283600D02*
X76369047Y-82235981D01*
X76369047Y-82235981D02*
X76273809Y-82188362D01*
X76273809Y-82188362D02*
X76226190Y-82140743D01*
X76226190Y-82140743D02*
X76178571Y-82045505D01*
X76178571Y-82045505D02*
X76178571Y-81950267D01*
X76178571Y-81950267D02*
X76226190Y-81855029D01*
X76226190Y-81855029D02*
X76273809Y-81807410D01*
X76273809Y-81807410D02*
X76369047Y-81759791D01*
X76369047Y-81759791D02*
X76607142Y-81759791D01*
X76607142Y-81759791D02*
X76749999Y-81807410D01*
X77511904Y-82235981D02*
X77654761Y-82283600D01*
X77654761Y-82283600D02*
X77702380Y-82331219D01*
X77702380Y-82331219D02*
X77749999Y-82426457D01*
X77749999Y-82426457D02*
X77749999Y-82569314D01*
X77749999Y-82569314D02*
X77702380Y-82664552D01*
X77702380Y-82664552D02*
X77654761Y-82712172D01*
X77654761Y-82712172D02*
X77559523Y-82759791D01*
X77559523Y-82759791D02*
X77178571Y-82759791D01*
X77178571Y-82759791D02*
X77178571Y-81759791D01*
X77178571Y-81759791D02*
X77511904Y-81759791D01*
X77511904Y-81759791D02*
X77607142Y-81807410D01*
X77607142Y-81807410D02*
X77654761Y-81855029D01*
X77654761Y-81855029D02*
X77702380Y-81950267D01*
X77702380Y-81950267D02*
X77702380Y-82045505D01*
X77702380Y-82045505D02*
X77654761Y-82140743D01*
X77654761Y-82140743D02*
X77607142Y-82188362D01*
X77607142Y-82188362D02*
X77511904Y-82235981D01*
X77511904Y-82235981D02*
X77178571Y-82235981D01*
X77940476Y-82855029D02*
X78702380Y-82855029D01*
X79273809Y-82235981D02*
X79416666Y-82283600D01*
X79416666Y-82283600D02*
X79464285Y-82331219D01*
X79464285Y-82331219D02*
X79511904Y-82426457D01*
X79511904Y-82426457D02*
X79511904Y-82569314D01*
X79511904Y-82569314D02*
X79464285Y-82664552D01*
X79464285Y-82664552D02*
X79416666Y-82712172D01*
X79416666Y-82712172D02*
X79321428Y-82759791D01*
X79321428Y-82759791D02*
X78940476Y-82759791D01*
X78940476Y-82759791D02*
X78940476Y-81759791D01*
X78940476Y-81759791D02*
X79273809Y-81759791D01*
X79273809Y-81759791D02*
X79369047Y-81807410D01*
X79369047Y-81807410D02*
X79416666Y-81855029D01*
X79416666Y-81855029D02*
X79464285Y-81950267D01*
X79464285Y-81950267D02*
X79464285Y-82045505D01*
X79464285Y-82045505D02*
X79416666Y-82140743D01*
X79416666Y-82140743D02*
X79369047Y-82188362D01*
X79369047Y-82188362D02*
X79273809Y-82235981D01*
X79273809Y-82235981D02*
X78940476Y-82235981D01*
X80130952Y-81759791D02*
X80321428Y-81759791D01*
X80321428Y-81759791D02*
X80416666Y-81807410D01*
X80416666Y-81807410D02*
X80511904Y-81902648D01*
X80511904Y-81902648D02*
X80559523Y-82093124D01*
X80559523Y-82093124D02*
X80559523Y-82426457D01*
X80559523Y-82426457D02*
X80511904Y-82616933D01*
X80511904Y-82616933D02*
X80416666Y-82712172D01*
X80416666Y-82712172D02*
X80321428Y-82759791D01*
X80321428Y-82759791D02*
X80130952Y-82759791D01*
X80130952Y-82759791D02*
X80035714Y-82712172D01*
X80035714Y-82712172D02*
X79940476Y-82616933D01*
X79940476Y-82616933D02*
X79892857Y-82426457D01*
X79892857Y-82426457D02*
X79892857Y-82093124D01*
X79892857Y-82093124D02*
X79940476Y-81902648D01*
X79940476Y-81902648D02*
X80035714Y-81807410D01*
X80035714Y-81807410D02*
X80130952Y-81759791D01*
X81178571Y-81759791D02*
X81369047Y-81759791D01*
X81369047Y-81759791D02*
X81464285Y-81807410D01*
X81464285Y-81807410D02*
X81559523Y-81902648D01*
X81559523Y-81902648D02*
X81607142Y-82093124D01*
X81607142Y-82093124D02*
X81607142Y-82426457D01*
X81607142Y-82426457D02*
X81559523Y-82616933D01*
X81559523Y-82616933D02*
X81464285Y-82712172D01*
X81464285Y-82712172D02*
X81369047Y-82759791D01*
X81369047Y-82759791D02*
X81178571Y-82759791D01*
X81178571Y-82759791D02*
X81083333Y-82712172D01*
X81083333Y-82712172D02*
X80988095Y-82616933D01*
X80988095Y-82616933D02*
X80940476Y-82426457D01*
X80940476Y-82426457D02*
X80940476Y-82093124D01*
X80940476Y-82093124D02*
X80988095Y-81902648D01*
X80988095Y-81902648D02*
X81083333Y-81807410D01*
X81083333Y-81807410D02*
X81178571Y-81759791D01*
X81892857Y-81759791D02*
X82464285Y-81759791D01*
X82178571Y-82759791D02*
X82178571Y-81759791D01*
X95333333Y-79109580D02*
X95285714Y-79157200D01*
X95285714Y-79157200D02*
X95142857Y-79204819D01*
X95142857Y-79204819D02*
X95047619Y-79204819D01*
X95047619Y-79204819D02*
X94904762Y-79157200D01*
X94904762Y-79157200D02*
X94809524Y-79061961D01*
X94809524Y-79061961D02*
X94761905Y-78966723D01*
X94761905Y-78966723D02*
X94714286Y-78776247D01*
X94714286Y-78776247D02*
X94714286Y-78633390D01*
X94714286Y-78633390D02*
X94761905Y-78442914D01*
X94761905Y-78442914D02*
X94809524Y-78347676D01*
X94809524Y-78347676D02*
X94904762Y-78252438D01*
X94904762Y-78252438D02*
X95047619Y-78204819D01*
X95047619Y-78204819D02*
X95142857Y-78204819D01*
X95142857Y-78204819D02*
X95285714Y-78252438D01*
X95285714Y-78252438D02*
X95333333Y-78300057D01*
X96190476Y-78538152D02*
X96190476Y-79204819D01*
X95952381Y-78157200D02*
X95714286Y-78871485D01*
X95714286Y-78871485D02*
X96333333Y-78871485D01*
X96166666Y-71704819D02*
X96166666Y-72419104D01*
X96166666Y-72419104D02*
X96119047Y-72561961D01*
X96119047Y-72561961D02*
X96023809Y-72657200D01*
X96023809Y-72657200D02*
X95880952Y-72704819D01*
X95880952Y-72704819D02*
X95785714Y-72704819D01*
X97166666Y-72704819D02*
X96595238Y-72704819D01*
X96880952Y-72704819D02*
X96880952Y-71704819D01*
X96880952Y-71704819D02*
X96785714Y-71847676D01*
X96785714Y-71847676D02*
X96690476Y-71942914D01*
X96690476Y-71942914D02*
X96595238Y-71990533D01*
X105607142Y-91609580D02*
X105559523Y-91657200D01*
X105559523Y-91657200D02*
X105416666Y-91704819D01*
X105416666Y-91704819D02*
X105321428Y-91704819D01*
X105321428Y-91704819D02*
X105178571Y-91657200D01*
X105178571Y-91657200D02*
X105083333Y-91561961D01*
X105083333Y-91561961D02*
X105035714Y-91466723D01*
X105035714Y-91466723D02*
X104988095Y-91276247D01*
X104988095Y-91276247D02*
X104988095Y-91133390D01*
X104988095Y-91133390D02*
X105035714Y-90942914D01*
X105035714Y-90942914D02*
X105083333Y-90847676D01*
X105083333Y-90847676D02*
X105178571Y-90752438D01*
X105178571Y-90752438D02*
X105321428Y-90704819D01*
X105321428Y-90704819D02*
X105416666Y-90704819D01*
X105416666Y-90704819D02*
X105559523Y-90752438D01*
X105559523Y-90752438D02*
X105607142Y-90800057D01*
X106559523Y-91704819D02*
X105988095Y-91704819D01*
X106273809Y-91704819D02*
X106273809Y-90704819D01*
X106273809Y-90704819D02*
X106178571Y-90847676D01*
X106178571Y-90847676D02*
X106083333Y-90942914D01*
X106083333Y-90942914D02*
X105988095Y-90990533D01*
X107178571Y-90704819D02*
X107273809Y-90704819D01*
X107273809Y-90704819D02*
X107369047Y-90752438D01*
X107369047Y-90752438D02*
X107416666Y-90800057D01*
X107416666Y-90800057D02*
X107464285Y-90895295D01*
X107464285Y-90895295D02*
X107511904Y-91085771D01*
X107511904Y-91085771D02*
X107511904Y-91323866D01*
X107511904Y-91323866D02*
X107464285Y-91514342D01*
X107464285Y-91514342D02*
X107416666Y-91609580D01*
X107416666Y-91609580D02*
X107369047Y-91657200D01*
X107369047Y-91657200D02*
X107273809Y-91704819D01*
X107273809Y-91704819D02*
X107178571Y-91704819D01*
X107178571Y-91704819D02*
X107083333Y-91657200D01*
X107083333Y-91657200D02*
X107035714Y-91609580D01*
X107035714Y-91609580D02*
X106988095Y-91514342D01*
X106988095Y-91514342D02*
X106940476Y-91323866D01*
X106940476Y-91323866D02*
X106940476Y-91085771D01*
X106940476Y-91085771D02*
X106988095Y-90895295D01*
X106988095Y-90895295D02*
X107035714Y-90800057D01*
X107035714Y-90800057D02*
X107083333Y-90752438D01*
X107083333Y-90752438D02*
X107178571Y-90704819D01*
X104083333Y-96109580D02*
X104035714Y-96157200D01*
X104035714Y-96157200D02*
X103892857Y-96204819D01*
X103892857Y-96204819D02*
X103797619Y-96204819D01*
X103797619Y-96204819D02*
X103654762Y-96157200D01*
X103654762Y-96157200D02*
X103559524Y-96061961D01*
X103559524Y-96061961D02*
X103511905Y-95966723D01*
X103511905Y-95966723D02*
X103464286Y-95776247D01*
X103464286Y-95776247D02*
X103464286Y-95633390D01*
X103464286Y-95633390D02*
X103511905Y-95442914D01*
X103511905Y-95442914D02*
X103559524Y-95347676D01*
X103559524Y-95347676D02*
X103654762Y-95252438D01*
X103654762Y-95252438D02*
X103797619Y-95204819D01*
X103797619Y-95204819D02*
X103892857Y-95204819D01*
X103892857Y-95204819D02*
X104035714Y-95252438D01*
X104035714Y-95252438D02*
X104083333Y-95300057D01*
X104654762Y-95633390D02*
X104559524Y-95585771D01*
X104559524Y-95585771D02*
X104511905Y-95538152D01*
X104511905Y-95538152D02*
X104464286Y-95442914D01*
X104464286Y-95442914D02*
X104464286Y-95395295D01*
X104464286Y-95395295D02*
X104511905Y-95300057D01*
X104511905Y-95300057D02*
X104559524Y-95252438D01*
X104559524Y-95252438D02*
X104654762Y-95204819D01*
X104654762Y-95204819D02*
X104845238Y-95204819D01*
X104845238Y-95204819D02*
X104940476Y-95252438D01*
X104940476Y-95252438D02*
X104988095Y-95300057D01*
X104988095Y-95300057D02*
X105035714Y-95395295D01*
X105035714Y-95395295D02*
X105035714Y-95442914D01*
X105035714Y-95442914D02*
X104988095Y-95538152D01*
X104988095Y-95538152D02*
X104940476Y-95585771D01*
X104940476Y-95585771D02*
X104845238Y-95633390D01*
X104845238Y-95633390D02*
X104654762Y-95633390D01*
X104654762Y-95633390D02*
X104559524Y-95681009D01*
X104559524Y-95681009D02*
X104511905Y-95728628D01*
X104511905Y-95728628D02*
X104464286Y-95823866D01*
X104464286Y-95823866D02*
X104464286Y-96014342D01*
X104464286Y-96014342D02*
X104511905Y-96109580D01*
X104511905Y-96109580D02*
X104559524Y-96157200D01*
X104559524Y-96157200D02*
X104654762Y-96204819D01*
X104654762Y-96204819D02*
X104845238Y-96204819D01*
X104845238Y-96204819D02*
X104940476Y-96157200D01*
X104940476Y-96157200D02*
X104988095Y-96109580D01*
X104988095Y-96109580D02*
X105035714Y-96014342D01*
X105035714Y-96014342D02*
X105035714Y-95823866D01*
X105035714Y-95823866D02*
X104988095Y-95728628D01*
X104988095Y-95728628D02*
X104940476Y-95681009D01*
X104940476Y-95681009D02*
X104845238Y-95633390D01*
X89357142Y-101609580D02*
X89309523Y-101657200D01*
X89309523Y-101657200D02*
X89166666Y-101704819D01*
X89166666Y-101704819D02*
X89071428Y-101704819D01*
X89071428Y-101704819D02*
X88928571Y-101657200D01*
X88928571Y-101657200D02*
X88833333Y-101561961D01*
X88833333Y-101561961D02*
X88785714Y-101466723D01*
X88785714Y-101466723D02*
X88738095Y-101276247D01*
X88738095Y-101276247D02*
X88738095Y-101133390D01*
X88738095Y-101133390D02*
X88785714Y-100942914D01*
X88785714Y-100942914D02*
X88833333Y-100847676D01*
X88833333Y-100847676D02*
X88928571Y-100752438D01*
X88928571Y-100752438D02*
X89071428Y-100704819D01*
X89071428Y-100704819D02*
X89166666Y-100704819D01*
X89166666Y-100704819D02*
X89309523Y-100752438D01*
X89309523Y-100752438D02*
X89357142Y-100800057D01*
X90309523Y-101704819D02*
X89738095Y-101704819D01*
X90023809Y-101704819D02*
X90023809Y-100704819D01*
X90023809Y-100704819D02*
X89928571Y-100847676D01*
X89928571Y-100847676D02*
X89833333Y-100942914D01*
X89833333Y-100942914D02*
X89738095Y-100990533D01*
X90642857Y-100704819D02*
X91261904Y-100704819D01*
X91261904Y-100704819D02*
X90928571Y-101085771D01*
X90928571Y-101085771D02*
X91071428Y-101085771D01*
X91071428Y-101085771D02*
X91166666Y-101133390D01*
X91166666Y-101133390D02*
X91214285Y-101181009D01*
X91214285Y-101181009D02*
X91261904Y-101276247D01*
X91261904Y-101276247D02*
X91261904Y-101514342D01*
X91261904Y-101514342D02*
X91214285Y-101609580D01*
X91214285Y-101609580D02*
X91166666Y-101657200D01*
X91166666Y-101657200D02*
X91071428Y-101704819D01*
X91071428Y-101704819D02*
X90785714Y-101704819D01*
X90785714Y-101704819D02*
X90690476Y-101657200D01*
X90690476Y-101657200D02*
X90642857Y-101609580D01*
X84583333Y-88359580D02*
X84535714Y-88407200D01*
X84535714Y-88407200D02*
X84392857Y-88454819D01*
X84392857Y-88454819D02*
X84297619Y-88454819D01*
X84297619Y-88454819D02*
X84154762Y-88407200D01*
X84154762Y-88407200D02*
X84059524Y-88311961D01*
X84059524Y-88311961D02*
X84011905Y-88216723D01*
X84011905Y-88216723D02*
X83964286Y-88026247D01*
X83964286Y-88026247D02*
X83964286Y-87883390D01*
X83964286Y-87883390D02*
X84011905Y-87692914D01*
X84011905Y-87692914D02*
X84059524Y-87597676D01*
X84059524Y-87597676D02*
X84154762Y-87502438D01*
X84154762Y-87502438D02*
X84297619Y-87454819D01*
X84297619Y-87454819D02*
X84392857Y-87454819D01*
X84392857Y-87454819D02*
X84535714Y-87502438D01*
X84535714Y-87502438D02*
X84583333Y-87550057D01*
X85488095Y-87454819D02*
X85011905Y-87454819D01*
X85011905Y-87454819D02*
X84964286Y-87931009D01*
X84964286Y-87931009D02*
X85011905Y-87883390D01*
X85011905Y-87883390D02*
X85107143Y-87835771D01*
X85107143Y-87835771D02*
X85345238Y-87835771D01*
X85345238Y-87835771D02*
X85440476Y-87883390D01*
X85440476Y-87883390D02*
X85488095Y-87931009D01*
X85488095Y-87931009D02*
X85535714Y-88026247D01*
X85535714Y-88026247D02*
X85535714Y-88264342D01*
X85535714Y-88264342D02*
X85488095Y-88359580D01*
X85488095Y-88359580D02*
X85440476Y-88407200D01*
X85440476Y-88407200D02*
X85345238Y-88454819D01*
X85345238Y-88454819D02*
X85107143Y-88454819D01*
X85107143Y-88454819D02*
X85011905Y-88407200D01*
X85011905Y-88407200D02*
X84964286Y-88359580D01*
X89238095Y-73454819D02*
X89238095Y-74264342D01*
X89238095Y-74264342D02*
X89285714Y-74359580D01*
X89285714Y-74359580D02*
X89333333Y-74407200D01*
X89333333Y-74407200D02*
X89428571Y-74454819D01*
X89428571Y-74454819D02*
X89619047Y-74454819D01*
X89619047Y-74454819D02*
X89714285Y-74407200D01*
X89714285Y-74407200D02*
X89761904Y-74359580D01*
X89761904Y-74359580D02*
X89809523Y-74264342D01*
X89809523Y-74264342D02*
X89809523Y-73454819D01*
X90809523Y-74454819D02*
X90238095Y-74454819D01*
X90523809Y-74454819D02*
X90523809Y-73454819D01*
X90523809Y-73454819D02*
X90428571Y-73597676D01*
X90428571Y-73597676D02*
X90333333Y-73692914D01*
X90333333Y-73692914D02*
X90238095Y-73740533D01*
X84074095Y-96991819D02*
X84074095Y-97801342D01*
X84074095Y-97801342D02*
X84121714Y-97896580D01*
X84121714Y-97896580D02*
X84169333Y-97944200D01*
X84169333Y-97944200D02*
X84264571Y-97991819D01*
X84264571Y-97991819D02*
X84455047Y-97991819D01*
X84455047Y-97991819D02*
X84550285Y-97944200D01*
X84550285Y-97944200D02*
X84597904Y-97896580D01*
X84597904Y-97896580D02*
X84645523Y-97801342D01*
X84645523Y-97801342D02*
X84645523Y-96991819D01*
X85074095Y-97087057D02*
X85121714Y-97039438D01*
X85121714Y-97039438D02*
X85216952Y-96991819D01*
X85216952Y-96991819D02*
X85455047Y-96991819D01*
X85455047Y-96991819D02*
X85550285Y-97039438D01*
X85550285Y-97039438D02*
X85597904Y-97087057D01*
X85597904Y-97087057D02*
X85645523Y-97182295D01*
X85645523Y-97182295D02*
X85645523Y-97277533D01*
X85645523Y-97277533D02*
X85597904Y-97420390D01*
X85597904Y-97420390D02*
X85026476Y-97991819D01*
X85026476Y-97991819D02*
X85645523Y-97991819D01*
X93083333Y-92234819D02*
X92750000Y-91758628D01*
X92511905Y-92234819D02*
X92511905Y-91234819D01*
X92511905Y-91234819D02*
X92892857Y-91234819D01*
X92892857Y-91234819D02*
X92988095Y-91282438D01*
X92988095Y-91282438D02*
X93035714Y-91330057D01*
X93035714Y-91330057D02*
X93083333Y-91425295D01*
X93083333Y-91425295D02*
X93083333Y-91568152D01*
X93083333Y-91568152D02*
X93035714Y-91663390D01*
X93035714Y-91663390D02*
X92988095Y-91711009D01*
X92988095Y-91711009D02*
X92892857Y-91758628D01*
X92892857Y-91758628D02*
X92511905Y-91758628D01*
X94035714Y-92234819D02*
X93464286Y-92234819D01*
X93750000Y-92234819D02*
X93750000Y-91234819D01*
X93750000Y-91234819D02*
X93654762Y-91377676D01*
X93654762Y-91377676D02*
X93559524Y-91472914D01*
X93559524Y-91472914D02*
X93464286Y-91520533D01*
X100833333Y-90109580D02*
X100785714Y-90157200D01*
X100785714Y-90157200D02*
X100642857Y-90204819D01*
X100642857Y-90204819D02*
X100547619Y-90204819D01*
X100547619Y-90204819D02*
X100404762Y-90157200D01*
X100404762Y-90157200D02*
X100309524Y-90061961D01*
X100309524Y-90061961D02*
X100261905Y-89966723D01*
X100261905Y-89966723D02*
X100214286Y-89776247D01*
X100214286Y-89776247D02*
X100214286Y-89633390D01*
X100214286Y-89633390D02*
X100261905Y-89442914D01*
X100261905Y-89442914D02*
X100309524Y-89347676D01*
X100309524Y-89347676D02*
X100404762Y-89252438D01*
X100404762Y-89252438D02*
X100547619Y-89204819D01*
X100547619Y-89204819D02*
X100642857Y-89204819D01*
X100642857Y-89204819D02*
X100785714Y-89252438D01*
X100785714Y-89252438D02*
X100833333Y-89300057D01*
X101309524Y-90204819D02*
X101500000Y-90204819D01*
X101500000Y-90204819D02*
X101595238Y-90157200D01*
X101595238Y-90157200D02*
X101642857Y-90109580D01*
X101642857Y-90109580D02*
X101738095Y-89966723D01*
X101738095Y-89966723D02*
X101785714Y-89776247D01*
X101785714Y-89776247D02*
X101785714Y-89395295D01*
X101785714Y-89395295D02*
X101738095Y-89300057D01*
X101738095Y-89300057D02*
X101690476Y-89252438D01*
X101690476Y-89252438D02*
X101595238Y-89204819D01*
X101595238Y-89204819D02*
X101404762Y-89204819D01*
X101404762Y-89204819D02*
X101309524Y-89252438D01*
X101309524Y-89252438D02*
X101261905Y-89300057D01*
X101261905Y-89300057D02*
X101214286Y-89395295D01*
X101214286Y-89395295D02*
X101214286Y-89633390D01*
X101214286Y-89633390D02*
X101261905Y-89728628D01*
X101261905Y-89728628D02*
X101309524Y-89776247D01*
X101309524Y-89776247D02*
X101404762Y-89823866D01*
X101404762Y-89823866D02*
X101595238Y-89823866D01*
X101595238Y-89823866D02*
X101690476Y-89776247D01*
X101690476Y-89776247D02*
X101738095Y-89728628D01*
X101738095Y-89728628D02*
X101785714Y-89633390D01*
X105842142Y-99859580D02*
X105794523Y-99907200D01*
X105794523Y-99907200D02*
X105651666Y-99954819D01*
X105651666Y-99954819D02*
X105556428Y-99954819D01*
X105556428Y-99954819D02*
X105413571Y-99907200D01*
X105413571Y-99907200D02*
X105318333Y-99811961D01*
X105318333Y-99811961D02*
X105270714Y-99716723D01*
X105270714Y-99716723D02*
X105223095Y-99526247D01*
X105223095Y-99526247D02*
X105223095Y-99383390D01*
X105223095Y-99383390D02*
X105270714Y-99192914D01*
X105270714Y-99192914D02*
X105318333Y-99097676D01*
X105318333Y-99097676D02*
X105413571Y-99002438D01*
X105413571Y-99002438D02*
X105556428Y-98954819D01*
X105556428Y-98954819D02*
X105651666Y-98954819D01*
X105651666Y-98954819D02*
X105794523Y-99002438D01*
X105794523Y-99002438D02*
X105842142Y-99050057D01*
X106794523Y-99954819D02*
X106223095Y-99954819D01*
X106508809Y-99954819D02*
X106508809Y-98954819D01*
X106508809Y-98954819D02*
X106413571Y-99097676D01*
X106413571Y-99097676D02*
X106318333Y-99192914D01*
X106318333Y-99192914D02*
X106223095Y-99240533D01*
X107175476Y-99050057D02*
X107223095Y-99002438D01*
X107223095Y-99002438D02*
X107318333Y-98954819D01*
X107318333Y-98954819D02*
X107556428Y-98954819D01*
X107556428Y-98954819D02*
X107651666Y-99002438D01*
X107651666Y-99002438D02*
X107699285Y-99050057D01*
X107699285Y-99050057D02*
X107746904Y-99145295D01*
X107746904Y-99145295D02*
X107746904Y-99240533D01*
X107746904Y-99240533D02*
X107699285Y-99383390D01*
X107699285Y-99383390D02*
X107127857Y-99954819D01*
X107127857Y-99954819D02*
X107746904Y-99954819D01*
X99857142Y-106359580D02*
X99809523Y-106407200D01*
X99809523Y-106407200D02*
X99666666Y-106454819D01*
X99666666Y-106454819D02*
X99571428Y-106454819D01*
X99571428Y-106454819D02*
X99428571Y-106407200D01*
X99428571Y-106407200D02*
X99333333Y-106311961D01*
X99333333Y-106311961D02*
X99285714Y-106216723D01*
X99285714Y-106216723D02*
X99238095Y-106026247D01*
X99238095Y-106026247D02*
X99238095Y-105883390D01*
X99238095Y-105883390D02*
X99285714Y-105692914D01*
X99285714Y-105692914D02*
X99333333Y-105597676D01*
X99333333Y-105597676D02*
X99428571Y-105502438D01*
X99428571Y-105502438D02*
X99571428Y-105454819D01*
X99571428Y-105454819D02*
X99666666Y-105454819D01*
X99666666Y-105454819D02*
X99809523Y-105502438D01*
X99809523Y-105502438D02*
X99857142Y-105550057D01*
X100809523Y-106454819D02*
X100238095Y-106454819D01*
X100523809Y-106454819D02*
X100523809Y-105454819D01*
X100523809Y-105454819D02*
X100428571Y-105597676D01*
X100428571Y-105597676D02*
X100333333Y-105692914D01*
X100333333Y-105692914D02*
X100238095Y-105740533D01*
X101666666Y-105788152D02*
X101666666Y-106454819D01*
X101428571Y-105407200D02*
X101190476Y-106121485D01*
X101190476Y-106121485D02*
X101809523Y-106121485D01*
X100583333Y-91954819D02*
X100250000Y-91478628D01*
X100011905Y-91954819D02*
X100011905Y-90954819D01*
X100011905Y-90954819D02*
X100392857Y-90954819D01*
X100392857Y-90954819D02*
X100488095Y-91002438D01*
X100488095Y-91002438D02*
X100535714Y-91050057D01*
X100535714Y-91050057D02*
X100583333Y-91145295D01*
X100583333Y-91145295D02*
X100583333Y-91288152D01*
X100583333Y-91288152D02*
X100535714Y-91383390D01*
X100535714Y-91383390D02*
X100488095Y-91431009D01*
X100488095Y-91431009D02*
X100392857Y-91478628D01*
X100392857Y-91478628D02*
X100011905Y-91478628D01*
X100916667Y-90954819D02*
X101535714Y-90954819D01*
X101535714Y-90954819D02*
X101202381Y-91335771D01*
X101202381Y-91335771D02*
X101345238Y-91335771D01*
X101345238Y-91335771D02*
X101440476Y-91383390D01*
X101440476Y-91383390D02*
X101488095Y-91431009D01*
X101488095Y-91431009D02*
X101535714Y-91526247D01*
X101535714Y-91526247D02*
X101535714Y-91764342D01*
X101535714Y-91764342D02*
X101488095Y-91859580D01*
X101488095Y-91859580D02*
X101440476Y-91907200D01*
X101440476Y-91907200D02*
X101345238Y-91954819D01*
X101345238Y-91954819D02*
X101059524Y-91954819D01*
X101059524Y-91954819D02*
X100964286Y-91907200D01*
X100964286Y-91907200D02*
X100916667Y-91859580D01*
X104083333Y-109109580D02*
X104035714Y-109157200D01*
X104035714Y-109157200D02*
X103892857Y-109204819D01*
X103892857Y-109204819D02*
X103797619Y-109204819D01*
X103797619Y-109204819D02*
X103654762Y-109157200D01*
X103654762Y-109157200D02*
X103559524Y-109061961D01*
X103559524Y-109061961D02*
X103511905Y-108966723D01*
X103511905Y-108966723D02*
X103464286Y-108776247D01*
X103464286Y-108776247D02*
X103464286Y-108633390D01*
X103464286Y-108633390D02*
X103511905Y-108442914D01*
X103511905Y-108442914D02*
X103559524Y-108347676D01*
X103559524Y-108347676D02*
X103654762Y-108252438D01*
X103654762Y-108252438D02*
X103797619Y-108204819D01*
X103797619Y-108204819D02*
X103892857Y-108204819D01*
X103892857Y-108204819D02*
X104035714Y-108252438D01*
X104035714Y-108252438D02*
X104083333Y-108300057D01*
X104416667Y-108204819D02*
X105083333Y-108204819D01*
X105083333Y-108204819D02*
X104654762Y-109204819D01*
X83333333Y-76109580D02*
X83285714Y-76157200D01*
X83285714Y-76157200D02*
X83142857Y-76204819D01*
X83142857Y-76204819D02*
X83047619Y-76204819D01*
X83047619Y-76204819D02*
X82904762Y-76157200D01*
X82904762Y-76157200D02*
X82809524Y-76061961D01*
X82809524Y-76061961D02*
X82761905Y-75966723D01*
X82761905Y-75966723D02*
X82714286Y-75776247D01*
X82714286Y-75776247D02*
X82714286Y-75633390D01*
X82714286Y-75633390D02*
X82761905Y-75442914D01*
X82761905Y-75442914D02*
X82809524Y-75347676D01*
X82809524Y-75347676D02*
X82904762Y-75252438D01*
X82904762Y-75252438D02*
X83047619Y-75204819D01*
X83047619Y-75204819D02*
X83142857Y-75204819D01*
X83142857Y-75204819D02*
X83285714Y-75252438D01*
X83285714Y-75252438D02*
X83333333Y-75300057D01*
X84285714Y-76204819D02*
X83714286Y-76204819D01*
X84000000Y-76204819D02*
X84000000Y-75204819D01*
X84000000Y-75204819D02*
X83904762Y-75347676D01*
X83904762Y-75347676D02*
X83809524Y-75442914D01*
X83809524Y-75442914D02*
X83714286Y-75490533D01*
X89857142Y-97859580D02*
X89809523Y-97907200D01*
X89809523Y-97907200D02*
X89666666Y-97954819D01*
X89666666Y-97954819D02*
X89571428Y-97954819D01*
X89571428Y-97954819D02*
X89428571Y-97907200D01*
X89428571Y-97907200D02*
X89333333Y-97811961D01*
X89333333Y-97811961D02*
X89285714Y-97716723D01*
X89285714Y-97716723D02*
X89238095Y-97526247D01*
X89238095Y-97526247D02*
X89238095Y-97383390D01*
X89238095Y-97383390D02*
X89285714Y-97192914D01*
X89285714Y-97192914D02*
X89333333Y-97097676D01*
X89333333Y-97097676D02*
X89428571Y-97002438D01*
X89428571Y-97002438D02*
X89571428Y-96954819D01*
X89571428Y-96954819D02*
X89666666Y-96954819D01*
X89666666Y-96954819D02*
X89809523Y-97002438D01*
X89809523Y-97002438D02*
X89857142Y-97050057D01*
X90809523Y-97954819D02*
X90238095Y-97954819D01*
X90523809Y-97954819D02*
X90523809Y-96954819D01*
X90523809Y-96954819D02*
X90428571Y-97097676D01*
X90428571Y-97097676D02*
X90333333Y-97192914D01*
X90333333Y-97192914D02*
X90238095Y-97240533D01*
X91761904Y-97954819D02*
X91190476Y-97954819D01*
X91476190Y-97954819D02*
X91476190Y-96954819D01*
X91476190Y-96954819D02*
X91380952Y-97097676D01*
X91380952Y-97097676D02*
X91285714Y-97192914D01*
X91285714Y-97192914D02*
X91190476Y-97240533D01*
X119857142Y-95109580D02*
X119809523Y-95157200D01*
X119809523Y-95157200D02*
X119666666Y-95204819D01*
X119666666Y-95204819D02*
X119571428Y-95204819D01*
X119571428Y-95204819D02*
X119428571Y-95157200D01*
X119428571Y-95157200D02*
X119333333Y-95061961D01*
X119333333Y-95061961D02*
X119285714Y-94966723D01*
X119285714Y-94966723D02*
X119238095Y-94776247D01*
X119238095Y-94776247D02*
X119238095Y-94633390D01*
X119238095Y-94633390D02*
X119285714Y-94442914D01*
X119285714Y-94442914D02*
X119333333Y-94347676D01*
X119333333Y-94347676D02*
X119428571Y-94252438D01*
X119428571Y-94252438D02*
X119571428Y-94204819D01*
X119571428Y-94204819D02*
X119666666Y-94204819D01*
X119666666Y-94204819D02*
X119809523Y-94252438D01*
X119809523Y-94252438D02*
X119857142Y-94300057D01*
X120809523Y-95204819D02*
X120238095Y-95204819D01*
X120523809Y-95204819D02*
X120523809Y-94204819D01*
X120523809Y-94204819D02*
X120428571Y-94347676D01*
X120428571Y-94347676D02*
X120333333Y-94442914D01*
X120333333Y-94442914D02*
X120238095Y-94490533D01*
X121666666Y-94204819D02*
X121476190Y-94204819D01*
X121476190Y-94204819D02*
X121380952Y-94252438D01*
X121380952Y-94252438D02*
X121333333Y-94300057D01*
X121333333Y-94300057D02*
X121238095Y-94442914D01*
X121238095Y-94442914D02*
X121190476Y-94633390D01*
X121190476Y-94633390D02*
X121190476Y-95014342D01*
X121190476Y-95014342D02*
X121238095Y-95109580D01*
X121238095Y-95109580D02*
X121285714Y-95157200D01*
X121285714Y-95157200D02*
X121380952Y-95204819D01*
X121380952Y-95204819D02*
X121571428Y-95204819D01*
X121571428Y-95204819D02*
X121666666Y-95157200D01*
X121666666Y-95157200D02*
X121714285Y-95109580D01*
X121714285Y-95109580D02*
X121761904Y-95014342D01*
X121761904Y-95014342D02*
X121761904Y-94776247D01*
X121761904Y-94776247D02*
X121714285Y-94681009D01*
X121714285Y-94681009D02*
X121666666Y-94633390D01*
X121666666Y-94633390D02*
X121571428Y-94585771D01*
X121571428Y-94585771D02*
X121380952Y-94585771D01*
X121380952Y-94585771D02*
X121285714Y-94633390D01*
X121285714Y-94633390D02*
X121238095Y-94681009D01*
X121238095Y-94681009D02*
X121190476Y-94776247D01*
X97238095Y-104454819D02*
X97238095Y-105264342D01*
X97238095Y-105264342D02*
X97285714Y-105359580D01*
X97285714Y-105359580D02*
X97333333Y-105407200D01*
X97333333Y-105407200D02*
X97428571Y-105454819D01*
X97428571Y-105454819D02*
X97619047Y-105454819D01*
X97619047Y-105454819D02*
X97714285Y-105407200D01*
X97714285Y-105407200D02*
X97761904Y-105359580D01*
X97761904Y-105359580D02*
X97809523Y-105264342D01*
X97809523Y-105264342D02*
X97809523Y-104454819D01*
X98190476Y-104454819D02*
X98809523Y-104454819D01*
X98809523Y-104454819D02*
X98476190Y-104835771D01*
X98476190Y-104835771D02*
X98619047Y-104835771D01*
X98619047Y-104835771D02*
X98714285Y-104883390D01*
X98714285Y-104883390D02*
X98761904Y-104931009D01*
X98761904Y-104931009D02*
X98809523Y-105026247D01*
X98809523Y-105026247D02*
X98809523Y-105264342D01*
X98809523Y-105264342D02*
X98761904Y-105359580D01*
X98761904Y-105359580D02*
X98714285Y-105407200D01*
X98714285Y-105407200D02*
X98619047Y-105454819D01*
X98619047Y-105454819D02*
X98333333Y-105454819D01*
X98333333Y-105454819D02*
X98238095Y-105407200D01*
X98238095Y-105407200D02*
X98190476Y-105359580D01*
X102333333Y-91954819D02*
X102000000Y-91478628D01*
X101761905Y-91954819D02*
X101761905Y-90954819D01*
X101761905Y-90954819D02*
X102142857Y-90954819D01*
X102142857Y-90954819D02*
X102238095Y-91002438D01*
X102238095Y-91002438D02*
X102285714Y-91050057D01*
X102285714Y-91050057D02*
X102333333Y-91145295D01*
X102333333Y-91145295D02*
X102333333Y-91288152D01*
X102333333Y-91288152D02*
X102285714Y-91383390D01*
X102285714Y-91383390D02*
X102238095Y-91431009D01*
X102238095Y-91431009D02*
X102142857Y-91478628D01*
X102142857Y-91478628D02*
X101761905Y-91478628D01*
X103190476Y-91288152D02*
X103190476Y-91954819D01*
X102952381Y-90907200D02*
X102714286Y-91621485D01*
X102714286Y-91621485D02*
X103333333Y-91621485D01*
X97083333Y-90359580D02*
X97035714Y-90407200D01*
X97035714Y-90407200D02*
X96892857Y-90454819D01*
X96892857Y-90454819D02*
X96797619Y-90454819D01*
X96797619Y-90454819D02*
X96654762Y-90407200D01*
X96654762Y-90407200D02*
X96559524Y-90311961D01*
X96559524Y-90311961D02*
X96511905Y-90216723D01*
X96511905Y-90216723D02*
X96464286Y-90026247D01*
X96464286Y-90026247D02*
X96464286Y-89883390D01*
X96464286Y-89883390D02*
X96511905Y-89692914D01*
X96511905Y-89692914D02*
X96559524Y-89597676D01*
X96559524Y-89597676D02*
X96654762Y-89502438D01*
X96654762Y-89502438D02*
X96797619Y-89454819D01*
X96797619Y-89454819D02*
X96892857Y-89454819D01*
X96892857Y-89454819D02*
X97035714Y-89502438D01*
X97035714Y-89502438D02*
X97083333Y-89550057D01*
X97940476Y-89454819D02*
X97750000Y-89454819D01*
X97750000Y-89454819D02*
X97654762Y-89502438D01*
X97654762Y-89502438D02*
X97607143Y-89550057D01*
X97607143Y-89550057D02*
X97511905Y-89692914D01*
X97511905Y-89692914D02*
X97464286Y-89883390D01*
X97464286Y-89883390D02*
X97464286Y-90264342D01*
X97464286Y-90264342D02*
X97511905Y-90359580D01*
X97511905Y-90359580D02*
X97559524Y-90407200D01*
X97559524Y-90407200D02*
X97654762Y-90454819D01*
X97654762Y-90454819D02*
X97845238Y-90454819D01*
X97845238Y-90454819D02*
X97940476Y-90407200D01*
X97940476Y-90407200D02*
X97988095Y-90359580D01*
X97988095Y-90359580D02*
X98035714Y-90264342D01*
X98035714Y-90264342D02*
X98035714Y-90026247D01*
X98035714Y-90026247D02*
X97988095Y-89931009D01*
X97988095Y-89931009D02*
X97940476Y-89883390D01*
X97940476Y-89883390D02*
X97845238Y-89835771D01*
X97845238Y-89835771D02*
X97654762Y-89835771D01*
X97654762Y-89835771D02*
X97559524Y-89883390D01*
X97559524Y-89883390D02*
X97511905Y-89931009D01*
X97511905Y-89931009D02*
X97464286Y-90026247D01*
X105842142Y-98359580D02*
X105794523Y-98407200D01*
X105794523Y-98407200D02*
X105651666Y-98454819D01*
X105651666Y-98454819D02*
X105556428Y-98454819D01*
X105556428Y-98454819D02*
X105413571Y-98407200D01*
X105413571Y-98407200D02*
X105318333Y-98311961D01*
X105318333Y-98311961D02*
X105270714Y-98216723D01*
X105270714Y-98216723D02*
X105223095Y-98026247D01*
X105223095Y-98026247D02*
X105223095Y-97883390D01*
X105223095Y-97883390D02*
X105270714Y-97692914D01*
X105270714Y-97692914D02*
X105318333Y-97597676D01*
X105318333Y-97597676D02*
X105413571Y-97502438D01*
X105413571Y-97502438D02*
X105556428Y-97454819D01*
X105556428Y-97454819D02*
X105651666Y-97454819D01*
X105651666Y-97454819D02*
X105794523Y-97502438D01*
X105794523Y-97502438D02*
X105842142Y-97550057D01*
X106794523Y-98454819D02*
X106223095Y-98454819D01*
X106508809Y-98454819D02*
X106508809Y-97454819D01*
X106508809Y-97454819D02*
X106413571Y-97597676D01*
X106413571Y-97597676D02*
X106318333Y-97692914D01*
X106318333Y-97692914D02*
X106223095Y-97740533D01*
X107699285Y-97454819D02*
X107223095Y-97454819D01*
X107223095Y-97454819D02*
X107175476Y-97931009D01*
X107175476Y-97931009D02*
X107223095Y-97883390D01*
X107223095Y-97883390D02*
X107318333Y-97835771D01*
X107318333Y-97835771D02*
X107556428Y-97835771D01*
X107556428Y-97835771D02*
X107651666Y-97883390D01*
X107651666Y-97883390D02*
X107699285Y-97931009D01*
X107699285Y-97931009D02*
X107746904Y-98026247D01*
X107746904Y-98026247D02*
X107746904Y-98264342D01*
X107746904Y-98264342D02*
X107699285Y-98359580D01*
X107699285Y-98359580D02*
X107651666Y-98407200D01*
X107651666Y-98407200D02*
X107556428Y-98454819D01*
X107556428Y-98454819D02*
X107318333Y-98454819D01*
X107318333Y-98454819D02*
X107223095Y-98407200D01*
X107223095Y-98407200D02*
X107175476Y-98359580D01*
X119107142Y-118359580D02*
X119059523Y-118407200D01*
X119059523Y-118407200D02*
X118916666Y-118454819D01*
X118916666Y-118454819D02*
X118821428Y-118454819D01*
X118821428Y-118454819D02*
X118678571Y-118407200D01*
X118678571Y-118407200D02*
X118583333Y-118311961D01*
X118583333Y-118311961D02*
X118535714Y-118216723D01*
X118535714Y-118216723D02*
X118488095Y-118026247D01*
X118488095Y-118026247D02*
X118488095Y-117883390D01*
X118488095Y-117883390D02*
X118535714Y-117692914D01*
X118535714Y-117692914D02*
X118583333Y-117597676D01*
X118583333Y-117597676D02*
X118678571Y-117502438D01*
X118678571Y-117502438D02*
X118821428Y-117454819D01*
X118821428Y-117454819D02*
X118916666Y-117454819D01*
X118916666Y-117454819D02*
X119059523Y-117502438D01*
X119059523Y-117502438D02*
X119107142Y-117550057D01*
X120059523Y-118454819D02*
X119488095Y-118454819D01*
X119773809Y-118454819D02*
X119773809Y-117454819D01*
X119773809Y-117454819D02*
X119678571Y-117597676D01*
X119678571Y-117597676D02*
X119583333Y-117692914D01*
X119583333Y-117692914D02*
X119488095Y-117740533D01*
X120392857Y-117454819D02*
X121059523Y-117454819D01*
X121059523Y-117454819D02*
X120630952Y-118454819D01*
X108833333Y-106204819D02*
X108357143Y-106204819D01*
X108357143Y-106204819D02*
X108357143Y-105204819D01*
X109690476Y-106204819D02*
X109119048Y-106204819D01*
X109404762Y-106204819D02*
X109404762Y-105204819D01*
X109404762Y-105204819D02*
X109309524Y-105347676D01*
X109309524Y-105347676D02*
X109214286Y-105442914D01*
X109214286Y-105442914D02*
X109119048Y-105490533D01*
X114083333Y-116204819D02*
X113750000Y-115728628D01*
X113511905Y-116204819D02*
X113511905Y-115204819D01*
X113511905Y-115204819D02*
X113892857Y-115204819D01*
X113892857Y-115204819D02*
X113988095Y-115252438D01*
X113988095Y-115252438D02*
X114035714Y-115300057D01*
X114035714Y-115300057D02*
X114083333Y-115395295D01*
X114083333Y-115395295D02*
X114083333Y-115538152D01*
X114083333Y-115538152D02*
X114035714Y-115633390D01*
X114035714Y-115633390D02*
X113988095Y-115681009D01*
X113988095Y-115681009D02*
X113892857Y-115728628D01*
X113892857Y-115728628D02*
X113511905Y-115728628D01*
X114559524Y-116204819D02*
X114750000Y-116204819D01*
X114750000Y-116204819D02*
X114845238Y-116157200D01*
X114845238Y-116157200D02*
X114892857Y-116109580D01*
X114892857Y-116109580D02*
X114988095Y-115966723D01*
X114988095Y-115966723D02*
X115035714Y-115776247D01*
X115035714Y-115776247D02*
X115035714Y-115395295D01*
X115035714Y-115395295D02*
X114988095Y-115300057D01*
X114988095Y-115300057D02*
X114940476Y-115252438D01*
X114940476Y-115252438D02*
X114845238Y-115204819D01*
X114845238Y-115204819D02*
X114654762Y-115204819D01*
X114654762Y-115204819D02*
X114559524Y-115252438D01*
X114559524Y-115252438D02*
X114511905Y-115300057D01*
X114511905Y-115300057D02*
X114464286Y-115395295D01*
X114464286Y-115395295D02*
X114464286Y-115633390D01*
X114464286Y-115633390D02*
X114511905Y-115728628D01*
X114511905Y-115728628D02*
X114559524Y-115776247D01*
X114559524Y-115776247D02*
X114654762Y-115823866D01*
X114654762Y-115823866D02*
X114845238Y-115823866D01*
X114845238Y-115823866D02*
X114940476Y-115776247D01*
X114940476Y-115776247D02*
X114988095Y-115728628D01*
X114988095Y-115728628D02*
X115035714Y-115633390D01*
X94204819Y-111940476D02*
X94204819Y-112511904D01*
X94204819Y-112226190D02*
X93204819Y-112226190D01*
X93204819Y-112226190D02*
X93347676Y-112321428D01*
X93347676Y-112321428D02*
X93442914Y-112416666D01*
X93442914Y-112416666D02*
X93490533Y-112511904D01*
X93204819Y-111607142D02*
X93204819Y-110988095D01*
X93204819Y-110988095D02*
X93585771Y-111321428D01*
X93585771Y-111321428D02*
X93585771Y-111178571D01*
X93585771Y-111178571D02*
X93633390Y-111083333D01*
X93633390Y-111083333D02*
X93681009Y-111035714D01*
X93681009Y-111035714D02*
X93776247Y-110988095D01*
X93776247Y-110988095D02*
X94014342Y-110988095D01*
X94014342Y-110988095D02*
X94109580Y-111035714D01*
X94109580Y-111035714D02*
X94157200Y-111083333D01*
X94157200Y-111083333D02*
X94204819Y-111178571D01*
X94204819Y-111178571D02*
X94204819Y-111464285D01*
X94204819Y-111464285D02*
X94157200Y-111559523D01*
X94157200Y-111559523D02*
X94109580Y-111607142D01*
X120107142Y-108454819D02*
X119773809Y-107978628D01*
X119535714Y-108454819D02*
X119535714Y-107454819D01*
X119535714Y-107454819D02*
X119916666Y-107454819D01*
X119916666Y-107454819D02*
X120011904Y-107502438D01*
X120011904Y-107502438D02*
X120059523Y-107550057D01*
X120059523Y-107550057D02*
X120107142Y-107645295D01*
X120107142Y-107645295D02*
X120107142Y-107788152D01*
X120107142Y-107788152D02*
X120059523Y-107883390D01*
X120059523Y-107883390D02*
X120011904Y-107931009D01*
X120011904Y-107931009D02*
X119916666Y-107978628D01*
X119916666Y-107978628D02*
X119535714Y-107978628D01*
X121059523Y-108454819D02*
X120488095Y-108454819D01*
X120773809Y-108454819D02*
X120773809Y-107454819D01*
X120773809Y-107454819D02*
X120678571Y-107597676D01*
X120678571Y-107597676D02*
X120583333Y-107692914D01*
X120583333Y-107692914D02*
X120488095Y-107740533D01*
X121678571Y-107454819D02*
X121773809Y-107454819D01*
X121773809Y-107454819D02*
X121869047Y-107502438D01*
X121869047Y-107502438D02*
X121916666Y-107550057D01*
X121916666Y-107550057D02*
X121964285Y-107645295D01*
X121964285Y-107645295D02*
X122011904Y-107835771D01*
X122011904Y-107835771D02*
X122011904Y-108073866D01*
X122011904Y-108073866D02*
X121964285Y-108264342D01*
X121964285Y-108264342D02*
X121916666Y-108359580D01*
X121916666Y-108359580D02*
X121869047Y-108407200D01*
X121869047Y-108407200D02*
X121773809Y-108454819D01*
X121773809Y-108454819D02*
X121678571Y-108454819D01*
X121678571Y-108454819D02*
X121583333Y-108407200D01*
X121583333Y-108407200D02*
X121535714Y-108359580D01*
X121535714Y-108359580D02*
X121488095Y-108264342D01*
X121488095Y-108264342D02*
X121440476Y-108073866D01*
X121440476Y-108073866D02*
X121440476Y-107835771D01*
X121440476Y-107835771D02*
X121488095Y-107645295D01*
X121488095Y-107645295D02*
X121535714Y-107550057D01*
X121535714Y-107550057D02*
X121583333Y-107502438D01*
X121583333Y-107502438D02*
X121678571Y-107454819D01*
X108630952Y-99157200D02*
X108726190Y-99204819D01*
X108726190Y-99204819D02*
X108916666Y-99204819D01*
X108916666Y-99204819D02*
X109011904Y-99157200D01*
X109011904Y-99157200D02*
X109059523Y-99061961D01*
X109059523Y-99061961D02*
X109059523Y-99014342D01*
X109059523Y-99014342D02*
X109011904Y-98919104D01*
X109011904Y-98919104D02*
X108916666Y-98871485D01*
X108916666Y-98871485D02*
X108773809Y-98871485D01*
X108773809Y-98871485D02*
X108678571Y-98823866D01*
X108678571Y-98823866D02*
X108630952Y-98728628D01*
X108630952Y-98728628D02*
X108630952Y-98681009D01*
X108630952Y-98681009D02*
X108678571Y-98585771D01*
X108678571Y-98585771D02*
X108773809Y-98538152D01*
X108773809Y-98538152D02*
X108916666Y-98538152D01*
X108916666Y-98538152D02*
X109011904Y-98585771D01*
X109630952Y-99204819D02*
X109535714Y-99157200D01*
X109535714Y-99157200D02*
X109488095Y-99109580D01*
X109488095Y-99109580D02*
X109440476Y-99014342D01*
X109440476Y-99014342D02*
X109440476Y-98728628D01*
X109440476Y-98728628D02*
X109488095Y-98633390D01*
X109488095Y-98633390D02*
X109535714Y-98585771D01*
X109535714Y-98585771D02*
X109630952Y-98538152D01*
X109630952Y-98538152D02*
X109773809Y-98538152D01*
X109773809Y-98538152D02*
X109869047Y-98585771D01*
X109869047Y-98585771D02*
X109916666Y-98633390D01*
X109916666Y-98633390D02*
X109964285Y-98728628D01*
X109964285Y-98728628D02*
X109964285Y-99014342D01*
X109964285Y-99014342D02*
X109916666Y-99109580D01*
X109916666Y-99109580D02*
X109869047Y-99157200D01*
X109869047Y-99157200D02*
X109773809Y-99204819D01*
X109773809Y-99204819D02*
X109630952Y-99204819D01*
X110535714Y-99204819D02*
X110440476Y-99157200D01*
X110440476Y-99157200D02*
X110392857Y-99061961D01*
X110392857Y-99061961D02*
X110392857Y-98204819D01*
X112107143Y-99204819D02*
X112107143Y-98681009D01*
X112107143Y-98681009D02*
X112059524Y-98585771D01*
X112059524Y-98585771D02*
X111964286Y-98538152D01*
X111964286Y-98538152D02*
X111773810Y-98538152D01*
X111773810Y-98538152D02*
X111678572Y-98585771D01*
X112107143Y-99157200D02*
X112011905Y-99204819D01*
X112011905Y-99204819D02*
X111773810Y-99204819D01*
X111773810Y-99204819D02*
X111678572Y-99157200D01*
X111678572Y-99157200D02*
X111630953Y-99061961D01*
X111630953Y-99061961D02*
X111630953Y-98966723D01*
X111630953Y-98966723D02*
X111678572Y-98871485D01*
X111678572Y-98871485D02*
X111773810Y-98823866D01*
X111773810Y-98823866D02*
X112011905Y-98823866D01*
X112011905Y-98823866D02*
X112107143Y-98776247D01*
X113011905Y-99204819D02*
X113011905Y-98204819D01*
X113011905Y-99157200D02*
X112916667Y-99204819D01*
X112916667Y-99204819D02*
X112726191Y-99204819D01*
X112726191Y-99204819D02*
X112630953Y-99157200D01*
X112630953Y-99157200D02*
X112583334Y-99109580D01*
X112583334Y-99109580D02*
X112535715Y-99014342D01*
X112535715Y-99014342D02*
X112535715Y-98728628D01*
X112535715Y-98728628D02*
X112583334Y-98633390D01*
X112583334Y-98633390D02*
X112630953Y-98585771D01*
X112630953Y-98585771D02*
X112726191Y-98538152D01*
X112726191Y-98538152D02*
X112916667Y-98538152D01*
X112916667Y-98538152D02*
X113011905Y-98585771D01*
X113916667Y-99157200D02*
X113821429Y-99204819D01*
X113821429Y-99204819D02*
X113630953Y-99204819D01*
X113630953Y-99204819D02*
X113535715Y-99157200D01*
X113535715Y-99157200D02*
X113488096Y-99109580D01*
X113488096Y-99109580D02*
X113440477Y-99014342D01*
X113440477Y-99014342D02*
X113440477Y-98728628D01*
X113440477Y-98728628D02*
X113488096Y-98633390D01*
X113488096Y-98633390D02*
X113535715Y-98585771D01*
X113535715Y-98585771D02*
X113630953Y-98538152D01*
X113630953Y-98538152D02*
X113821429Y-98538152D01*
X113821429Y-98538152D02*
X113916667Y-98585771D01*
X114297620Y-98300057D02*
X114345239Y-98252438D01*
X114345239Y-98252438D02*
X114440477Y-98204819D01*
X114440477Y-98204819D02*
X114678572Y-98204819D01*
X114678572Y-98204819D02*
X114773810Y-98252438D01*
X114773810Y-98252438D02*
X114821429Y-98300057D01*
X114821429Y-98300057D02*
X114869048Y-98395295D01*
X114869048Y-98395295D02*
X114869048Y-98490533D01*
X114869048Y-98490533D02*
X114821429Y-98633390D01*
X114821429Y-98633390D02*
X114250001Y-99204819D01*
X114250001Y-99204819D02*
X114869048Y-99204819D01*
X97083333Y-109859580D02*
X97035714Y-109907200D01*
X97035714Y-109907200D02*
X96892857Y-109954819D01*
X96892857Y-109954819D02*
X96797619Y-109954819D01*
X96797619Y-109954819D02*
X96654762Y-109907200D01*
X96654762Y-109907200D02*
X96559524Y-109811961D01*
X96559524Y-109811961D02*
X96511905Y-109716723D01*
X96511905Y-109716723D02*
X96464286Y-109526247D01*
X96464286Y-109526247D02*
X96464286Y-109383390D01*
X96464286Y-109383390D02*
X96511905Y-109192914D01*
X96511905Y-109192914D02*
X96559524Y-109097676D01*
X96559524Y-109097676D02*
X96654762Y-109002438D01*
X96654762Y-109002438D02*
X96797619Y-108954819D01*
X96797619Y-108954819D02*
X96892857Y-108954819D01*
X96892857Y-108954819D02*
X97035714Y-109002438D01*
X97035714Y-109002438D02*
X97083333Y-109050057D01*
X97464286Y-109050057D02*
X97511905Y-109002438D01*
X97511905Y-109002438D02*
X97607143Y-108954819D01*
X97607143Y-108954819D02*
X97845238Y-108954819D01*
X97845238Y-108954819D02*
X97940476Y-109002438D01*
X97940476Y-109002438D02*
X97988095Y-109050057D01*
X97988095Y-109050057D02*
X98035714Y-109145295D01*
X98035714Y-109145295D02*
X98035714Y-109240533D01*
X98035714Y-109240533D02*
X97988095Y-109383390D01*
X97988095Y-109383390D02*
X97416667Y-109954819D01*
X97416667Y-109954819D02*
X98035714Y-109954819D01*
X104607142Y-112609580D02*
X104559523Y-112657200D01*
X104559523Y-112657200D02*
X104416666Y-112704819D01*
X104416666Y-112704819D02*
X104321428Y-112704819D01*
X104321428Y-112704819D02*
X104178571Y-112657200D01*
X104178571Y-112657200D02*
X104083333Y-112561961D01*
X104083333Y-112561961D02*
X104035714Y-112466723D01*
X104035714Y-112466723D02*
X103988095Y-112276247D01*
X103988095Y-112276247D02*
X103988095Y-112133390D01*
X103988095Y-112133390D02*
X104035714Y-111942914D01*
X104035714Y-111942914D02*
X104083333Y-111847676D01*
X104083333Y-111847676D02*
X104178571Y-111752438D01*
X104178571Y-111752438D02*
X104321428Y-111704819D01*
X104321428Y-111704819D02*
X104416666Y-111704819D01*
X104416666Y-111704819D02*
X104559523Y-111752438D01*
X104559523Y-111752438D02*
X104607142Y-111800057D01*
X105559523Y-112704819D02*
X104988095Y-112704819D01*
X105273809Y-112704819D02*
X105273809Y-111704819D01*
X105273809Y-111704819D02*
X105178571Y-111847676D01*
X105178571Y-111847676D02*
X105083333Y-111942914D01*
X105083333Y-111942914D02*
X104988095Y-111990533D01*
X106130952Y-112133390D02*
X106035714Y-112085771D01*
X106035714Y-112085771D02*
X105988095Y-112038152D01*
X105988095Y-112038152D02*
X105940476Y-111942914D01*
X105940476Y-111942914D02*
X105940476Y-111895295D01*
X105940476Y-111895295D02*
X105988095Y-111800057D01*
X105988095Y-111800057D02*
X106035714Y-111752438D01*
X106035714Y-111752438D02*
X106130952Y-111704819D01*
X106130952Y-111704819D02*
X106321428Y-111704819D01*
X106321428Y-111704819D02*
X106416666Y-111752438D01*
X106416666Y-111752438D02*
X106464285Y-111800057D01*
X106464285Y-111800057D02*
X106511904Y-111895295D01*
X106511904Y-111895295D02*
X106511904Y-111942914D01*
X106511904Y-111942914D02*
X106464285Y-112038152D01*
X106464285Y-112038152D02*
X106416666Y-112085771D01*
X106416666Y-112085771D02*
X106321428Y-112133390D01*
X106321428Y-112133390D02*
X106130952Y-112133390D01*
X106130952Y-112133390D02*
X106035714Y-112181009D01*
X106035714Y-112181009D02*
X105988095Y-112228628D01*
X105988095Y-112228628D02*
X105940476Y-112323866D01*
X105940476Y-112323866D02*
X105940476Y-112514342D01*
X105940476Y-112514342D02*
X105988095Y-112609580D01*
X105988095Y-112609580D02*
X106035714Y-112657200D01*
X106035714Y-112657200D02*
X106130952Y-112704819D01*
X106130952Y-112704819D02*
X106321428Y-112704819D01*
X106321428Y-112704819D02*
X106416666Y-112657200D01*
X106416666Y-112657200D02*
X106464285Y-112609580D01*
X106464285Y-112609580D02*
X106511904Y-112514342D01*
X106511904Y-112514342D02*
X106511904Y-112323866D01*
X106511904Y-112323866D02*
X106464285Y-112228628D01*
X106464285Y-112228628D02*
X106416666Y-112181009D01*
X106416666Y-112181009D02*
X106321428Y-112133390D01*
X94204819Y-105190476D02*
X94204819Y-105761904D01*
X94204819Y-105476190D02*
X93204819Y-105476190D01*
X93204819Y-105476190D02*
X93347676Y-105571428D01*
X93347676Y-105571428D02*
X93442914Y-105666666D01*
X93442914Y-105666666D02*
X93490533Y-105761904D01*
X93204819Y-104571428D02*
X93204819Y-104476190D01*
X93204819Y-104476190D02*
X93252438Y-104380952D01*
X93252438Y-104380952D02*
X93300057Y-104333333D01*
X93300057Y-104333333D02*
X93395295Y-104285714D01*
X93395295Y-104285714D02*
X93585771Y-104238095D01*
X93585771Y-104238095D02*
X93823866Y-104238095D01*
X93823866Y-104238095D02*
X94014342Y-104285714D01*
X94014342Y-104285714D02*
X94109580Y-104333333D01*
X94109580Y-104333333D02*
X94157200Y-104380952D01*
X94157200Y-104380952D02*
X94204819Y-104476190D01*
X94204819Y-104476190D02*
X94204819Y-104571428D01*
X94204819Y-104571428D02*
X94157200Y-104666666D01*
X94157200Y-104666666D02*
X94109580Y-104714285D01*
X94109580Y-104714285D02*
X94014342Y-104761904D01*
X94014342Y-104761904D02*
X93823866Y-104809523D01*
X93823866Y-104809523D02*
X93585771Y-104809523D01*
X93585771Y-104809523D02*
X93395295Y-104761904D01*
X93395295Y-104761904D02*
X93300057Y-104714285D01*
X93300057Y-104714285D02*
X93252438Y-104666666D01*
X93252438Y-104666666D02*
X93204819Y-104571428D01*
X90333333Y-103454819D02*
X90000000Y-102978628D01*
X89761905Y-103454819D02*
X89761905Y-102454819D01*
X89761905Y-102454819D02*
X90142857Y-102454819D01*
X90142857Y-102454819D02*
X90238095Y-102502438D01*
X90238095Y-102502438D02*
X90285714Y-102550057D01*
X90285714Y-102550057D02*
X90333333Y-102645295D01*
X90333333Y-102645295D02*
X90333333Y-102788152D01*
X90333333Y-102788152D02*
X90285714Y-102883390D01*
X90285714Y-102883390D02*
X90238095Y-102931009D01*
X90238095Y-102931009D02*
X90142857Y-102978628D01*
X90142857Y-102978628D02*
X89761905Y-102978628D01*
X90714286Y-102550057D02*
X90761905Y-102502438D01*
X90761905Y-102502438D02*
X90857143Y-102454819D01*
X90857143Y-102454819D02*
X91095238Y-102454819D01*
X91095238Y-102454819D02*
X91190476Y-102502438D01*
X91190476Y-102502438D02*
X91238095Y-102550057D01*
X91238095Y-102550057D02*
X91285714Y-102645295D01*
X91285714Y-102645295D02*
X91285714Y-102740533D01*
X91285714Y-102740533D02*
X91238095Y-102883390D01*
X91238095Y-102883390D02*
X90666667Y-103454819D01*
X90666667Y-103454819D02*
X91285714Y-103454819D01*
X94204819Y-109690476D02*
X94204819Y-110261904D01*
X94204819Y-109976190D02*
X93204819Y-109976190D01*
X93204819Y-109976190D02*
X93347676Y-110071428D01*
X93347676Y-110071428D02*
X93442914Y-110166666D01*
X93442914Y-110166666D02*
X93490533Y-110261904D01*
X93300057Y-109309523D02*
X93252438Y-109261904D01*
X93252438Y-109261904D02*
X93204819Y-109166666D01*
X93204819Y-109166666D02*
X93204819Y-108928571D01*
X93204819Y-108928571D02*
X93252438Y-108833333D01*
X93252438Y-108833333D02*
X93300057Y-108785714D01*
X93300057Y-108785714D02*
X93395295Y-108738095D01*
X93395295Y-108738095D02*
X93490533Y-108738095D01*
X93490533Y-108738095D02*
X93633390Y-108785714D01*
X93633390Y-108785714D02*
X94204819Y-109357142D01*
X94204819Y-109357142D02*
X94204819Y-108738095D01*
X84154761Y-107050057D02*
X84059523Y-107002438D01*
X84059523Y-107002438D02*
X83964285Y-106907200D01*
X83964285Y-106907200D02*
X83821428Y-106764342D01*
X83821428Y-106764342D02*
X83726190Y-106716723D01*
X83726190Y-106716723D02*
X83630952Y-106716723D01*
X83678571Y-106954819D02*
X83583333Y-106907200D01*
X83583333Y-106907200D02*
X83488095Y-106811961D01*
X83488095Y-106811961D02*
X83440476Y-106621485D01*
X83440476Y-106621485D02*
X83440476Y-106288152D01*
X83440476Y-106288152D02*
X83488095Y-106097676D01*
X83488095Y-106097676D02*
X83583333Y-106002438D01*
X83583333Y-106002438D02*
X83678571Y-105954819D01*
X83678571Y-105954819D02*
X83869047Y-105954819D01*
X83869047Y-105954819D02*
X83964285Y-106002438D01*
X83964285Y-106002438D02*
X84059523Y-106097676D01*
X84059523Y-106097676D02*
X84107142Y-106288152D01*
X84107142Y-106288152D02*
X84107142Y-106621485D01*
X84107142Y-106621485D02*
X84059523Y-106811961D01*
X84059523Y-106811961D02*
X83964285Y-106907200D01*
X83964285Y-106907200D02*
X83869047Y-106954819D01*
X83869047Y-106954819D02*
X83678571Y-106954819D01*
X85059523Y-106954819D02*
X84488095Y-106954819D01*
X84773809Y-106954819D02*
X84773809Y-105954819D01*
X84773809Y-105954819D02*
X84678571Y-106097676D01*
X84678571Y-106097676D02*
X84583333Y-106192914D01*
X84583333Y-106192914D02*
X84488095Y-106240533D01*
X79607142Y-99359580D02*
X79559523Y-99407200D01*
X79559523Y-99407200D02*
X79416666Y-99454819D01*
X79416666Y-99454819D02*
X79321428Y-99454819D01*
X79321428Y-99454819D02*
X79178571Y-99407200D01*
X79178571Y-99407200D02*
X79083333Y-99311961D01*
X79083333Y-99311961D02*
X79035714Y-99216723D01*
X79035714Y-99216723D02*
X78988095Y-99026247D01*
X78988095Y-99026247D02*
X78988095Y-98883390D01*
X78988095Y-98883390D02*
X79035714Y-98692914D01*
X79035714Y-98692914D02*
X79083333Y-98597676D01*
X79083333Y-98597676D02*
X79178571Y-98502438D01*
X79178571Y-98502438D02*
X79321428Y-98454819D01*
X79321428Y-98454819D02*
X79416666Y-98454819D01*
X79416666Y-98454819D02*
X79559523Y-98502438D01*
X79559523Y-98502438D02*
X79607142Y-98550057D01*
X79988095Y-98550057D02*
X80035714Y-98502438D01*
X80035714Y-98502438D02*
X80130952Y-98454819D01*
X80130952Y-98454819D02*
X80369047Y-98454819D01*
X80369047Y-98454819D02*
X80464285Y-98502438D01*
X80464285Y-98502438D02*
X80511904Y-98550057D01*
X80511904Y-98550057D02*
X80559523Y-98645295D01*
X80559523Y-98645295D02*
X80559523Y-98740533D01*
X80559523Y-98740533D02*
X80511904Y-98883390D01*
X80511904Y-98883390D02*
X79940476Y-99454819D01*
X79940476Y-99454819D02*
X80559523Y-99454819D01*
X81464285Y-98454819D02*
X80988095Y-98454819D01*
X80988095Y-98454819D02*
X80940476Y-98931009D01*
X80940476Y-98931009D02*
X80988095Y-98883390D01*
X80988095Y-98883390D02*
X81083333Y-98835771D01*
X81083333Y-98835771D02*
X81321428Y-98835771D01*
X81321428Y-98835771D02*
X81416666Y-98883390D01*
X81416666Y-98883390D02*
X81464285Y-98931009D01*
X81464285Y-98931009D02*
X81511904Y-99026247D01*
X81511904Y-99026247D02*
X81511904Y-99264342D01*
X81511904Y-99264342D02*
X81464285Y-99359580D01*
X81464285Y-99359580D02*
X81416666Y-99407200D01*
X81416666Y-99407200D02*
X81321428Y-99454819D01*
X81321428Y-99454819D02*
X81083333Y-99454819D01*
X81083333Y-99454819D02*
X80988095Y-99407200D01*
X80988095Y-99407200D02*
X80940476Y-99359580D01*
X89857142Y-99454819D02*
X89523809Y-98978628D01*
X89285714Y-99454819D02*
X89285714Y-98454819D01*
X89285714Y-98454819D02*
X89666666Y-98454819D01*
X89666666Y-98454819D02*
X89761904Y-98502438D01*
X89761904Y-98502438D02*
X89809523Y-98550057D01*
X89809523Y-98550057D02*
X89857142Y-98645295D01*
X89857142Y-98645295D02*
X89857142Y-98788152D01*
X89857142Y-98788152D02*
X89809523Y-98883390D01*
X89809523Y-98883390D02*
X89761904Y-98931009D01*
X89761904Y-98931009D02*
X89666666Y-98978628D01*
X89666666Y-98978628D02*
X89285714Y-98978628D01*
X90809523Y-99454819D02*
X90238095Y-99454819D01*
X90523809Y-99454819D02*
X90523809Y-98454819D01*
X90523809Y-98454819D02*
X90428571Y-98597676D01*
X90428571Y-98597676D02*
X90333333Y-98692914D01*
X90333333Y-98692914D02*
X90238095Y-98740533D01*
X91142857Y-98454819D02*
X91761904Y-98454819D01*
X91761904Y-98454819D02*
X91428571Y-98835771D01*
X91428571Y-98835771D02*
X91571428Y-98835771D01*
X91571428Y-98835771D02*
X91666666Y-98883390D01*
X91666666Y-98883390D02*
X91714285Y-98931009D01*
X91714285Y-98931009D02*
X91761904Y-99026247D01*
X91761904Y-99026247D02*
X91761904Y-99264342D01*
X91761904Y-99264342D02*
X91714285Y-99359580D01*
X91714285Y-99359580D02*
X91666666Y-99407200D01*
X91666666Y-99407200D02*
X91571428Y-99454819D01*
X91571428Y-99454819D02*
X91285714Y-99454819D01*
X91285714Y-99454819D02*
X91190476Y-99407200D01*
X91190476Y-99407200D02*
X91142857Y-99359580D01*
X117357142Y-101359580D02*
X117309523Y-101407200D01*
X117309523Y-101407200D02*
X117166666Y-101454819D01*
X117166666Y-101454819D02*
X117071428Y-101454819D01*
X117071428Y-101454819D02*
X116928571Y-101407200D01*
X116928571Y-101407200D02*
X116833333Y-101311961D01*
X116833333Y-101311961D02*
X116785714Y-101216723D01*
X116785714Y-101216723D02*
X116738095Y-101026247D01*
X116738095Y-101026247D02*
X116738095Y-100883390D01*
X116738095Y-100883390D02*
X116785714Y-100692914D01*
X116785714Y-100692914D02*
X116833333Y-100597676D01*
X116833333Y-100597676D02*
X116928571Y-100502438D01*
X116928571Y-100502438D02*
X117071428Y-100454819D01*
X117071428Y-100454819D02*
X117166666Y-100454819D01*
X117166666Y-100454819D02*
X117309523Y-100502438D01*
X117309523Y-100502438D02*
X117357142Y-100550057D01*
X117738095Y-100550057D02*
X117785714Y-100502438D01*
X117785714Y-100502438D02*
X117880952Y-100454819D01*
X117880952Y-100454819D02*
X118119047Y-100454819D01*
X118119047Y-100454819D02*
X118214285Y-100502438D01*
X118214285Y-100502438D02*
X118261904Y-100550057D01*
X118261904Y-100550057D02*
X118309523Y-100645295D01*
X118309523Y-100645295D02*
X118309523Y-100740533D01*
X118309523Y-100740533D02*
X118261904Y-100883390D01*
X118261904Y-100883390D02*
X117690476Y-101454819D01*
X117690476Y-101454819D02*
X118309523Y-101454819D01*
X119166666Y-100454819D02*
X118976190Y-100454819D01*
X118976190Y-100454819D02*
X118880952Y-100502438D01*
X118880952Y-100502438D02*
X118833333Y-100550057D01*
X118833333Y-100550057D02*
X118738095Y-100692914D01*
X118738095Y-100692914D02*
X118690476Y-100883390D01*
X118690476Y-100883390D02*
X118690476Y-101264342D01*
X118690476Y-101264342D02*
X118738095Y-101359580D01*
X118738095Y-101359580D02*
X118785714Y-101407200D01*
X118785714Y-101407200D02*
X118880952Y-101454819D01*
X118880952Y-101454819D02*
X119071428Y-101454819D01*
X119071428Y-101454819D02*
X119166666Y-101407200D01*
X119166666Y-101407200D02*
X119214285Y-101359580D01*
X119214285Y-101359580D02*
X119261904Y-101264342D01*
X119261904Y-101264342D02*
X119261904Y-101026247D01*
X119261904Y-101026247D02*
X119214285Y-100931009D01*
X119214285Y-100931009D02*
X119166666Y-100883390D01*
X119166666Y-100883390D02*
X119071428Y-100835771D01*
X119071428Y-100835771D02*
X118880952Y-100835771D01*
X118880952Y-100835771D02*
X118785714Y-100883390D01*
X118785714Y-100883390D02*
X118738095Y-100931009D01*
X118738095Y-100931009D02*
X118690476Y-101026247D01*
X105988095Y-104954819D02*
X105988095Y-105764342D01*
X105988095Y-105764342D02*
X106035714Y-105859580D01*
X106035714Y-105859580D02*
X106083333Y-105907200D01*
X106083333Y-105907200D02*
X106178571Y-105954819D01*
X106178571Y-105954819D02*
X106369047Y-105954819D01*
X106369047Y-105954819D02*
X106464285Y-105907200D01*
X106464285Y-105907200D02*
X106511904Y-105859580D01*
X106511904Y-105859580D02*
X106559523Y-105764342D01*
X106559523Y-105764342D02*
X106559523Y-104954819D01*
X106940476Y-104954819D02*
X107607142Y-104954819D01*
X107607142Y-104954819D02*
X107178571Y-105954819D01*
X104333333Y-111109580D02*
X104285714Y-111157200D01*
X104285714Y-111157200D02*
X104142857Y-111204819D01*
X104142857Y-111204819D02*
X104047619Y-111204819D01*
X104047619Y-111204819D02*
X103904762Y-111157200D01*
X103904762Y-111157200D02*
X103809524Y-111061961D01*
X103809524Y-111061961D02*
X103761905Y-110966723D01*
X103761905Y-110966723D02*
X103714286Y-110776247D01*
X103714286Y-110776247D02*
X103714286Y-110633390D01*
X103714286Y-110633390D02*
X103761905Y-110442914D01*
X103761905Y-110442914D02*
X103809524Y-110347676D01*
X103809524Y-110347676D02*
X103904762Y-110252438D01*
X103904762Y-110252438D02*
X104047619Y-110204819D01*
X104047619Y-110204819D02*
X104142857Y-110204819D01*
X104142857Y-110204819D02*
X104285714Y-110252438D01*
X104285714Y-110252438D02*
X104333333Y-110300057D01*
X104666667Y-110204819D02*
X105285714Y-110204819D01*
X105285714Y-110204819D02*
X104952381Y-110585771D01*
X104952381Y-110585771D02*
X105095238Y-110585771D01*
X105095238Y-110585771D02*
X105190476Y-110633390D01*
X105190476Y-110633390D02*
X105238095Y-110681009D01*
X105238095Y-110681009D02*
X105285714Y-110776247D01*
X105285714Y-110776247D02*
X105285714Y-111014342D01*
X105285714Y-111014342D02*
X105238095Y-111109580D01*
X105238095Y-111109580D02*
X105190476Y-111157200D01*
X105190476Y-111157200D02*
X105095238Y-111204819D01*
X105095238Y-111204819D02*
X104809524Y-111204819D01*
X104809524Y-111204819D02*
X104714286Y-111157200D01*
X104714286Y-111157200D02*
X104666667Y-111109580D01*
X99773809Y-116728628D02*
X99773809Y-117204819D01*
X99440476Y-116204819D02*
X99773809Y-116728628D01*
X99773809Y-116728628D02*
X100107142Y-116204819D01*
X100964285Y-117204819D02*
X100392857Y-117204819D01*
X100678571Y-117204819D02*
X100678571Y-116204819D01*
X100678571Y-116204819D02*
X100583333Y-116347676D01*
X100583333Y-116347676D02*
X100488095Y-116442914D01*
X100488095Y-116442914D02*
X100392857Y-116490533D01*
X117607142Y-110359580D02*
X117559523Y-110407200D01*
X117559523Y-110407200D02*
X117416666Y-110454819D01*
X117416666Y-110454819D02*
X117321428Y-110454819D01*
X117321428Y-110454819D02*
X117178571Y-110407200D01*
X117178571Y-110407200D02*
X117083333Y-110311961D01*
X117083333Y-110311961D02*
X117035714Y-110216723D01*
X117035714Y-110216723D02*
X116988095Y-110026247D01*
X116988095Y-110026247D02*
X116988095Y-109883390D01*
X116988095Y-109883390D02*
X117035714Y-109692914D01*
X117035714Y-109692914D02*
X117083333Y-109597676D01*
X117083333Y-109597676D02*
X117178571Y-109502438D01*
X117178571Y-109502438D02*
X117321428Y-109454819D01*
X117321428Y-109454819D02*
X117416666Y-109454819D01*
X117416666Y-109454819D02*
X117559523Y-109502438D01*
X117559523Y-109502438D02*
X117607142Y-109550057D01*
X117988095Y-109550057D02*
X118035714Y-109502438D01*
X118035714Y-109502438D02*
X118130952Y-109454819D01*
X118130952Y-109454819D02*
X118369047Y-109454819D01*
X118369047Y-109454819D02*
X118464285Y-109502438D01*
X118464285Y-109502438D02*
X118511904Y-109550057D01*
X118511904Y-109550057D02*
X118559523Y-109645295D01*
X118559523Y-109645295D02*
X118559523Y-109740533D01*
X118559523Y-109740533D02*
X118511904Y-109883390D01*
X118511904Y-109883390D02*
X117940476Y-110454819D01*
X117940476Y-110454819D02*
X118559523Y-110454819D01*
X118892857Y-109454819D02*
X119511904Y-109454819D01*
X119511904Y-109454819D02*
X119178571Y-109835771D01*
X119178571Y-109835771D02*
X119321428Y-109835771D01*
X119321428Y-109835771D02*
X119416666Y-109883390D01*
X119416666Y-109883390D02*
X119464285Y-109931009D01*
X119464285Y-109931009D02*
X119511904Y-110026247D01*
X119511904Y-110026247D02*
X119511904Y-110264342D01*
X119511904Y-110264342D02*
X119464285Y-110359580D01*
X119464285Y-110359580D02*
X119416666Y-110407200D01*
X119416666Y-110407200D02*
X119321428Y-110454819D01*
X119321428Y-110454819D02*
X119035714Y-110454819D01*
X119035714Y-110454819D02*
X118940476Y-110407200D01*
X118940476Y-110407200D02*
X118892857Y-110359580D01*
X119511905Y-99454819D02*
X119511905Y-98454819D01*
X119511905Y-98454819D02*
X119750000Y-98454819D01*
X119750000Y-98454819D02*
X119892857Y-98502438D01*
X119892857Y-98502438D02*
X119988095Y-98597676D01*
X119988095Y-98597676D02*
X120035714Y-98692914D01*
X120035714Y-98692914D02*
X120083333Y-98883390D01*
X120083333Y-98883390D02*
X120083333Y-99026247D01*
X120083333Y-99026247D02*
X120035714Y-99216723D01*
X120035714Y-99216723D02*
X119988095Y-99311961D01*
X119988095Y-99311961D02*
X119892857Y-99407200D01*
X119892857Y-99407200D02*
X119750000Y-99454819D01*
X119750000Y-99454819D02*
X119511905Y-99454819D01*
X120464286Y-98550057D02*
X120511905Y-98502438D01*
X120511905Y-98502438D02*
X120607143Y-98454819D01*
X120607143Y-98454819D02*
X120845238Y-98454819D01*
X120845238Y-98454819D02*
X120940476Y-98502438D01*
X120940476Y-98502438D02*
X120988095Y-98550057D01*
X120988095Y-98550057D02*
X121035714Y-98645295D01*
X121035714Y-98645295D02*
X121035714Y-98740533D01*
X121035714Y-98740533D02*
X120988095Y-98883390D01*
X120988095Y-98883390D02*
X120416667Y-99454819D01*
X120416667Y-99454819D02*
X121035714Y-99454819D01*
X77752438Y-117535714D02*
X77704819Y-117630952D01*
X77704819Y-117630952D02*
X77704819Y-117773809D01*
X77704819Y-117773809D02*
X77752438Y-117916666D01*
X77752438Y-117916666D02*
X77847676Y-118011904D01*
X77847676Y-118011904D02*
X77942914Y-118059523D01*
X77942914Y-118059523D02*
X78133390Y-118107142D01*
X78133390Y-118107142D02*
X78276247Y-118107142D01*
X78276247Y-118107142D02*
X78466723Y-118059523D01*
X78466723Y-118059523D02*
X78561961Y-118011904D01*
X78561961Y-118011904D02*
X78657200Y-117916666D01*
X78657200Y-117916666D02*
X78704819Y-117773809D01*
X78704819Y-117773809D02*
X78704819Y-117678571D01*
X78704819Y-117678571D02*
X78657200Y-117535714D01*
X78657200Y-117535714D02*
X78609580Y-117488095D01*
X78609580Y-117488095D02*
X78276247Y-117488095D01*
X78276247Y-117488095D02*
X78276247Y-117678571D01*
X78704819Y-117059523D02*
X77704819Y-117059523D01*
X77704819Y-117059523D02*
X77704819Y-116678571D01*
X77704819Y-116678571D02*
X77752438Y-116583333D01*
X77752438Y-116583333D02*
X77800057Y-116535714D01*
X77800057Y-116535714D02*
X77895295Y-116488095D01*
X77895295Y-116488095D02*
X78038152Y-116488095D01*
X78038152Y-116488095D02*
X78133390Y-116535714D01*
X78133390Y-116535714D02*
X78181009Y-116583333D01*
X78181009Y-116583333D02*
X78228628Y-116678571D01*
X78228628Y-116678571D02*
X78228628Y-117059523D01*
X78657200Y-116107142D02*
X78704819Y-115964285D01*
X78704819Y-115964285D02*
X78704819Y-115726190D01*
X78704819Y-115726190D02*
X78657200Y-115630952D01*
X78657200Y-115630952D02*
X78609580Y-115583333D01*
X78609580Y-115583333D02*
X78514342Y-115535714D01*
X78514342Y-115535714D02*
X78419104Y-115535714D01*
X78419104Y-115535714D02*
X78323866Y-115583333D01*
X78323866Y-115583333D02*
X78276247Y-115630952D01*
X78276247Y-115630952D02*
X78228628Y-115726190D01*
X78228628Y-115726190D02*
X78181009Y-115916666D01*
X78181009Y-115916666D02*
X78133390Y-116011904D01*
X78133390Y-116011904D02*
X78085771Y-116059523D01*
X78085771Y-116059523D02*
X77990533Y-116107142D01*
X77990533Y-116107142D02*
X77895295Y-116107142D01*
X77895295Y-116107142D02*
X77800057Y-116059523D01*
X77800057Y-116059523D02*
X77752438Y-116011904D01*
X77752438Y-116011904D02*
X77704819Y-115916666D01*
X77704819Y-115916666D02*
X77704819Y-115678571D01*
X77704819Y-115678571D02*
X77752438Y-115535714D01*
X78704819Y-114202380D02*
X78657200Y-114297618D01*
X78657200Y-114297618D02*
X78609580Y-114345237D01*
X78609580Y-114345237D02*
X78514342Y-114392856D01*
X78514342Y-114392856D02*
X78228628Y-114392856D01*
X78228628Y-114392856D02*
X78133390Y-114345237D01*
X78133390Y-114345237D02*
X78085771Y-114297618D01*
X78085771Y-114297618D02*
X78038152Y-114202380D01*
X78038152Y-114202380D02*
X78038152Y-114059523D01*
X78038152Y-114059523D02*
X78085771Y-113964285D01*
X78085771Y-113964285D02*
X78133390Y-113916666D01*
X78133390Y-113916666D02*
X78228628Y-113869047D01*
X78228628Y-113869047D02*
X78514342Y-113869047D01*
X78514342Y-113869047D02*
X78609580Y-113916666D01*
X78609580Y-113916666D02*
X78657200Y-113964285D01*
X78657200Y-113964285D02*
X78704819Y-114059523D01*
X78704819Y-114059523D02*
X78704819Y-114202380D01*
X78038152Y-113440475D02*
X79038152Y-113440475D01*
X78085771Y-113440475D02*
X78038152Y-113345237D01*
X78038152Y-113345237D02*
X78038152Y-113154761D01*
X78038152Y-113154761D02*
X78085771Y-113059523D01*
X78085771Y-113059523D02*
X78133390Y-113011904D01*
X78133390Y-113011904D02*
X78228628Y-112964285D01*
X78228628Y-112964285D02*
X78514342Y-112964285D01*
X78514342Y-112964285D02*
X78609580Y-113011904D01*
X78609580Y-113011904D02*
X78657200Y-113059523D01*
X78657200Y-113059523D02*
X78704819Y-113154761D01*
X78704819Y-113154761D02*
X78704819Y-113345237D01*
X78704819Y-113345237D02*
X78657200Y-113440475D01*
X78038152Y-112678570D02*
X78038152Y-112297618D01*
X77704819Y-112535713D02*
X78561961Y-112535713D01*
X78561961Y-112535713D02*
X78657200Y-112488094D01*
X78657200Y-112488094D02*
X78704819Y-112392856D01*
X78704819Y-112392856D02*
X78704819Y-112297618D01*
X113488095Y-105204819D02*
X113488095Y-106014342D01*
X113488095Y-106014342D02*
X113535714Y-106109580D01*
X113535714Y-106109580D02*
X113583333Y-106157200D01*
X113583333Y-106157200D02*
X113678571Y-106204819D01*
X113678571Y-106204819D02*
X113869047Y-106204819D01*
X113869047Y-106204819D02*
X113964285Y-106157200D01*
X113964285Y-106157200D02*
X114011904Y-106109580D01*
X114011904Y-106109580D02*
X114059523Y-106014342D01*
X114059523Y-106014342D02*
X114059523Y-105204819D01*
X114964285Y-105538152D02*
X114964285Y-106204819D01*
X114726190Y-105157200D02*
X114488095Y-105871485D01*
X114488095Y-105871485D02*
X115107142Y-105871485D01*
X123357142Y-106609580D02*
X123309523Y-106657200D01*
X123309523Y-106657200D02*
X123166666Y-106704819D01*
X123166666Y-106704819D02*
X123071428Y-106704819D01*
X123071428Y-106704819D02*
X122928571Y-106657200D01*
X122928571Y-106657200D02*
X122833333Y-106561961D01*
X122833333Y-106561961D02*
X122785714Y-106466723D01*
X122785714Y-106466723D02*
X122738095Y-106276247D01*
X122738095Y-106276247D02*
X122738095Y-106133390D01*
X122738095Y-106133390D02*
X122785714Y-105942914D01*
X122785714Y-105942914D02*
X122833333Y-105847676D01*
X122833333Y-105847676D02*
X122928571Y-105752438D01*
X122928571Y-105752438D02*
X123071428Y-105704819D01*
X123071428Y-105704819D02*
X123166666Y-105704819D01*
X123166666Y-105704819D02*
X123309523Y-105752438D01*
X123309523Y-105752438D02*
X123357142Y-105800057D01*
X123738095Y-105800057D02*
X123785714Y-105752438D01*
X123785714Y-105752438D02*
X123880952Y-105704819D01*
X123880952Y-105704819D02*
X124119047Y-105704819D01*
X124119047Y-105704819D02*
X124214285Y-105752438D01*
X124214285Y-105752438D02*
X124261904Y-105800057D01*
X124261904Y-105800057D02*
X124309523Y-105895295D01*
X124309523Y-105895295D02*
X124309523Y-105990533D01*
X124309523Y-105990533D02*
X124261904Y-106133390D01*
X124261904Y-106133390D02*
X123690476Y-106704819D01*
X123690476Y-106704819D02*
X124309523Y-106704819D01*
X124690476Y-105800057D02*
X124738095Y-105752438D01*
X124738095Y-105752438D02*
X124833333Y-105704819D01*
X124833333Y-105704819D02*
X125071428Y-105704819D01*
X125071428Y-105704819D02*
X125166666Y-105752438D01*
X125166666Y-105752438D02*
X125214285Y-105800057D01*
X125214285Y-105800057D02*
X125261904Y-105895295D01*
X125261904Y-105895295D02*
X125261904Y-105990533D01*
X125261904Y-105990533D02*
X125214285Y-106133390D01*
X125214285Y-106133390D02*
X124642857Y-106704819D01*
X124642857Y-106704819D02*
X125261904Y-106704819D01*
X93823866Y-116630951D02*
X93823866Y-115869047D01*
X94204819Y-116249999D02*
X93442914Y-116249999D01*
X104107142Y-107704819D02*
X103773809Y-107228628D01*
X103535714Y-107704819D02*
X103535714Y-106704819D01*
X103535714Y-106704819D02*
X103916666Y-106704819D01*
X103916666Y-106704819D02*
X104011904Y-106752438D01*
X104011904Y-106752438D02*
X104059523Y-106800057D01*
X104059523Y-106800057D02*
X104107142Y-106895295D01*
X104107142Y-106895295D02*
X104107142Y-107038152D01*
X104107142Y-107038152D02*
X104059523Y-107133390D01*
X104059523Y-107133390D02*
X104011904Y-107181009D01*
X104011904Y-107181009D02*
X103916666Y-107228628D01*
X103916666Y-107228628D02*
X103535714Y-107228628D01*
X105059523Y-107704819D02*
X104488095Y-107704819D01*
X104773809Y-107704819D02*
X104773809Y-106704819D01*
X104773809Y-106704819D02*
X104678571Y-106847676D01*
X104678571Y-106847676D02*
X104583333Y-106942914D01*
X104583333Y-106942914D02*
X104488095Y-106990533D01*
X105916666Y-107038152D02*
X105916666Y-107704819D01*
X105678571Y-106657200D02*
X105440476Y-107371485D01*
X105440476Y-107371485D02*
X106059523Y-107371485D01*
X94204819Y-107440476D02*
X94204819Y-108011904D01*
X94204819Y-107726190D02*
X93204819Y-107726190D01*
X93204819Y-107726190D02*
X93347676Y-107821428D01*
X93347676Y-107821428D02*
X93442914Y-107916666D01*
X93442914Y-107916666D02*
X93490533Y-108011904D01*
X94204819Y-106488095D02*
X94204819Y-107059523D01*
X94204819Y-106773809D02*
X93204819Y-106773809D01*
X93204819Y-106773809D02*
X93347676Y-106869047D01*
X93347676Y-106869047D02*
X93442914Y-106964285D01*
X93442914Y-106964285D02*
X93490533Y-107059523D01*
X112107142Y-118109580D02*
X112059523Y-118157200D01*
X112059523Y-118157200D02*
X111916666Y-118204819D01*
X111916666Y-118204819D02*
X111821428Y-118204819D01*
X111821428Y-118204819D02*
X111678571Y-118157200D01*
X111678571Y-118157200D02*
X111583333Y-118061961D01*
X111583333Y-118061961D02*
X111535714Y-117966723D01*
X111535714Y-117966723D02*
X111488095Y-117776247D01*
X111488095Y-117776247D02*
X111488095Y-117633390D01*
X111488095Y-117633390D02*
X111535714Y-117442914D01*
X111535714Y-117442914D02*
X111583333Y-117347676D01*
X111583333Y-117347676D02*
X111678571Y-117252438D01*
X111678571Y-117252438D02*
X111821428Y-117204819D01*
X111821428Y-117204819D02*
X111916666Y-117204819D01*
X111916666Y-117204819D02*
X112059523Y-117252438D01*
X112059523Y-117252438D02*
X112107142Y-117300057D01*
X112488095Y-117300057D02*
X112535714Y-117252438D01*
X112535714Y-117252438D02*
X112630952Y-117204819D01*
X112630952Y-117204819D02*
X112869047Y-117204819D01*
X112869047Y-117204819D02*
X112964285Y-117252438D01*
X112964285Y-117252438D02*
X113011904Y-117300057D01*
X113011904Y-117300057D02*
X113059523Y-117395295D01*
X113059523Y-117395295D02*
X113059523Y-117490533D01*
X113059523Y-117490533D02*
X113011904Y-117633390D01*
X113011904Y-117633390D02*
X112440476Y-118204819D01*
X112440476Y-118204819D02*
X113059523Y-118204819D01*
X113916666Y-117538152D02*
X113916666Y-118204819D01*
X113678571Y-117157200D02*
X113440476Y-117871485D01*
X113440476Y-117871485D02*
X114059523Y-117871485D01*
X84074095Y-118570819D02*
X84074095Y-119380342D01*
X84074095Y-119380342D02*
X84121714Y-119475580D01*
X84121714Y-119475580D02*
X84169333Y-119523200D01*
X84169333Y-119523200D02*
X84264571Y-119570819D01*
X84264571Y-119570819D02*
X84455047Y-119570819D01*
X84455047Y-119570819D02*
X84550285Y-119523200D01*
X84550285Y-119523200D02*
X84597904Y-119475580D01*
X84597904Y-119475580D02*
X84645523Y-119380342D01*
X84645523Y-119380342D02*
X84645523Y-118570819D01*
X85550285Y-118570819D02*
X85359809Y-118570819D01*
X85359809Y-118570819D02*
X85264571Y-118618438D01*
X85264571Y-118618438D02*
X85216952Y-118666057D01*
X85216952Y-118666057D02*
X85121714Y-118808914D01*
X85121714Y-118808914D02*
X85074095Y-118999390D01*
X85074095Y-118999390D02*
X85074095Y-119380342D01*
X85074095Y-119380342D02*
X85121714Y-119475580D01*
X85121714Y-119475580D02*
X85169333Y-119523200D01*
X85169333Y-119523200D02*
X85264571Y-119570819D01*
X85264571Y-119570819D02*
X85455047Y-119570819D01*
X85455047Y-119570819D02*
X85550285Y-119523200D01*
X85550285Y-119523200D02*
X85597904Y-119475580D01*
X85597904Y-119475580D02*
X85645523Y-119380342D01*
X85645523Y-119380342D02*
X85645523Y-119142247D01*
X85645523Y-119142247D02*
X85597904Y-119047009D01*
X85597904Y-119047009D02*
X85550285Y-118999390D01*
X85550285Y-118999390D02*
X85455047Y-118951771D01*
X85455047Y-118951771D02*
X85264571Y-118951771D01*
X85264571Y-118951771D02*
X85169333Y-118999390D01*
X85169333Y-118999390D02*
X85121714Y-119047009D01*
X85121714Y-119047009D02*
X85074095Y-119142247D01*
X77752438Y-110761905D02*
X77704819Y-110857143D01*
X77704819Y-110857143D02*
X77704819Y-111000000D01*
X77704819Y-111000000D02*
X77752438Y-111142857D01*
X77752438Y-111142857D02*
X77847676Y-111238095D01*
X77847676Y-111238095D02*
X77942914Y-111285714D01*
X77942914Y-111285714D02*
X78133390Y-111333333D01*
X78133390Y-111333333D02*
X78276247Y-111333333D01*
X78276247Y-111333333D02*
X78466723Y-111285714D01*
X78466723Y-111285714D02*
X78561961Y-111238095D01*
X78561961Y-111238095D02*
X78657200Y-111142857D01*
X78657200Y-111142857D02*
X78704819Y-111000000D01*
X78704819Y-111000000D02*
X78704819Y-110904762D01*
X78704819Y-110904762D02*
X78657200Y-110761905D01*
X78657200Y-110761905D02*
X78609580Y-110714286D01*
X78609580Y-110714286D02*
X78276247Y-110714286D01*
X78276247Y-110714286D02*
X78276247Y-110904762D01*
X78704819Y-110285714D02*
X77704819Y-110285714D01*
X77704819Y-110285714D02*
X77704819Y-109904762D01*
X77704819Y-109904762D02*
X77752438Y-109809524D01*
X77752438Y-109809524D02*
X77800057Y-109761905D01*
X77800057Y-109761905D02*
X77895295Y-109714286D01*
X77895295Y-109714286D02*
X78038152Y-109714286D01*
X78038152Y-109714286D02*
X78133390Y-109761905D01*
X78133390Y-109761905D02*
X78181009Y-109809524D01*
X78181009Y-109809524D02*
X78228628Y-109904762D01*
X78228628Y-109904762D02*
X78228628Y-110285714D01*
X78657200Y-109333333D02*
X78704819Y-109190476D01*
X78704819Y-109190476D02*
X78704819Y-108952381D01*
X78704819Y-108952381D02*
X78657200Y-108857143D01*
X78657200Y-108857143D02*
X78609580Y-108809524D01*
X78609580Y-108809524D02*
X78514342Y-108761905D01*
X78514342Y-108761905D02*
X78419104Y-108761905D01*
X78419104Y-108761905D02*
X78323866Y-108809524D01*
X78323866Y-108809524D02*
X78276247Y-108857143D01*
X78276247Y-108857143D02*
X78228628Y-108952381D01*
X78228628Y-108952381D02*
X78181009Y-109142857D01*
X78181009Y-109142857D02*
X78133390Y-109238095D01*
X78133390Y-109238095D02*
X78085771Y-109285714D01*
X78085771Y-109285714D02*
X77990533Y-109333333D01*
X77990533Y-109333333D02*
X77895295Y-109333333D01*
X77895295Y-109333333D02*
X77800057Y-109285714D01*
X77800057Y-109285714D02*
X77752438Y-109238095D01*
X77752438Y-109238095D02*
X77704819Y-109142857D01*
X77704819Y-109142857D02*
X77704819Y-108904762D01*
X77704819Y-108904762D02*
X77752438Y-108761905D01*
X78419104Y-107619047D02*
X78419104Y-107142857D01*
X78704819Y-107714285D02*
X77704819Y-107380952D01*
X77704819Y-107380952D02*
X78704819Y-107047619D01*
X78038152Y-106714285D02*
X78704819Y-106714285D01*
X78133390Y-106714285D02*
X78085771Y-106666666D01*
X78085771Y-106666666D02*
X78038152Y-106571428D01*
X78038152Y-106571428D02*
X78038152Y-106428571D01*
X78038152Y-106428571D02*
X78085771Y-106333333D01*
X78085771Y-106333333D02*
X78181009Y-106285714D01*
X78181009Y-106285714D02*
X78704819Y-106285714D01*
X78038152Y-105952380D02*
X78038152Y-105571428D01*
X77704819Y-105809523D02*
X78561961Y-105809523D01*
X78561961Y-105809523D02*
X78657200Y-105761904D01*
X78657200Y-105761904D02*
X78704819Y-105666666D01*
X78704819Y-105666666D02*
X78704819Y-105571428D01*
X110857142Y-96954819D02*
X110523809Y-96478628D01*
X110285714Y-96954819D02*
X110285714Y-95954819D01*
X110285714Y-95954819D02*
X110666666Y-95954819D01*
X110666666Y-95954819D02*
X110761904Y-96002438D01*
X110761904Y-96002438D02*
X110809523Y-96050057D01*
X110809523Y-96050057D02*
X110857142Y-96145295D01*
X110857142Y-96145295D02*
X110857142Y-96288152D01*
X110857142Y-96288152D02*
X110809523Y-96383390D01*
X110809523Y-96383390D02*
X110761904Y-96431009D01*
X110761904Y-96431009D02*
X110666666Y-96478628D01*
X110666666Y-96478628D02*
X110285714Y-96478628D01*
X111809523Y-96954819D02*
X111238095Y-96954819D01*
X111523809Y-96954819D02*
X111523809Y-95954819D01*
X111523809Y-95954819D02*
X111428571Y-96097676D01*
X111428571Y-96097676D02*
X111333333Y-96192914D01*
X111333333Y-96192914D02*
X111238095Y-96240533D01*
X112190476Y-96050057D02*
X112238095Y-96002438D01*
X112238095Y-96002438D02*
X112333333Y-95954819D01*
X112333333Y-95954819D02*
X112571428Y-95954819D01*
X112571428Y-95954819D02*
X112666666Y-96002438D01*
X112666666Y-96002438D02*
X112714285Y-96050057D01*
X112714285Y-96050057D02*
X112761904Y-96145295D01*
X112761904Y-96145295D02*
X112761904Y-96240533D01*
X112761904Y-96240533D02*
X112714285Y-96383390D01*
X112714285Y-96383390D02*
X112142857Y-96954819D01*
X112142857Y-96954819D02*
X112761904Y-96954819D01*
X111333333Y-112954819D02*
X111000000Y-112478628D01*
X110761905Y-112954819D02*
X110761905Y-111954819D01*
X110761905Y-111954819D02*
X111142857Y-111954819D01*
X111142857Y-111954819D02*
X111238095Y-112002438D01*
X111238095Y-112002438D02*
X111285714Y-112050057D01*
X111285714Y-112050057D02*
X111333333Y-112145295D01*
X111333333Y-112145295D02*
X111333333Y-112288152D01*
X111333333Y-112288152D02*
X111285714Y-112383390D01*
X111285714Y-112383390D02*
X111238095Y-112431009D01*
X111238095Y-112431009D02*
X111142857Y-112478628D01*
X111142857Y-112478628D02*
X110761905Y-112478628D01*
X111666667Y-111954819D02*
X112333333Y-111954819D01*
X112333333Y-111954819D02*
X111904762Y-112954819D01*
X77416667Y-76157200D02*
X77559524Y-76204819D01*
X77559524Y-76204819D02*
X77797619Y-76204819D01*
X77797619Y-76204819D02*
X77892857Y-76157200D01*
X77892857Y-76157200D02*
X77940476Y-76109580D01*
X77940476Y-76109580D02*
X77988095Y-76014342D01*
X77988095Y-76014342D02*
X77988095Y-75919104D01*
X77988095Y-75919104D02*
X77940476Y-75823866D01*
X77940476Y-75823866D02*
X77892857Y-75776247D01*
X77892857Y-75776247D02*
X77797619Y-75728628D01*
X77797619Y-75728628D02*
X77607143Y-75681009D01*
X77607143Y-75681009D02*
X77511905Y-75633390D01*
X77511905Y-75633390D02*
X77464286Y-75585771D01*
X77464286Y-75585771D02*
X77416667Y-75490533D01*
X77416667Y-75490533D02*
X77416667Y-75395295D01*
X77416667Y-75395295D02*
X77464286Y-75300057D01*
X77464286Y-75300057D02*
X77511905Y-75252438D01*
X77511905Y-75252438D02*
X77607143Y-75204819D01*
X77607143Y-75204819D02*
X77845238Y-75204819D01*
X77845238Y-75204819D02*
X77988095Y-75252438D01*
X78321429Y-75204819D02*
X78559524Y-76204819D01*
X78559524Y-76204819D02*
X78750000Y-75490533D01*
X78750000Y-75490533D02*
X78940476Y-76204819D01*
X78940476Y-76204819D02*
X79178572Y-75204819D01*
X80083333Y-76204819D02*
X79511905Y-76204819D01*
X79797619Y-76204819D02*
X79797619Y-75204819D01*
X79797619Y-75204819D02*
X79702381Y-75347676D01*
X79702381Y-75347676D02*
X79607143Y-75442914D01*
X79607143Y-75442914D02*
X79511905Y-75490533D01*
X104607142Y-114359580D02*
X104559523Y-114407200D01*
X104559523Y-114407200D02*
X104416666Y-114454819D01*
X104416666Y-114454819D02*
X104321428Y-114454819D01*
X104321428Y-114454819D02*
X104178571Y-114407200D01*
X104178571Y-114407200D02*
X104083333Y-114311961D01*
X104083333Y-114311961D02*
X104035714Y-114216723D01*
X104035714Y-114216723D02*
X103988095Y-114026247D01*
X103988095Y-114026247D02*
X103988095Y-113883390D01*
X103988095Y-113883390D02*
X104035714Y-113692914D01*
X104035714Y-113692914D02*
X104083333Y-113597676D01*
X104083333Y-113597676D02*
X104178571Y-113502438D01*
X104178571Y-113502438D02*
X104321428Y-113454819D01*
X104321428Y-113454819D02*
X104416666Y-113454819D01*
X104416666Y-113454819D02*
X104559523Y-113502438D01*
X104559523Y-113502438D02*
X104607142Y-113550057D01*
X105559523Y-114454819D02*
X104988095Y-114454819D01*
X105273809Y-114454819D02*
X105273809Y-113454819D01*
X105273809Y-113454819D02*
X105178571Y-113597676D01*
X105178571Y-113597676D02*
X105083333Y-113692914D01*
X105083333Y-113692914D02*
X104988095Y-113740533D01*
X106035714Y-114454819D02*
X106226190Y-114454819D01*
X106226190Y-114454819D02*
X106321428Y-114407200D01*
X106321428Y-114407200D02*
X106369047Y-114359580D01*
X106369047Y-114359580D02*
X106464285Y-114216723D01*
X106464285Y-114216723D02*
X106511904Y-114026247D01*
X106511904Y-114026247D02*
X106511904Y-113645295D01*
X106511904Y-113645295D02*
X106464285Y-113550057D01*
X106464285Y-113550057D02*
X106416666Y-113502438D01*
X106416666Y-113502438D02*
X106321428Y-113454819D01*
X106321428Y-113454819D02*
X106130952Y-113454819D01*
X106130952Y-113454819D02*
X106035714Y-113502438D01*
X106035714Y-113502438D02*
X105988095Y-113550057D01*
X105988095Y-113550057D02*
X105940476Y-113645295D01*
X105940476Y-113645295D02*
X105940476Y-113883390D01*
X105940476Y-113883390D02*
X105988095Y-113978628D01*
X105988095Y-113978628D02*
X106035714Y-114026247D01*
X106035714Y-114026247D02*
X106130952Y-114073866D01*
X106130952Y-114073866D02*
X106321428Y-114073866D01*
X106321428Y-114073866D02*
X106416666Y-114026247D01*
X106416666Y-114026247D02*
X106464285Y-113978628D01*
X106464285Y-113978628D02*
X106511904Y-113883390D01*
X108488095Y-89704819D02*
X108488095Y-90514342D01*
X108488095Y-90514342D02*
X108535714Y-90609580D01*
X108535714Y-90609580D02*
X108583333Y-90657200D01*
X108583333Y-90657200D02*
X108678571Y-90704819D01*
X108678571Y-90704819D02*
X108869047Y-90704819D01*
X108869047Y-90704819D02*
X108964285Y-90657200D01*
X108964285Y-90657200D02*
X109011904Y-90609580D01*
X109011904Y-90609580D02*
X109059523Y-90514342D01*
X109059523Y-90514342D02*
X109059523Y-89704819D01*
X110011904Y-89704819D02*
X109535714Y-89704819D01*
X109535714Y-89704819D02*
X109488095Y-90181009D01*
X109488095Y-90181009D02*
X109535714Y-90133390D01*
X109535714Y-90133390D02*
X109630952Y-90085771D01*
X109630952Y-90085771D02*
X109869047Y-90085771D01*
X109869047Y-90085771D02*
X109964285Y-90133390D01*
X109964285Y-90133390D02*
X110011904Y-90181009D01*
X110011904Y-90181009D02*
X110059523Y-90276247D01*
X110059523Y-90276247D02*
X110059523Y-90514342D01*
X110059523Y-90514342D02*
X110011904Y-90609580D01*
X110011904Y-90609580D02*
X109964285Y-90657200D01*
X109964285Y-90657200D02*
X109869047Y-90704819D01*
X109869047Y-90704819D02*
X109630952Y-90704819D01*
X109630952Y-90704819D02*
X109535714Y-90657200D01*
X109535714Y-90657200D02*
X109488095Y-90609580D01*
X120357142Y-105679580D02*
X120309523Y-105727200D01*
X120309523Y-105727200D02*
X120166666Y-105774819D01*
X120166666Y-105774819D02*
X120071428Y-105774819D01*
X120071428Y-105774819D02*
X119928571Y-105727200D01*
X119928571Y-105727200D02*
X119833333Y-105631961D01*
X119833333Y-105631961D02*
X119785714Y-105536723D01*
X119785714Y-105536723D02*
X119738095Y-105346247D01*
X119738095Y-105346247D02*
X119738095Y-105203390D01*
X119738095Y-105203390D02*
X119785714Y-105012914D01*
X119785714Y-105012914D02*
X119833333Y-104917676D01*
X119833333Y-104917676D02*
X119928571Y-104822438D01*
X119928571Y-104822438D02*
X120071428Y-104774819D01*
X120071428Y-104774819D02*
X120166666Y-104774819D01*
X120166666Y-104774819D02*
X120309523Y-104822438D01*
X120309523Y-104822438D02*
X120357142Y-104870057D01*
X120738095Y-104870057D02*
X120785714Y-104822438D01*
X120785714Y-104822438D02*
X120880952Y-104774819D01*
X120880952Y-104774819D02*
X121119047Y-104774819D01*
X121119047Y-104774819D02*
X121214285Y-104822438D01*
X121214285Y-104822438D02*
X121261904Y-104870057D01*
X121261904Y-104870057D02*
X121309523Y-104965295D01*
X121309523Y-104965295D02*
X121309523Y-105060533D01*
X121309523Y-105060533D02*
X121261904Y-105203390D01*
X121261904Y-105203390D02*
X120690476Y-105774819D01*
X120690476Y-105774819D02*
X121309523Y-105774819D01*
X122261904Y-105774819D02*
X121690476Y-105774819D01*
X121976190Y-105774819D02*
X121976190Y-104774819D01*
X121976190Y-104774819D02*
X121880952Y-104917676D01*
X121880952Y-104917676D02*
X121785714Y-105012914D01*
X121785714Y-105012914D02*
X121690476Y-105060533D01*
X123333333Y-110954819D02*
X123000000Y-110478628D01*
X122761905Y-110954819D02*
X122761905Y-109954819D01*
X122761905Y-109954819D02*
X123142857Y-109954819D01*
X123142857Y-109954819D02*
X123238095Y-110002438D01*
X123238095Y-110002438D02*
X123285714Y-110050057D01*
X123285714Y-110050057D02*
X123333333Y-110145295D01*
X123333333Y-110145295D02*
X123333333Y-110288152D01*
X123333333Y-110288152D02*
X123285714Y-110383390D01*
X123285714Y-110383390D02*
X123238095Y-110431009D01*
X123238095Y-110431009D02*
X123142857Y-110478628D01*
X123142857Y-110478628D02*
X122761905Y-110478628D01*
X123904762Y-110383390D02*
X123809524Y-110335771D01*
X123809524Y-110335771D02*
X123761905Y-110288152D01*
X123761905Y-110288152D02*
X123714286Y-110192914D01*
X123714286Y-110192914D02*
X123714286Y-110145295D01*
X123714286Y-110145295D02*
X123761905Y-110050057D01*
X123761905Y-110050057D02*
X123809524Y-110002438D01*
X123809524Y-110002438D02*
X123904762Y-109954819D01*
X123904762Y-109954819D02*
X124095238Y-109954819D01*
X124095238Y-109954819D02*
X124190476Y-110002438D01*
X124190476Y-110002438D02*
X124238095Y-110050057D01*
X124238095Y-110050057D02*
X124285714Y-110145295D01*
X124285714Y-110145295D02*
X124285714Y-110192914D01*
X124285714Y-110192914D02*
X124238095Y-110288152D01*
X124238095Y-110288152D02*
X124190476Y-110335771D01*
X124190476Y-110335771D02*
X124095238Y-110383390D01*
X124095238Y-110383390D02*
X123904762Y-110383390D01*
X123904762Y-110383390D02*
X123809524Y-110431009D01*
X123809524Y-110431009D02*
X123761905Y-110478628D01*
X123761905Y-110478628D02*
X123714286Y-110573866D01*
X123714286Y-110573866D02*
X123714286Y-110764342D01*
X123714286Y-110764342D02*
X123761905Y-110859580D01*
X123761905Y-110859580D02*
X123809524Y-110907200D01*
X123809524Y-110907200D02*
X123904762Y-110954819D01*
X123904762Y-110954819D02*
X124095238Y-110954819D01*
X124095238Y-110954819D02*
X124190476Y-110907200D01*
X124190476Y-110907200D02*
X124238095Y-110859580D01*
X124238095Y-110859580D02*
X124285714Y-110764342D01*
X124285714Y-110764342D02*
X124285714Y-110573866D01*
X124285714Y-110573866D02*
X124238095Y-110478628D01*
X124238095Y-110478628D02*
X124190476Y-110431009D01*
X124190476Y-110431009D02*
X124095238Y-110383390D01*
X114607142Y-111204819D02*
X114273809Y-110728628D01*
X114035714Y-111204819D02*
X114035714Y-110204819D01*
X114035714Y-110204819D02*
X114416666Y-110204819D01*
X114416666Y-110204819D02*
X114511904Y-110252438D01*
X114511904Y-110252438D02*
X114559523Y-110300057D01*
X114559523Y-110300057D02*
X114607142Y-110395295D01*
X114607142Y-110395295D02*
X114607142Y-110538152D01*
X114607142Y-110538152D02*
X114559523Y-110633390D01*
X114559523Y-110633390D02*
X114511904Y-110681009D01*
X114511904Y-110681009D02*
X114416666Y-110728628D01*
X114416666Y-110728628D02*
X114035714Y-110728628D01*
X115559523Y-111204819D02*
X114988095Y-111204819D01*
X115273809Y-111204819D02*
X115273809Y-110204819D01*
X115273809Y-110204819D02*
X115178571Y-110347676D01*
X115178571Y-110347676D02*
X115083333Y-110442914D01*
X115083333Y-110442914D02*
X114988095Y-110490533D01*
X116511904Y-111204819D02*
X115940476Y-111204819D01*
X116226190Y-111204819D02*
X116226190Y-110204819D01*
X116226190Y-110204819D02*
X116130952Y-110347676D01*
X116130952Y-110347676D02*
X116035714Y-110442914D01*
X116035714Y-110442914D02*
X115940476Y-110490533D01*
X104607142Y-116109580D02*
X104559523Y-116157200D01*
X104559523Y-116157200D02*
X104416666Y-116204819D01*
X104416666Y-116204819D02*
X104321428Y-116204819D01*
X104321428Y-116204819D02*
X104178571Y-116157200D01*
X104178571Y-116157200D02*
X104083333Y-116061961D01*
X104083333Y-116061961D02*
X104035714Y-115966723D01*
X104035714Y-115966723D02*
X103988095Y-115776247D01*
X103988095Y-115776247D02*
X103988095Y-115633390D01*
X103988095Y-115633390D02*
X104035714Y-115442914D01*
X104035714Y-115442914D02*
X104083333Y-115347676D01*
X104083333Y-115347676D02*
X104178571Y-115252438D01*
X104178571Y-115252438D02*
X104321428Y-115204819D01*
X104321428Y-115204819D02*
X104416666Y-115204819D01*
X104416666Y-115204819D02*
X104559523Y-115252438D01*
X104559523Y-115252438D02*
X104607142Y-115300057D01*
X104988095Y-115300057D02*
X105035714Y-115252438D01*
X105035714Y-115252438D02*
X105130952Y-115204819D01*
X105130952Y-115204819D02*
X105369047Y-115204819D01*
X105369047Y-115204819D02*
X105464285Y-115252438D01*
X105464285Y-115252438D02*
X105511904Y-115300057D01*
X105511904Y-115300057D02*
X105559523Y-115395295D01*
X105559523Y-115395295D02*
X105559523Y-115490533D01*
X105559523Y-115490533D02*
X105511904Y-115633390D01*
X105511904Y-115633390D02*
X104940476Y-116204819D01*
X104940476Y-116204819D02*
X105559523Y-116204819D01*
X106178571Y-115204819D02*
X106273809Y-115204819D01*
X106273809Y-115204819D02*
X106369047Y-115252438D01*
X106369047Y-115252438D02*
X106416666Y-115300057D01*
X106416666Y-115300057D02*
X106464285Y-115395295D01*
X106464285Y-115395295D02*
X106511904Y-115585771D01*
X106511904Y-115585771D02*
X106511904Y-115823866D01*
X106511904Y-115823866D02*
X106464285Y-116014342D01*
X106464285Y-116014342D02*
X106416666Y-116109580D01*
X106416666Y-116109580D02*
X106369047Y-116157200D01*
X106369047Y-116157200D02*
X106273809Y-116204819D01*
X106273809Y-116204819D02*
X106178571Y-116204819D01*
X106178571Y-116204819D02*
X106083333Y-116157200D01*
X106083333Y-116157200D02*
X106035714Y-116109580D01*
X106035714Y-116109580D02*
X105988095Y-116014342D01*
X105988095Y-116014342D02*
X105940476Y-115823866D01*
X105940476Y-115823866D02*
X105940476Y-115585771D01*
X105940476Y-115585771D02*
X105988095Y-115395295D01*
X105988095Y-115395295D02*
X106035714Y-115300057D01*
X106035714Y-115300057D02*
X106083333Y-115252438D01*
X106083333Y-115252438D02*
X106178571Y-115204819D01*
X119666667Y-76657200D02*
X119809524Y-76704819D01*
X119809524Y-76704819D02*
X120047619Y-76704819D01*
X120047619Y-76704819D02*
X120142857Y-76657200D01*
X120142857Y-76657200D02*
X120190476Y-76609580D01*
X120190476Y-76609580D02*
X120238095Y-76514342D01*
X120238095Y-76514342D02*
X120238095Y-76419104D01*
X120238095Y-76419104D02*
X120190476Y-76323866D01*
X120190476Y-76323866D02*
X120142857Y-76276247D01*
X120142857Y-76276247D02*
X120047619Y-76228628D01*
X120047619Y-76228628D02*
X119857143Y-76181009D01*
X119857143Y-76181009D02*
X119761905Y-76133390D01*
X119761905Y-76133390D02*
X119714286Y-76085771D01*
X119714286Y-76085771D02*
X119666667Y-75990533D01*
X119666667Y-75990533D02*
X119666667Y-75895295D01*
X119666667Y-75895295D02*
X119714286Y-75800057D01*
X119714286Y-75800057D02*
X119761905Y-75752438D01*
X119761905Y-75752438D02*
X119857143Y-75704819D01*
X119857143Y-75704819D02*
X120095238Y-75704819D01*
X120095238Y-75704819D02*
X120238095Y-75752438D01*
X120571429Y-75704819D02*
X120809524Y-76704819D01*
X120809524Y-76704819D02*
X121000000Y-75990533D01*
X121000000Y-75990533D02*
X121190476Y-76704819D01*
X121190476Y-76704819D02*
X121428572Y-75704819D01*
X121761905Y-75800057D02*
X121809524Y-75752438D01*
X121809524Y-75752438D02*
X121904762Y-75704819D01*
X121904762Y-75704819D02*
X122142857Y-75704819D01*
X122142857Y-75704819D02*
X122238095Y-75752438D01*
X122238095Y-75752438D02*
X122285714Y-75800057D01*
X122285714Y-75800057D02*
X122333333Y-75895295D01*
X122333333Y-75895295D02*
X122333333Y-75990533D01*
X122333333Y-75990533D02*
X122285714Y-76133390D01*
X122285714Y-76133390D02*
X121714286Y-76704819D01*
X121714286Y-76704819D02*
X122333333Y-76704819D01*
X119297618Y-82704819D02*
X118964285Y-82228628D01*
X118726190Y-82704819D02*
X118726190Y-81704819D01*
X118726190Y-81704819D02*
X119107142Y-81704819D01*
X119107142Y-81704819D02*
X119202380Y-81752438D01*
X119202380Y-81752438D02*
X119249999Y-81800057D01*
X119249999Y-81800057D02*
X119297618Y-81895295D01*
X119297618Y-81895295D02*
X119297618Y-82038152D01*
X119297618Y-82038152D02*
X119249999Y-82133390D01*
X119249999Y-82133390D02*
X119202380Y-82181009D01*
X119202380Y-82181009D02*
X119107142Y-82228628D01*
X119107142Y-82228628D02*
X118726190Y-82228628D01*
X119726190Y-82181009D02*
X120059523Y-82181009D01*
X120202380Y-82704819D02*
X119726190Y-82704819D01*
X119726190Y-82704819D02*
X119726190Y-81704819D01*
X119726190Y-81704819D02*
X120202380Y-81704819D01*
X120583333Y-82657200D02*
X120726190Y-82704819D01*
X120726190Y-82704819D02*
X120964285Y-82704819D01*
X120964285Y-82704819D02*
X121059523Y-82657200D01*
X121059523Y-82657200D02*
X121107142Y-82609580D01*
X121107142Y-82609580D02*
X121154761Y-82514342D01*
X121154761Y-82514342D02*
X121154761Y-82419104D01*
X121154761Y-82419104D02*
X121107142Y-82323866D01*
X121107142Y-82323866D02*
X121059523Y-82276247D01*
X121059523Y-82276247D02*
X120964285Y-82228628D01*
X120964285Y-82228628D02*
X120773809Y-82181009D01*
X120773809Y-82181009D02*
X120678571Y-82133390D01*
X120678571Y-82133390D02*
X120630952Y-82085771D01*
X120630952Y-82085771D02*
X120583333Y-81990533D01*
X120583333Y-81990533D02*
X120583333Y-81895295D01*
X120583333Y-81895295D02*
X120630952Y-81800057D01*
X120630952Y-81800057D02*
X120678571Y-81752438D01*
X120678571Y-81752438D02*
X120773809Y-81704819D01*
X120773809Y-81704819D02*
X121011904Y-81704819D01*
X121011904Y-81704819D02*
X121154761Y-81752438D01*
X121583333Y-82181009D02*
X121916666Y-82181009D01*
X122059523Y-82704819D02*
X121583333Y-82704819D01*
X121583333Y-82704819D02*
X121583333Y-81704819D01*
X121583333Y-81704819D02*
X122059523Y-81704819D01*
X122345238Y-81704819D02*
X122916666Y-81704819D01*
X122630952Y-82704819D02*
X122630952Y-81704819D01*
X105798666Y-72347819D02*
X105798666Y-73062104D01*
X105798666Y-73062104D02*
X105751047Y-73204961D01*
X105751047Y-73204961D02*
X105655809Y-73300200D01*
X105655809Y-73300200D02*
X105512952Y-73347819D01*
X105512952Y-73347819D02*
X105417714Y-73347819D01*
X106703428Y-72347819D02*
X106512952Y-72347819D01*
X106512952Y-72347819D02*
X106417714Y-72395438D01*
X106417714Y-72395438D02*
X106370095Y-72443057D01*
X106370095Y-72443057D02*
X106274857Y-72585914D01*
X106274857Y-72585914D02*
X106227238Y-72776390D01*
X106227238Y-72776390D02*
X106227238Y-73157342D01*
X106227238Y-73157342D02*
X106274857Y-73252580D01*
X106274857Y-73252580D02*
X106322476Y-73300200D01*
X106322476Y-73300200D02*
X106417714Y-73347819D01*
X106417714Y-73347819D02*
X106608190Y-73347819D01*
X106608190Y-73347819D02*
X106703428Y-73300200D01*
X106703428Y-73300200D02*
X106751047Y-73252580D01*
X106751047Y-73252580D02*
X106798666Y-73157342D01*
X106798666Y-73157342D02*
X106798666Y-72919247D01*
X106798666Y-72919247D02*
X106751047Y-72824009D01*
X106751047Y-72824009D02*
X106703428Y-72776390D01*
X106703428Y-72776390D02*
X106608190Y-72728771D01*
X106608190Y-72728771D02*
X106417714Y-72728771D01*
X106417714Y-72728771D02*
X106322476Y-72776390D01*
X106322476Y-72776390D02*
X106274857Y-72824009D01*
X106274857Y-72824009D02*
X106227238Y-72919247D01*
D13*
X107928571Y-77928328D02*
X107928571Y-76428328D01*
X107928571Y-76428328D02*
X108285714Y-76428328D01*
X108285714Y-76428328D02*
X108500000Y-76499757D01*
X108500000Y-76499757D02*
X108642857Y-76642614D01*
X108642857Y-76642614D02*
X108714286Y-76785471D01*
X108714286Y-76785471D02*
X108785714Y-77071185D01*
X108785714Y-77071185D02*
X108785714Y-77285471D01*
X108785714Y-77285471D02*
X108714286Y-77571185D01*
X108714286Y-77571185D02*
X108642857Y-77714042D01*
X108642857Y-77714042D02*
X108500000Y-77856900D01*
X108500000Y-77856900D02*
X108285714Y-77928328D01*
X108285714Y-77928328D02*
X107928571Y-77928328D01*
X110000000Y-77856900D02*
X109857143Y-77928328D01*
X109857143Y-77928328D02*
X109571429Y-77928328D01*
X109571429Y-77928328D02*
X109428571Y-77856900D01*
X109428571Y-77856900D02*
X109357143Y-77714042D01*
X109357143Y-77714042D02*
X109357143Y-77142614D01*
X109357143Y-77142614D02*
X109428571Y-76999757D01*
X109428571Y-76999757D02*
X109571429Y-76928328D01*
X109571429Y-76928328D02*
X109857143Y-76928328D01*
X109857143Y-76928328D02*
X110000000Y-76999757D01*
X110000000Y-76999757D02*
X110071429Y-77142614D01*
X110071429Y-77142614D02*
X110071429Y-77285471D01*
X110071429Y-77285471D02*
X109357143Y-77428328D01*
X110714285Y-77928328D02*
X110714285Y-76428328D01*
X110714285Y-76999757D02*
X110857143Y-76928328D01*
X110857143Y-76928328D02*
X111142857Y-76928328D01*
X111142857Y-76928328D02*
X111285714Y-76999757D01*
X111285714Y-76999757D02*
X111357143Y-77071185D01*
X111357143Y-77071185D02*
X111428571Y-77214042D01*
X111428571Y-77214042D02*
X111428571Y-77642614D01*
X111428571Y-77642614D02*
X111357143Y-77785471D01*
X111357143Y-77785471D02*
X111285714Y-77856900D01*
X111285714Y-77856900D02*
X111142857Y-77928328D01*
X111142857Y-77928328D02*
X110857143Y-77928328D01*
X110857143Y-77928328D02*
X110714285Y-77856900D01*
X112714286Y-76928328D02*
X112714286Y-77928328D01*
X112071428Y-76928328D02*
X112071428Y-77714042D01*
X112071428Y-77714042D02*
X112142857Y-77856900D01*
X112142857Y-77856900D02*
X112285714Y-77928328D01*
X112285714Y-77928328D02*
X112500000Y-77928328D01*
X112500000Y-77928328D02*
X112642857Y-77856900D01*
X112642857Y-77856900D02*
X112714286Y-77785471D01*
X114071429Y-76928328D02*
X114071429Y-78142614D01*
X114071429Y-78142614D02*
X114000000Y-78285471D01*
X114000000Y-78285471D02*
X113928571Y-78356900D01*
X113928571Y-78356900D02*
X113785714Y-78428328D01*
X113785714Y-78428328D02*
X113571429Y-78428328D01*
X113571429Y-78428328D02*
X113428571Y-78356900D01*
X114071429Y-77856900D02*
X113928571Y-77928328D01*
X113928571Y-77928328D02*
X113642857Y-77928328D01*
X113642857Y-77928328D02*
X113500000Y-77856900D01*
X113500000Y-77856900D02*
X113428571Y-77785471D01*
X113428571Y-77785471D02*
X113357143Y-77642614D01*
X113357143Y-77642614D02*
X113357143Y-77214042D01*
X113357143Y-77214042D02*
X113428571Y-77071185D01*
X113428571Y-77071185D02*
X113500000Y-76999757D01*
X113500000Y-76999757D02*
X113642857Y-76928328D01*
X113642857Y-76928328D02*
X113928571Y-76928328D01*
X113928571Y-76928328D02*
X114071429Y-76999757D01*
D10*
X111333333Y-104024819D02*
X111000000Y-103548628D01*
X110761905Y-104024819D02*
X110761905Y-103024819D01*
X110761905Y-103024819D02*
X111142857Y-103024819D01*
X111142857Y-103024819D02*
X111238095Y-103072438D01*
X111238095Y-103072438D02*
X111285714Y-103120057D01*
X111285714Y-103120057D02*
X111333333Y-103215295D01*
X111333333Y-103215295D02*
X111333333Y-103358152D01*
X111333333Y-103358152D02*
X111285714Y-103453390D01*
X111285714Y-103453390D02*
X111238095Y-103501009D01*
X111238095Y-103501009D02*
X111142857Y-103548628D01*
X111142857Y-103548628D02*
X110761905Y-103548628D01*
X112190476Y-103024819D02*
X112000000Y-103024819D01*
X112000000Y-103024819D02*
X111904762Y-103072438D01*
X111904762Y-103072438D02*
X111857143Y-103120057D01*
X111857143Y-103120057D02*
X111761905Y-103262914D01*
X111761905Y-103262914D02*
X111714286Y-103453390D01*
X111714286Y-103453390D02*
X111714286Y-103834342D01*
X111714286Y-103834342D02*
X111761905Y-103929580D01*
X111761905Y-103929580D02*
X111809524Y-103977200D01*
X111809524Y-103977200D02*
X111904762Y-104024819D01*
X111904762Y-104024819D02*
X112095238Y-104024819D01*
X112095238Y-104024819D02*
X112190476Y-103977200D01*
X112190476Y-103977200D02*
X112238095Y-103929580D01*
X112238095Y-103929580D02*
X112285714Y-103834342D01*
X112285714Y-103834342D02*
X112285714Y-103596247D01*
X112285714Y-103596247D02*
X112238095Y-103501009D01*
X112238095Y-103501009D02*
X112190476Y-103453390D01*
X112190476Y-103453390D02*
X112095238Y-103405771D01*
X112095238Y-103405771D02*
X111904762Y-103405771D01*
X111904762Y-103405771D02*
X111809524Y-103453390D01*
X111809524Y-103453390D02*
X111761905Y-103501009D01*
X111761905Y-103501009D02*
X111714286Y-103596247D01*
X85511905Y-101704819D02*
X85511905Y-100704819D01*
X85511905Y-100704819D02*
X85750000Y-100704819D01*
X85750000Y-100704819D02*
X85892857Y-100752438D01*
X85892857Y-100752438D02*
X85988095Y-100847676D01*
X85988095Y-100847676D02*
X86035714Y-100942914D01*
X86035714Y-100942914D02*
X86083333Y-101133390D01*
X86083333Y-101133390D02*
X86083333Y-101276247D01*
X86083333Y-101276247D02*
X86035714Y-101466723D01*
X86035714Y-101466723D02*
X85988095Y-101561961D01*
X85988095Y-101561961D02*
X85892857Y-101657200D01*
X85892857Y-101657200D02*
X85750000Y-101704819D01*
X85750000Y-101704819D02*
X85511905Y-101704819D01*
X86416667Y-100704819D02*
X87035714Y-100704819D01*
X87035714Y-100704819D02*
X86702381Y-101085771D01*
X86702381Y-101085771D02*
X86845238Y-101085771D01*
X86845238Y-101085771D02*
X86940476Y-101133390D01*
X86940476Y-101133390D02*
X86988095Y-101181009D01*
X86988095Y-101181009D02*
X87035714Y-101276247D01*
X87035714Y-101276247D02*
X87035714Y-101514342D01*
X87035714Y-101514342D02*
X86988095Y-101609580D01*
X86988095Y-101609580D02*
X86940476Y-101657200D01*
X86940476Y-101657200D02*
X86845238Y-101704819D01*
X86845238Y-101704819D02*
X86559524Y-101704819D01*
X86559524Y-101704819D02*
X86464286Y-101657200D01*
X86464286Y-101657200D02*
X86416667Y-101609580D01*
X93538152Y-114690476D02*
X94347676Y-114690476D01*
X94347676Y-114690476D02*
X94442914Y-114738095D01*
X94442914Y-114738095D02*
X94490533Y-114785714D01*
X94490533Y-114785714D02*
X94538152Y-114880952D01*
X94538152Y-114880952D02*
X94538152Y-115023809D01*
X94538152Y-115023809D02*
X94490533Y-115119047D01*
X94157200Y-114690476D02*
X94204819Y-114785714D01*
X94204819Y-114785714D02*
X94204819Y-114976190D01*
X94204819Y-114976190D02*
X94157200Y-115071428D01*
X94157200Y-115071428D02*
X94109580Y-115119047D01*
X94109580Y-115119047D02*
X94014342Y-115166666D01*
X94014342Y-115166666D02*
X93728628Y-115166666D01*
X93728628Y-115166666D02*
X93633390Y-115119047D01*
X93633390Y-115119047D02*
X93585771Y-115071428D01*
X93585771Y-115071428D02*
X93538152Y-114976190D01*
X93538152Y-114976190D02*
X93538152Y-114785714D01*
X93538152Y-114785714D02*
X93585771Y-114690476D01*
X93538152Y-114214285D02*
X94204819Y-114214285D01*
X93633390Y-114214285D02*
X93585771Y-114166666D01*
X93585771Y-114166666D02*
X93538152Y-114071428D01*
X93538152Y-114071428D02*
X93538152Y-113928571D01*
X93538152Y-113928571D02*
X93585771Y-113833333D01*
X93585771Y-113833333D02*
X93681009Y-113785714D01*
X93681009Y-113785714D02*
X94204819Y-113785714D01*
X94204819Y-112880952D02*
X93204819Y-112880952D01*
X94157200Y-112880952D02*
X94204819Y-112976190D01*
X94204819Y-112976190D02*
X94204819Y-113166666D01*
X94204819Y-113166666D02*
X94157200Y-113261904D01*
X94157200Y-113261904D02*
X94109580Y-113309523D01*
X94109580Y-113309523D02*
X94014342Y-113357142D01*
X94014342Y-113357142D02*
X93728628Y-113357142D01*
X93728628Y-113357142D02*
X93633390Y-113309523D01*
X93633390Y-113309523D02*
X93585771Y-113261904D01*
X93585771Y-113261904D02*
X93538152Y-113166666D01*
X93538152Y-113166666D02*
X93538152Y-112976190D01*
X93538152Y-112976190D02*
X93585771Y-112880952D01*
X93919104Y-119714285D02*
X93919104Y-119238095D01*
X94204819Y-119809523D02*
X93204819Y-119476190D01*
X93204819Y-119476190D02*
X94204819Y-119142857D01*
X94204819Y-118809523D02*
X93204819Y-118809523D01*
X93204819Y-118809523D02*
X93204819Y-118571428D01*
X93204819Y-118571428D02*
X93252438Y-118428571D01*
X93252438Y-118428571D02*
X93347676Y-118333333D01*
X93347676Y-118333333D02*
X93442914Y-118285714D01*
X93442914Y-118285714D02*
X93633390Y-118238095D01*
X93633390Y-118238095D02*
X93776247Y-118238095D01*
X93776247Y-118238095D02*
X93966723Y-118285714D01*
X93966723Y-118285714D02*
X94061961Y-118333333D01*
X94061961Y-118333333D02*
X94157200Y-118428571D01*
X94157200Y-118428571D02*
X94204819Y-118571428D01*
X94204819Y-118571428D02*
X94204819Y-118809523D01*
X93204819Y-117619047D02*
X93204819Y-117523809D01*
X93204819Y-117523809D02*
X93252438Y-117428571D01*
X93252438Y-117428571D02*
X93300057Y-117380952D01*
X93300057Y-117380952D02*
X93395295Y-117333333D01*
X93395295Y-117333333D02*
X93585771Y-117285714D01*
X93585771Y-117285714D02*
X93823866Y-117285714D01*
X93823866Y-117285714D02*
X94014342Y-117333333D01*
X94014342Y-117333333D02*
X94109580Y-117380952D01*
X94109580Y-117380952D02*
X94157200Y-117428571D01*
X94157200Y-117428571D02*
X94204819Y-117523809D01*
X94204819Y-117523809D02*
X94204819Y-117619047D01*
X94204819Y-117619047D02*
X94157200Y-117714285D01*
X94157200Y-117714285D02*
X94109580Y-117761904D01*
X94109580Y-117761904D02*
X94014342Y-117809523D01*
X94014342Y-117809523D02*
X93823866Y-117857142D01*
X93823866Y-117857142D02*
X93585771Y-117857142D01*
X93585771Y-117857142D02*
X93395295Y-117809523D01*
X93395295Y-117809523D02*
X93300057Y-117761904D01*
X93300057Y-117761904D02*
X93252438Y-117714285D01*
X93252438Y-117714285D02*
X93204819Y-117619047D01*
X113857142Y-104359580D02*
X113809523Y-104407200D01*
X113809523Y-104407200D02*
X113666666Y-104454819D01*
X113666666Y-104454819D02*
X113571428Y-104454819D01*
X113571428Y-104454819D02*
X113428571Y-104407200D01*
X113428571Y-104407200D02*
X113333333Y-104311961D01*
X113333333Y-104311961D02*
X113285714Y-104216723D01*
X113285714Y-104216723D02*
X113238095Y-104026247D01*
X113238095Y-104026247D02*
X113238095Y-103883390D01*
X113238095Y-103883390D02*
X113285714Y-103692914D01*
X113285714Y-103692914D02*
X113333333Y-103597676D01*
X113333333Y-103597676D02*
X113428571Y-103502438D01*
X113428571Y-103502438D02*
X113571428Y-103454819D01*
X113571428Y-103454819D02*
X113666666Y-103454819D01*
X113666666Y-103454819D02*
X113809523Y-103502438D01*
X113809523Y-103502438D02*
X113857142Y-103550057D01*
X114238095Y-103550057D02*
X114285714Y-103502438D01*
X114285714Y-103502438D02*
X114380952Y-103454819D01*
X114380952Y-103454819D02*
X114619047Y-103454819D01*
X114619047Y-103454819D02*
X114714285Y-103502438D01*
X114714285Y-103502438D02*
X114761904Y-103550057D01*
X114761904Y-103550057D02*
X114809523Y-103645295D01*
X114809523Y-103645295D02*
X114809523Y-103740533D01*
X114809523Y-103740533D02*
X114761904Y-103883390D01*
X114761904Y-103883390D02*
X114190476Y-104454819D01*
X114190476Y-104454819D02*
X114809523Y-104454819D01*
X115142857Y-103454819D02*
X115809523Y-103454819D01*
X115809523Y-103454819D02*
X115380952Y-104454819D01*
X115761905Y-119704819D02*
X115761905Y-118704819D01*
X115761905Y-118704819D02*
X116000000Y-118704819D01*
X116000000Y-118704819D02*
X116142857Y-118752438D01*
X116142857Y-118752438D02*
X116238095Y-118847676D01*
X116238095Y-118847676D02*
X116285714Y-118942914D01*
X116285714Y-118942914D02*
X116333333Y-119133390D01*
X116333333Y-119133390D02*
X116333333Y-119276247D01*
X116333333Y-119276247D02*
X116285714Y-119466723D01*
X116285714Y-119466723D02*
X116238095Y-119561961D01*
X116238095Y-119561961D02*
X116142857Y-119657200D01*
X116142857Y-119657200D02*
X116000000Y-119704819D01*
X116000000Y-119704819D02*
X115761905Y-119704819D01*
X117285714Y-119704819D02*
X116714286Y-119704819D01*
X117000000Y-119704819D02*
X117000000Y-118704819D01*
X117000000Y-118704819D02*
X116904762Y-118847676D01*
X116904762Y-118847676D02*
X116809524Y-118942914D01*
X116809524Y-118942914D02*
X116714286Y-118990533D01*
X97083333Y-108204819D02*
X96750000Y-107728628D01*
X96511905Y-108204819D02*
X96511905Y-107204819D01*
X96511905Y-107204819D02*
X96892857Y-107204819D01*
X96892857Y-107204819D02*
X96988095Y-107252438D01*
X96988095Y-107252438D02*
X97035714Y-107300057D01*
X97035714Y-107300057D02*
X97083333Y-107395295D01*
X97083333Y-107395295D02*
X97083333Y-107538152D01*
X97083333Y-107538152D02*
X97035714Y-107633390D01*
X97035714Y-107633390D02*
X96988095Y-107681009D01*
X96988095Y-107681009D02*
X96892857Y-107728628D01*
X96892857Y-107728628D02*
X96511905Y-107728628D01*
X97988095Y-107204819D02*
X97511905Y-107204819D01*
X97511905Y-107204819D02*
X97464286Y-107681009D01*
X97464286Y-107681009D02*
X97511905Y-107633390D01*
X97511905Y-107633390D02*
X97607143Y-107585771D01*
X97607143Y-107585771D02*
X97845238Y-107585771D01*
X97845238Y-107585771D02*
X97940476Y-107633390D01*
X97940476Y-107633390D02*
X97988095Y-107681009D01*
X97988095Y-107681009D02*
X98035714Y-107776247D01*
X98035714Y-107776247D02*
X98035714Y-108014342D01*
X98035714Y-108014342D02*
X97988095Y-108109580D01*
X97988095Y-108109580D02*
X97940476Y-108157200D01*
X97940476Y-108157200D02*
X97845238Y-108204819D01*
X97845238Y-108204819D02*
X97607143Y-108204819D01*
X97607143Y-108204819D02*
X97511905Y-108157200D01*
X97511905Y-108157200D02*
X97464286Y-108109580D01*
D11*
X96243000Y-75933748D02*
X96243000Y-76456252D01*
X94773000Y-75933748D02*
X94773000Y-76456252D01*
X97200000Y-73730000D02*
X97200000Y-75280000D01*
X97500000Y-70930000D02*
X97500000Y-73730000D01*
X97500000Y-73730000D02*
X97200000Y-73730000D01*
X102250000Y-76980000D02*
X102650000Y-76530000D01*
X102650000Y-76530000D02*
X103050000Y-76980000D01*
X103050000Y-76980000D02*
X102250000Y-76980000D01*
X105200000Y-70930000D02*
X105200000Y-73730000D01*
X105500000Y-73730000D02*
X105200000Y-73730000D01*
X105500000Y-73730000D02*
X105500000Y-75280000D01*
X105154000Y-93655580D02*
X105154000Y-93374420D01*
X106174000Y-93655580D02*
X106174000Y-93374420D01*
X103630000Y-93655580D02*
X103630000Y-93374420D01*
X104650000Y-93655580D02*
X104650000Y-93374420D01*
X93655580Y-100690000D02*
X93374420Y-100690000D01*
X93655580Y-101710000D02*
X93374420Y-101710000D01*
X84976580Y-89238000D02*
X84695420Y-89238000D01*
X84976580Y-90258000D02*
X84695420Y-90258000D01*
X85566000Y-71769000D02*
X91576000Y-71769000D01*
X87816000Y-78589000D02*
X91576000Y-78589000D01*
X91576000Y-71769000D02*
X91576000Y-73029000D01*
X91576000Y-78589000D02*
X91576000Y-77329000D01*
X82111000Y-91087000D02*
X82111000Y-91347000D01*
X82111000Y-91347000D02*
X80436000Y-91347000D01*
X82111000Y-96537000D02*
X82111000Y-96277000D01*
X84836000Y-91087000D02*
X82111000Y-91087000D01*
X84836000Y-91087000D02*
X87561000Y-91087000D01*
X84836000Y-96537000D02*
X82111000Y-96537000D01*
X84836000Y-96537000D02*
X87561000Y-96537000D01*
X87561000Y-91087000D02*
X87561000Y-91347000D01*
X87561000Y-96537000D02*
X87561000Y-96277000D01*
X94473500Y-92017258D02*
X94473500Y-91542742D01*
X95518500Y-92017258D02*
X95518500Y-91542742D01*
X98550000Y-91666580D02*
X98550000Y-91385420D01*
X99570000Y-91666580D02*
X99570000Y-91385420D01*
X106344420Y-100690000D02*
X106625580Y-100690000D01*
X106344420Y-101710000D02*
X106625580Y-101710000D01*
X100328000Y-108359420D02*
X100328000Y-108640580D01*
X101348000Y-108359420D02*
X101348000Y-108640580D01*
X100061500Y-93277742D02*
X100061500Y-93752258D01*
X101106500Y-93277742D02*
X101106500Y-93752258D01*
X101990000Y-108609420D02*
X101990000Y-108890580D01*
X103010000Y-108609420D02*
X103010000Y-108890580D01*
X83089000Y-79489748D02*
X83089000Y-80012252D01*
X84559000Y-79489748D02*
X84559000Y-80012252D01*
X93655580Y-97112000D02*
X93374420Y-97112000D01*
X93655580Y-98132000D02*
X93374420Y-98132000D01*
X117207420Y-94318000D02*
X117488580Y-94318000D01*
X117207420Y-95338000D02*
X117488580Y-95338000D01*
X96390000Y-103610000D02*
X96390000Y-102960000D01*
X97040000Y-96390000D02*
X96390000Y-96390000D01*
X97040000Y-103610000D02*
X96390000Y-103610000D01*
X102960000Y-96390000D02*
X103610000Y-96390000D01*
X102960000Y-103610000D02*
X103610000Y-103610000D01*
X103610000Y-96390000D02*
X103610000Y-97040000D01*
X103610000Y-103610000D02*
X103610000Y-102960000D01*
X101839500Y-93277742D02*
X101839500Y-93752258D01*
X102884500Y-93277742D02*
X102884500Y-93752258D01*
X96772000Y-92428580D02*
X96772000Y-92147420D01*
X97792000Y-92428580D02*
X97792000Y-92147420D01*
X106344420Y-95842000D02*
X106625580Y-95842000D01*
X106344420Y-96862000D02*
X106625580Y-96862000D01*
X119015000Y-114988748D02*
X119015000Y-115511252D01*
X120485000Y-114988748D02*
X120485000Y-115511252D01*
X106914000Y-106650000D02*
X109914000Y-106650000D01*
X106914000Y-109850000D02*
X109914000Y-109850000D01*
X114487258Y-113727500D02*
X114012742Y-113727500D01*
X114487258Y-114772500D02*
X114012742Y-114772500D01*
X94432000Y-83621000D02*
X94432000Y-82291000D01*
X95762000Y-83621000D02*
X94432000Y-83621000D01*
X97032000Y-80961000D02*
X97092000Y-80961000D01*
X97032000Y-83621000D02*
X97032000Y-80961000D01*
X97032000Y-83621000D02*
X97092000Y-83621000D01*
X97092000Y-83621000D02*
X97092000Y-80961000D01*
X95950000Y-111750000D02*
G75*
G02*
X94550000Y-111750000I-700000J0D01*
G01*
X94550000Y-111750000D02*
G75*
G02*
X95950000Y-111750000I700000J0D01*
G01*
X119727500Y-110051258D02*
X119727500Y-109576742D01*
X120772500Y-110051258D02*
X120772500Y-109576742D01*
X109236000Y-101766000D02*
X109236000Y-100366000D01*
X109936000Y-99666000D02*
X110536000Y-99666000D01*
X110536000Y-102466000D02*
X109936000Y-102466000D01*
X111236000Y-100366000D02*
X111236000Y-101766000D01*
X109236000Y-100366000D02*
G75*
G02*
X109936000Y-99666000I700000J0D01*
G01*
X109936000Y-102466000D02*
G75*
G02*
X109236000Y-101766000I-1J699999D01*
G01*
X110536000Y-99666000D02*
G75*
G02*
X111236000Y-100366000I0J-700000D01*
G01*
X111236000Y-101766000D02*
G75*
G02*
X110536000Y-102466000I-699999J-1D01*
G01*
X96708000Y-88224000D02*
G75*
G02*
X94808000Y-88224000I-950000J0D01*
G01*
X94808000Y-88224000D02*
G75*
G02*
X96708000Y-88224000I950000J0D01*
G01*
X98438580Y-110724000D02*
X98157420Y-110724000D01*
X98438580Y-111744000D02*
X98157420Y-111744000D01*
X108359420Y-111490000D02*
X108640580Y-111490000D01*
X108359420Y-112510000D02*
X108640580Y-112510000D01*
X95950000Y-105000000D02*
G75*
G02*
X94550000Y-105000000I-700000J0D01*
G01*
X94550000Y-105000000D02*
G75*
G02*
X95950000Y-105000000I700000J0D01*
G01*
X93234742Y-102433500D02*
X93709258Y-102433500D01*
X93234742Y-103478500D02*
X93709258Y-103478500D01*
X95950000Y-109500000D02*
G75*
G02*
X94550000Y-109500000I-700000J0D01*
G01*
X94550000Y-109500000D02*
G75*
G02*
X95950000Y-109500000I700000J0D01*
G01*
X87000000Y-103690000D02*
X86350000Y-103690000D01*
X87000000Y-103690000D02*
X87650000Y-103690000D01*
X87000000Y-106810000D02*
X86350000Y-106810000D01*
X87000000Y-106810000D02*
X87650000Y-106810000D01*
X85837500Y-103740000D02*
X85597500Y-103410000D01*
X86077500Y-103410000D01*
X85837500Y-103740000D01*
G36*
X85837500Y-103740000D02*
G01*
X85597500Y-103410000D01*
X86077500Y-103410000D01*
X85837500Y-103740000D01*
G37*
X79565000Y-100440000D02*
X79565000Y-104350000D01*
X81435000Y-100440000D02*
X79565000Y-100440000D01*
X81435000Y-104350000D02*
X81435000Y-100440000D01*
X89088000Y-88224000D02*
G75*
G02*
X87188000Y-88224000I-950000J0D01*
G01*
X87188000Y-88224000D02*
G75*
G02*
X89088000Y-88224000I950000J0D01*
G01*
X98242000Y-83621000D02*
X98242000Y-82291000D01*
X99572000Y-83621000D02*
X98242000Y-83621000D01*
X100842000Y-80961000D02*
X100902000Y-80961000D01*
X100842000Y-83621000D02*
X100842000Y-80961000D01*
X100842000Y-83621000D02*
X100902000Y-83621000D01*
X100902000Y-83621000D02*
X100902000Y-80961000D01*
X100518000Y-88224000D02*
G75*
G02*
X98618000Y-88224000I-950000J0D01*
G01*
X98618000Y-88224000D02*
G75*
G02*
X100518000Y-88224000I950000J0D01*
G01*
X122368000Y-98578000D02*
X123698000Y-98578000D01*
X122368000Y-99908000D02*
X122368000Y-98578000D01*
X122368000Y-101178000D02*
X122368000Y-101238000D01*
X122368000Y-101178000D02*
X125028000Y-101178000D01*
X122368000Y-101238000D02*
X125028000Y-101238000D01*
X125028000Y-101178000D02*
X125028000Y-101238000D01*
X93234742Y-98877500D02*
X93709258Y-98877500D01*
X93234742Y-99922500D02*
X93709258Y-99922500D01*
X115758000Y-88224000D02*
G75*
G02*
X113858000Y-88224000I-950000J0D01*
G01*
X113858000Y-88224000D02*
G75*
G02*
X115758000Y-88224000I950000J0D01*
G01*
X117288748Y-102015000D02*
X117811252Y-102015000D01*
X117288748Y-103485000D02*
X117811252Y-103485000D01*
D14*
X104950000Y-102350000D02*
X106150000Y-102350000D01*
D11*
X101713420Y-110724000D02*
X101994580Y-110724000D01*
X101713420Y-111744000D02*
X101994580Y-111744000D01*
X98000000Y-112384000D02*
X98000000Y-115684000D01*
X98000000Y-115684000D02*
X102000000Y-115684000D01*
X90622000Y-83621000D02*
X90622000Y-82291000D01*
X91952000Y-83621000D02*
X90622000Y-83621000D01*
X93222000Y-80961000D02*
X93282000Y-80961000D01*
X93222000Y-83621000D02*
X93222000Y-80961000D01*
X93222000Y-83621000D02*
X93282000Y-83621000D01*
X93282000Y-83621000D02*
X93282000Y-80961000D01*
X77276000Y-101178000D02*
X77276000Y-101238000D01*
X74616000Y-101238000D02*
X77276000Y-101238000D01*
X74616000Y-101178000D02*
X77276000Y-101178000D01*
X74616000Y-101178000D02*
X74616000Y-101238000D01*
X74616000Y-99908000D02*
X74616000Y-98578000D01*
X74616000Y-98578000D02*
X75946000Y-98578000D01*
X122445000Y-115770000D02*
X122445000Y-118370000D01*
X122445000Y-115770000D02*
X125105000Y-115770000D01*
X122445000Y-118370000D02*
X125105000Y-118370000D01*
X123775000Y-113170000D02*
X125105000Y-113170000D01*
X125105000Y-113170000D02*
X125105000Y-114500000D01*
X125105000Y-115770000D02*
X125105000Y-118370000D01*
X118240000Y-111859420D02*
X118240000Y-112140580D01*
X119260000Y-111859420D02*
X119260000Y-112140580D01*
X118768000Y-97234000D02*
X115928000Y-97234000D01*
X118768000Y-99534000D02*
X115928000Y-99534000D01*
X118768000Y-99534000D02*
X118768000Y-98884000D01*
X75200000Y-114324000D02*
X75200000Y-112924000D01*
X75900000Y-112224000D02*
X76500000Y-112224000D01*
X76500000Y-115024000D02*
X75900000Y-115024000D01*
X77200000Y-112924000D02*
X77200000Y-114324000D01*
X75200000Y-112924000D02*
G75*
G02*
X75900000Y-112224000I699999J1D01*
G01*
X75900000Y-115024000D02*
G75*
G02*
X75200000Y-114324000I0J700000D01*
G01*
X76500000Y-112224000D02*
G75*
G02*
X77200000Y-112924000I1J-699999D01*
G01*
X77200000Y-114324000D02*
G75*
G02*
X76500000Y-115024000I-700000J0D01*
G01*
X115000000Y-106390000D02*
X112800000Y-106390000D01*
X115000000Y-106390000D02*
X117200000Y-106390000D01*
X115000000Y-109610000D02*
X112800000Y-109610000D01*
X115000000Y-109610000D02*
X117200000Y-109610000D01*
X112100000Y-106565000D02*
X111860000Y-106235000D01*
X112340000Y-106235000D01*
X112100000Y-106565000D01*
G36*
X112100000Y-106565000D02*
G01*
X111860000Y-106235000D01*
X112340000Y-106235000D01*
X112100000Y-106565000D01*
G37*
X123490000Y-108359420D02*
X123490000Y-108640580D01*
X124510000Y-108359420D02*
X124510000Y-108640580D01*
X108138000Y-88224000D02*
G75*
G02*
X106238000Y-88224000I-950000J0D01*
G01*
X106238000Y-88224000D02*
G75*
G02*
X108138000Y-88224000I950000J0D01*
G01*
X92898000Y-88224000D02*
G75*
G02*
X90998000Y-88224000I-950000J0D01*
G01*
X90998000Y-88224000D02*
G75*
G02*
X92898000Y-88224000I950000J0D01*
G01*
X104328000Y-88224000D02*
G75*
G02*
X102428000Y-88224000I-950000J0D01*
G01*
X102428000Y-88224000D02*
G75*
G02*
X104328000Y-88224000I950000J0D01*
G01*
X113512000Y-80441000D02*
X116112000Y-80441000D01*
X113512000Y-84141000D02*
X113512000Y-80441000D01*
X113512000Y-84141000D02*
X116112000Y-84141000D01*
X116112000Y-80441000D02*
X116112000Y-84141000D01*
X95950000Y-116250000D02*
G75*
G02*
X94550000Y-116250000I-700000J0D01*
G01*
X94550000Y-116250000D02*
G75*
G02*
X95950000Y-116250000I700000J0D01*
G01*
X104262742Y-105227500D02*
X104737258Y-105227500D01*
X104262742Y-106272500D02*
X104737258Y-106272500D01*
X95950000Y-107250000D02*
G75*
G02*
X94550000Y-107250000I-700000J0D01*
G01*
X94550000Y-107250000D02*
G75*
G02*
X95950000Y-107250000I700000J0D01*
G01*
X110765000Y-114988748D02*
X110765000Y-115511252D01*
X112235000Y-114988748D02*
X112235000Y-115511252D01*
X79876000Y-108106000D02*
X79876000Y-107956000D01*
X79876000Y-118276000D02*
X79876000Y-118126000D01*
X89796000Y-107956000D02*
X79876000Y-107956000D01*
X89796000Y-108106000D02*
X89796000Y-107956000D01*
X89796000Y-118276000D02*
X79876000Y-118276000D01*
X89796000Y-118276000D02*
X89796000Y-118126000D01*
X90506000Y-118456000D02*
X90026000Y-118456000D01*
X90266000Y-118126000D01*
X90506000Y-118456000D01*
G36*
X90506000Y-118456000D02*
G01*
X90026000Y-118456000D01*
X90266000Y-118126000D01*
X90506000Y-118456000D01*
G37*
X74645000Y-108730000D02*
X74645000Y-106130000D01*
X74645000Y-111330000D02*
X74645000Y-110000000D01*
X75975000Y-111330000D02*
X74645000Y-111330000D01*
X77305000Y-106130000D02*
X74645000Y-106130000D01*
X77305000Y-108730000D02*
X74645000Y-108730000D01*
X77305000Y-108730000D02*
X77305000Y-106130000D01*
X108697500Y-96737258D02*
X108697500Y-96262742D01*
X109742500Y-96737258D02*
X109742500Y-96262742D01*
X86812000Y-83621000D02*
X86812000Y-82291000D01*
X88142000Y-83621000D02*
X86812000Y-83621000D01*
X89412000Y-80961000D02*
X89472000Y-80961000D01*
X89412000Y-83621000D02*
X89412000Y-80961000D01*
X89412000Y-83621000D02*
X89472000Y-83621000D01*
X89472000Y-83621000D02*
X89472000Y-80961000D01*
X114012742Y-111977500D02*
X114487258Y-111977500D01*
X114012742Y-113022500D02*
X114487258Y-113022500D01*
X75444000Y-81041000D02*
X75444000Y-80041000D01*
X75494000Y-73041000D02*
X75494000Y-78841000D01*
X76444000Y-81041000D02*
X75444000Y-81041000D01*
X77444000Y-72841000D02*
X80044000Y-72841000D01*
X77444000Y-79041000D02*
X80044000Y-79041000D01*
X81994000Y-72941000D02*
X81994000Y-78941000D01*
X108359420Y-113490000D02*
X108640580Y-113490000D01*
X108359420Y-114510000D02*
X108640580Y-114510000D01*
X107152000Y-92750000D02*
X107152000Y-92100000D01*
X107152000Y-92750000D02*
X107152000Y-93400000D01*
X110272000Y-92750000D02*
X110272000Y-92100000D01*
X110272000Y-92750000D02*
X110272000Y-93400000D01*
X107202000Y-93912500D02*
X106872000Y-94152500D01*
X106872000Y-93672500D01*
X107202000Y-93912500D01*
G36*
X107202000Y-93912500D02*
G01*
X106872000Y-94152500D01*
X106872000Y-93672500D01*
X107202000Y-93912500D01*
G37*
X120859420Y-106240000D02*
X121140580Y-106240000D01*
X120859420Y-107260000D02*
X121140580Y-107260000D01*
X121477500Y-109762742D02*
X121477500Y-110237258D01*
X122522500Y-109762742D02*
X122522500Y-110237258D01*
X116727500Y-111762742D02*
X116727500Y-112237258D01*
X117772500Y-111762742D02*
X117772500Y-112237258D01*
X108359420Y-115490000D02*
X108640580Y-115490000D01*
X108359420Y-116510000D02*
X108640580Y-116510000D01*
X102052000Y-83621000D02*
X102052000Y-82291000D01*
X103382000Y-83621000D02*
X102052000Y-83621000D01*
X104652000Y-80961000D02*
X104712000Y-80961000D01*
X104652000Y-83621000D02*
X104652000Y-80961000D01*
X104652000Y-83621000D02*
X104712000Y-83621000D01*
X104712000Y-83621000D02*
X104712000Y-80961000D01*
X109672000Y-83621000D02*
X109672000Y-82291000D01*
X111002000Y-83621000D02*
X109672000Y-83621000D01*
X112272000Y-80961000D02*
X112332000Y-80961000D01*
X112272000Y-83621000D02*
X112272000Y-80961000D01*
X112272000Y-83621000D02*
X112332000Y-83621000D01*
X112332000Y-83621000D02*
X112332000Y-80961000D01*
X117354000Y-81295000D02*
X117354000Y-80295000D01*
X117404000Y-73295000D02*
X117404000Y-79095000D01*
X118354000Y-81295000D02*
X117354000Y-81295000D01*
X119354000Y-73095000D02*
X121954000Y-73095000D01*
X119354000Y-79295000D02*
X121954000Y-79295000D01*
X123904000Y-73195000D02*
X123904000Y-79195000D01*
X107132000Y-74223000D02*
X107132000Y-72893000D01*
X108462000Y-74223000D02*
X107132000Y-74223000D01*
X109732000Y-71563000D02*
X114872000Y-71563000D01*
X109732000Y-74223000D02*
X109732000Y-71563000D01*
X109732000Y-74223000D02*
X114872000Y-74223000D01*
X114872000Y-74223000D02*
X114872000Y-71563000D01*
X111012742Y-104477500D02*
X111487258Y-104477500D01*
X111012742Y-105522500D02*
X111487258Y-105522500D01*
X82340000Y-101570000D02*
X82340000Y-102980000D01*
X83000000Y-102980000D02*
X82340000Y-102980000D01*
X84660000Y-101570000D02*
X84660000Y-102980000D01*
X84660000Y-102980000D02*
X84000000Y-102980000D01*
X84970000Y-101440000D02*
X84640000Y-101200000D01*
X84970000Y-100960000D01*
X84970000Y-101440000D01*
G36*
X84970000Y-101440000D02*
G01*
X84640000Y-101200000D01*
X84970000Y-100960000D01*
X84970000Y-101440000D01*
G37*
X105920000Y-117645000D02*
X107250000Y-117645000D01*
X105920000Y-118975000D02*
X105920000Y-117645000D01*
X108520000Y-117645000D02*
X111120000Y-117645000D01*
X108520000Y-120305000D02*
X108520000Y-117645000D01*
X108520000Y-120305000D02*
X111120000Y-120305000D01*
X111120000Y-120305000D02*
X111120000Y-117645000D01*
X95950000Y-114000000D02*
G75*
G02*
X94550000Y-114000000I-700000J0D01*
G01*
X94550000Y-114000000D02*
G75*
G02*
X95950000Y-114000000I700000J0D01*
G01*
X105862000Y-83621000D02*
X105862000Y-82291000D01*
X107192000Y-83621000D02*
X105862000Y-83621000D01*
X108462000Y-80961000D02*
X108522000Y-80961000D01*
X108462000Y-83621000D02*
X108462000Y-80961000D01*
X108462000Y-83621000D02*
X108522000Y-83621000D01*
X108522000Y-83621000D02*
X108522000Y-80961000D01*
X95950000Y-118500000D02*
G75*
G02*
X94550000Y-118500000I-700000J0D01*
G01*
X94550000Y-118500000D02*
G75*
G02*
X95950000Y-118500000I700000J0D01*
G01*
X117238748Y-104015000D02*
X117761252Y-104015000D01*
X117238748Y-105485000D02*
X117761252Y-105485000D01*
X111948000Y-88224000D02*
G75*
G02*
X110048000Y-88224000I-950000J0D01*
G01*
X110048000Y-88224000D02*
G75*
G02*
X111948000Y-88224000I950000J0D01*
G01*
D14*
X116300000Y-117100000D02*
X116300000Y-117890000D01*
X116300000Y-117890000D02*
X116750000Y-117890000D01*
D15*
X117200000Y-114100000D02*
X117200000Y-114100000D01*
X117300000Y-114100000D02*
X117300000Y-114100000D01*
D14*
X117750000Y-117890000D02*
X118200000Y-117890000D01*
X118200000Y-117890000D02*
X118200000Y-117100000D01*
D15*
X117200000Y-114100000D02*
G75*
G02*
X117300000Y-114100000I50000J0D01*
G01*
X117300000Y-114100000D02*
G75*
G02*
X117200000Y-114100000I-50000J0D01*
G01*
D11*
X98777500Y-107996742D02*
X98777500Y-108471258D01*
X99822500Y-107996742D02*
X99822500Y-108471258D01*
M02*
