%TF.GenerationSoftware,KiCad,Pcbnew,8.0.4*%
%TF.CreationDate,2024-07-20T20:35:12+02:00*%
%TF.ProjectId,pico-HABakuk,7069636f-2d48-4414-9261-6b756b2e6b69,REV1*%
%TF.SameCoordinates,Original*%
%TF.FileFunction,Copper,L2,Bot*%
%TF.FilePolarity,Positive*%
%FSLAX46Y46*%
G04 Gerber Fmt 4.6, Leading zero omitted, Abs format (unit mm)*
G04 Created by KiCad (PCBNEW 8.0.4) date 2024-07-20 20:35:12*
%MOMM*%
%LPD*%
G01*
G04 APERTURE LIST*
%TA.AperFunction,ComponentPad*%
%ADD10O,1.300000X1.800000*%
%TD*%
%TA.AperFunction,ComponentPad*%
%ADD11O,1.050000X1.450000*%
%TD*%
%TA.AperFunction,ComponentPad*%
%ADD12C,0.600000*%
%TD*%
%TA.AperFunction,ComponentPad*%
%ADD13R,1.700000X1.700000*%
%TD*%
%TA.AperFunction,ComponentPad*%
%ADD14C,1.000000*%
%TD*%
%TA.AperFunction,ComponentPad*%
%ADD15O,1.700000X1.700000*%
%TD*%
%TA.AperFunction,ComponentPad*%
%ADD16C,2.200000*%
%TD*%
%TA.AperFunction,ViaPad*%
%ADD17C,0.600000*%
%TD*%
%TA.AperFunction,Conductor*%
%ADD18C,0.600000*%
%TD*%
%TA.AperFunction,Conductor*%
%ADD19C,0.400000*%
%TD*%
%TA.AperFunction,Conductor*%
%ADD20C,0.800000*%
%TD*%
%TA.AperFunction,Conductor*%
%ADD21C,0.200000*%
%TD*%
G04 APERTURE END LIST*
D10*
X104050000Y-72550000D03*
D11*
X103750000Y-75580000D03*
X98900000Y-75580000D03*
D10*
X98600000Y-72550000D03*
D12*
X98725000Y-98725000D03*
X98725000Y-100000000D03*
X98725000Y-101275000D03*
X100000000Y-98725000D03*
X100000000Y-100000000D03*
X100000000Y-101275000D03*
X101275000Y-98725000D03*
X101275000Y-100000000D03*
X101275000Y-101275000D03*
D13*
X95762000Y-82291000D03*
D14*
X95250000Y-111750000D03*
X95250000Y-105000000D03*
X95250000Y-109500000D03*
D13*
X99572000Y-82291000D03*
X123698000Y-99908000D03*
X91952000Y-82291000D03*
X75946000Y-99908000D03*
X123775000Y-114500000D03*
D15*
X123775000Y-117040000D03*
D16*
X114812000Y-82291000D03*
D14*
X95250000Y-116250000D03*
X95250000Y-107250000D03*
D13*
X75975000Y-110000000D03*
D15*
X75975000Y-107460000D03*
D13*
X88142000Y-82291000D03*
X103382000Y-82291000D03*
X111002000Y-82291000D03*
X108462000Y-72893000D03*
D15*
X111002000Y-72893000D03*
X113542000Y-72893000D03*
D13*
X107250000Y-118975000D03*
D15*
X109790000Y-118975000D03*
D14*
X95250000Y-114000000D03*
D13*
X107192000Y-82291000D03*
D14*
X95250000Y-118500000D03*
D17*
X89250000Y-119250000D03*
X86250000Y-92000000D03*
X112250000Y-102250000D03*
X120250000Y-97500000D03*
X109754000Y-76175000D03*
X90500000Y-101250000D03*
X120250000Y-102250000D03*
X114754000Y-76175000D03*
X114500000Y-118500000D03*
X105500000Y-109250000D03*
X98500000Y-105000000D03*
X112254000Y-76175000D03*
X105500000Y-114500000D03*
X79750000Y-119250000D03*
X81750000Y-106000000D03*
X84500000Y-95750000D03*
X115500000Y-110750000D03*
X97500000Y-106000000D03*
X93750000Y-96394000D03*
X113750000Y-110750000D03*
X107254000Y-76175000D03*
X120250000Y-95750000D03*
X97250000Y-105000000D03*
X89750000Y-106000000D03*
X114500000Y-116250000D03*
X107500000Y-102500000D03*
X120250000Y-104500000D03*
X103636000Y-77465000D03*
X83824000Y-77465000D03*
X116500000Y-101250000D03*
X120500000Y-112250000D03*
X99055000Y-93558000D03*
X100700000Y-97900000D03*
X101092000Y-106468000D03*
X100599970Y-102100000D03*
X78744000Y-80005000D03*
X95300000Y-100882000D03*
X90932000Y-100162000D03*
X95147000Y-99250000D03*
X92710000Y-114132000D03*
X95504000Y-98130000D03*
X91692000Y-116416000D03*
X112250000Y-100000000D03*
X112250000Y-98000000D03*
X104750000Y-98750000D03*
X92050000Y-115250000D03*
X97540000Y-78735000D03*
X103750000Y-104000000D03*
X92000000Y-90500000D03*
X115828000Y-78735000D03*
X114750000Y-99750000D03*
X114750000Y-90250000D03*
X108327817Y-99800000D03*
X107250000Y-90250000D03*
X94996000Y-96352000D03*
X94996000Y-93544000D03*
D18*
X112254000Y-76175000D02*
X114754000Y-76175000D01*
X107254000Y-76175000D02*
X109754000Y-76175000D01*
X109754000Y-76175000D02*
X112254000Y-76175000D01*
D19*
X103636000Y-77465000D02*
X83824000Y-77465000D01*
D20*
X116500000Y-101250000D02*
X116500000Y-108250000D01*
X116500000Y-108250000D02*
X120500000Y-112250000D01*
D19*
X100690000Y-97900000D02*
X100700000Y-97900000D01*
X100590000Y-105966000D02*
X101092000Y-106468000D01*
X99055000Y-96265000D02*
X100690000Y-97900000D01*
X99055000Y-93558000D02*
X99055000Y-96265000D01*
X100599970Y-102100000D02*
X100590000Y-102109970D01*
X100590000Y-102109970D02*
X100590000Y-105966000D01*
X95762000Y-82291000D02*
X95762000Y-80767000D01*
X95762000Y-80767000D02*
X95000000Y-80005000D01*
X95000000Y-80005000D02*
X78744000Y-80005000D01*
D21*
X95630000Y-100882000D02*
X96012000Y-100500000D01*
X121532000Y-100550000D02*
X122174000Y-99908000D01*
X95300000Y-100882000D02*
X95630000Y-100882000D01*
X96012000Y-100500000D02*
X96062000Y-100550000D01*
X96062000Y-100550000D02*
X121532000Y-100550000D01*
X122174000Y-99908000D02*
X123698000Y-99908000D01*
X90932000Y-100162000D02*
X90678000Y-99908000D01*
X90678000Y-99908000D02*
X75946000Y-99908000D01*
X93472000Y-113624000D02*
X93472000Y-100925000D01*
X93472000Y-100925000D02*
X95147000Y-99250000D01*
X92964000Y-114132000D02*
X93472000Y-113624000D01*
X92710000Y-114132000D02*
X92964000Y-114132000D01*
X93822000Y-114290000D02*
X93822000Y-101352818D01*
X93822000Y-101352818D02*
X95758000Y-99416818D01*
X95758000Y-98384000D02*
X95504000Y-98130000D01*
X91696000Y-116416000D02*
X93822000Y-114290000D01*
X91692000Y-116416000D02*
X91696000Y-116416000D01*
X95758000Y-99416818D02*
X95758000Y-98384000D01*
X112250000Y-98000000D02*
X112250000Y-100000000D01*
X96500000Y-97250000D02*
X94000000Y-97250000D01*
X96500000Y-97500000D02*
X96500000Y-97250000D01*
X104750000Y-98750000D02*
X102750000Y-98750000D01*
X92000000Y-115250000D02*
X92050000Y-115250000D01*
X92000000Y-114000000D02*
X92000000Y-115250000D01*
X92750000Y-98500000D02*
X92750000Y-113250000D01*
X92750000Y-113250000D02*
X92000000Y-114000000D01*
X94000000Y-97250000D02*
X92750000Y-98500000D01*
X102225000Y-99275000D02*
X98275000Y-99275000D01*
X102750000Y-98750000D02*
X102225000Y-99275000D01*
X98275000Y-99275000D02*
X96500000Y-97500000D01*
X104250000Y-107750000D02*
X103750000Y-108250000D01*
X91500000Y-115341636D02*
X91500000Y-91000000D01*
X91748182Y-117250000D02*
X91000000Y-116501818D01*
X104250000Y-104500000D02*
X104250000Y-107750000D01*
X92000000Y-90250000D02*
X92000000Y-90500000D01*
X103750000Y-109250000D02*
X95750000Y-117250000D01*
D19*
X97540000Y-78735000D02*
X115828000Y-78735000D01*
D21*
X91500000Y-91000000D02*
X92000000Y-90500000D01*
X103750000Y-104000000D02*
X104250000Y-104500000D01*
X95750000Y-117250000D02*
X91748182Y-117250000D01*
X91000000Y-116501818D02*
X91000000Y-115841636D01*
X103750000Y-108250000D02*
X103750000Y-109250000D01*
X91000000Y-115841636D02*
X91500000Y-115341636D01*
X114750000Y-99750000D02*
X114750000Y-90250000D01*
X108327817Y-99800000D02*
X108327817Y-91327817D01*
X108327817Y-91327817D02*
X107250000Y-90250000D01*
X94996000Y-93544000D02*
X94996000Y-96352000D01*
%TA.AperFunction,Conductor*%
G36*
X90392873Y-100228185D02*
G01*
X90438628Y-100280989D01*
X90444809Y-100297559D01*
X90446834Y-100304455D01*
X90506620Y-100435369D01*
X90506623Y-100435373D01*
X90600872Y-100544143D01*
X90721947Y-100621953D01*
X90721950Y-100621954D01*
X90721949Y-100621954D01*
X90860036Y-100662499D01*
X90860038Y-100662500D01*
X90860039Y-100662500D01*
X91003961Y-100662500D01*
X91040566Y-100651752D01*
X91110434Y-100651752D01*
X91169212Y-100689526D01*
X91198238Y-100753081D01*
X91199500Y-100770729D01*
X91199500Y-115165803D01*
X91179815Y-115232842D01*
X91163181Y-115253484D01*
X90759541Y-115657123D01*
X90759535Y-115657131D01*
X90719982Y-115725640D01*
X90719979Y-115725645D01*
X90715844Y-115741078D01*
X90699500Y-115802074D01*
X90699500Y-116541380D01*
X90704076Y-116558456D01*
X90719979Y-116617808D01*
X90719981Y-116617813D01*
X90742294Y-116656460D01*
X90742295Y-116656460D01*
X90759540Y-116686329D01*
X91507722Y-117434511D01*
X91563671Y-117490460D01*
X91563673Y-117490461D01*
X91563677Y-117490464D01*
X91632186Y-117530017D01*
X91632193Y-117530021D01*
X91708620Y-117550500D01*
X91708622Y-117550500D01*
X95789560Y-117550500D01*
X95789562Y-117550500D01*
X95865989Y-117530021D01*
X95934511Y-117490460D01*
X95990460Y-117434511D01*
X103990460Y-109434511D01*
X103990693Y-109434108D01*
X104030021Y-109365989D01*
X104050500Y-109289562D01*
X104050500Y-108425833D01*
X104070185Y-108358794D01*
X104086819Y-108338152D01*
X104261641Y-108163330D01*
X104490460Y-107934511D01*
X104530022Y-107865988D01*
X104550500Y-107789562D01*
X104550500Y-107710438D01*
X104550500Y-104460438D01*
X104550370Y-104459953D01*
X104530022Y-104384012D01*
X104490460Y-104315489D01*
X104289395Y-104114424D01*
X104255910Y-104053101D01*
X104254339Y-104009094D01*
X104255647Y-104000000D01*
X104235165Y-103857543D01*
X104175377Y-103726627D01*
X104081128Y-103617857D01*
X103960053Y-103540047D01*
X103960051Y-103540046D01*
X103960049Y-103540045D01*
X103960050Y-103540045D01*
X103821963Y-103499500D01*
X103821961Y-103499500D01*
X103678039Y-103499500D01*
X103678036Y-103499500D01*
X103539949Y-103540045D01*
X103418873Y-103617856D01*
X103324623Y-103726626D01*
X103324622Y-103726628D01*
X103264834Y-103857543D01*
X103244353Y-104000000D01*
X103264834Y-104142456D01*
X103282717Y-104181613D01*
X103324623Y-104273373D01*
X103418872Y-104382143D01*
X103476637Y-104419266D01*
X103539949Y-104459954D01*
X103647107Y-104491417D01*
X103675280Y-104499690D01*
X103678036Y-104500499D01*
X103678038Y-104500500D01*
X103774167Y-104500500D01*
X103841206Y-104520185D01*
X103861848Y-104536819D01*
X103913181Y-104588152D01*
X103946666Y-104649475D01*
X103949500Y-104675833D01*
X103949500Y-107574167D01*
X103929815Y-107641206D01*
X103913181Y-107661848D01*
X103509541Y-108065487D01*
X103509535Y-108065495D01*
X103469982Y-108134004D01*
X103469979Y-108134009D01*
X103449500Y-108210439D01*
X103449500Y-109074167D01*
X103429815Y-109141206D01*
X103413181Y-109161848D01*
X96158685Y-116416343D01*
X96097362Y-116449828D01*
X96027670Y-116444844D01*
X95971737Y-116402972D01*
X95947320Y-116337508D01*
X95947907Y-116313720D01*
X95955645Y-116250000D01*
X95935140Y-116081128D01*
X95874818Y-115922070D01*
X95871468Y-115917217D01*
X95840476Y-115872318D01*
X95778183Y-115782071D01*
X95650852Y-115669266D01*
X95650849Y-115669263D01*
X95500226Y-115590210D01*
X95335056Y-115549500D01*
X95164944Y-115549500D01*
X94999773Y-115590210D01*
X94849150Y-115669263D01*
X94721816Y-115782072D01*
X94625182Y-115922068D01*
X94564860Y-116081125D01*
X94564859Y-116081130D01*
X94544355Y-116250000D01*
X94564859Y-116418869D01*
X94564860Y-116418874D01*
X94625182Y-116577931D01*
X94721817Y-116717929D01*
X94738472Y-116732684D01*
X94775599Y-116791873D01*
X94774833Y-116861738D01*
X94736416Y-116920098D01*
X94672545Y-116948424D01*
X94656246Y-116949500D01*
X92163498Y-116949500D01*
X92096459Y-116929815D01*
X92050704Y-116877011D01*
X92040760Y-116807853D01*
X92069785Y-116744297D01*
X92092633Y-116717929D01*
X92117377Y-116689373D01*
X92177165Y-116558457D01*
X92197647Y-116416000D01*
X92196842Y-116410402D01*
X92206782Y-116341245D01*
X92231895Y-116305074D01*
X93674896Y-114862075D01*
X94741476Y-114862075D01*
X94865462Y-114928348D01*
X95053969Y-114985531D01*
X95053965Y-114985531D01*
X95250000Y-115004838D01*
X95446032Y-114985531D01*
X95634537Y-114928348D01*
X95758523Y-114862076D01*
X95758523Y-114862075D01*
X95250001Y-114353553D01*
X95250000Y-114353553D01*
X94741476Y-114862075D01*
X93674896Y-114862075D01*
X94062460Y-114474511D01*
X94098534Y-114412028D01*
X94098538Y-114412022D01*
X94102017Y-114405996D01*
X94102017Y-114405995D01*
X94102021Y-114405989D01*
X94102023Y-114405981D01*
X94102584Y-114404628D01*
X94103372Y-114403649D01*
X94106086Y-114398950D01*
X94106818Y-114399372D01*
X94146422Y-114350222D01*
X94212715Y-114328153D01*
X94280415Y-114345428D01*
X94326506Y-114393620D01*
X94387923Y-114508522D01*
X94896447Y-114000000D01*
X94846719Y-113950272D01*
X95000000Y-113950272D01*
X95000000Y-114049728D01*
X95038060Y-114141614D01*
X95108386Y-114211940D01*
X95200272Y-114250000D01*
X95299728Y-114250000D01*
X95391614Y-114211940D01*
X95461940Y-114141614D01*
X95500000Y-114049728D01*
X95500000Y-113999999D01*
X95603553Y-113999999D01*
X95603553Y-114000000D01*
X96112075Y-114508523D01*
X96112076Y-114508523D01*
X96178348Y-114384537D01*
X96235531Y-114196032D01*
X96254838Y-114000000D01*
X96235531Y-113803967D01*
X96178348Y-113615462D01*
X96112075Y-113491476D01*
X95603553Y-113999999D01*
X95500000Y-113999999D01*
X95500000Y-113950272D01*
X95461940Y-113858386D01*
X95391614Y-113788060D01*
X95299728Y-113750000D01*
X95200272Y-113750000D01*
X95108386Y-113788060D01*
X95038060Y-113858386D01*
X95000000Y-113950272D01*
X94846719Y-113950272D01*
X94387923Y-113491476D01*
X94387922Y-113491476D01*
X94355858Y-113551465D01*
X94306896Y-113601309D01*
X94238759Y-113616770D01*
X94173079Y-113592939D01*
X94130710Y-113537381D01*
X94122500Y-113493012D01*
X94122500Y-113137923D01*
X94741476Y-113137923D01*
X95250000Y-113646447D01*
X95250001Y-113646447D01*
X95758522Y-113137923D01*
X95634537Y-113071651D01*
X95446030Y-113014468D01*
X95446034Y-113014468D01*
X95250000Y-112995161D01*
X95053967Y-113014468D01*
X94865466Y-113071649D01*
X94741476Y-113137923D01*
X94122500Y-113137923D01*
X94122500Y-111750000D01*
X94544355Y-111750000D01*
X94564859Y-111918869D01*
X94564860Y-111918874D01*
X94625182Y-112077931D01*
X94687475Y-112168177D01*
X94721817Y-112217929D01*
X94827505Y-112311560D01*
X94849150Y-112330736D01*
X94999773Y-112409789D01*
X94999775Y-112409790D01*
X95164944Y-112450500D01*
X95335056Y-112450500D01*
X95500225Y-112409790D01*
X95579692Y-112368081D01*
X95650849Y-112330736D01*
X95650850Y-112330734D01*
X95650852Y-112330734D01*
X95778183Y-112217929D01*
X95874818Y-112077930D01*
X95935140Y-111918872D01*
X95955645Y-111750000D01*
X95935140Y-111581128D01*
X95874818Y-111422070D01*
X95778183Y-111282071D01*
X95650852Y-111169266D01*
X95650849Y-111169263D01*
X95500226Y-111090210D01*
X95335056Y-111049500D01*
X95164944Y-111049500D01*
X94999773Y-111090210D01*
X94849150Y-111169263D01*
X94721816Y-111282072D01*
X94625182Y-111422068D01*
X94564860Y-111581125D01*
X94564859Y-111581130D01*
X94544355Y-111750000D01*
X94122500Y-111750000D01*
X94122500Y-109500000D01*
X94544355Y-109500000D01*
X94564859Y-109668869D01*
X94564860Y-109668874D01*
X94625182Y-109827931D01*
X94687475Y-109918177D01*
X94721817Y-109967929D01*
X94827505Y-110061560D01*
X94849150Y-110080736D01*
X94999773Y-110159789D01*
X94999775Y-110159790D01*
X95164944Y-110200500D01*
X95335056Y-110200500D01*
X95500225Y-110159790D01*
X95579692Y-110118081D01*
X95650849Y-110080736D01*
X95650850Y-110080734D01*
X95650852Y-110080734D01*
X95778183Y-109967929D01*
X95874818Y-109827930D01*
X95935140Y-109668872D01*
X95955645Y-109500000D01*
X95935140Y-109331128D01*
X95874818Y-109172070D01*
X95867762Y-109161848D01*
X95807240Y-109074167D01*
X95778183Y-109032071D01*
X95650852Y-108919266D01*
X95650849Y-108919263D01*
X95500226Y-108840210D01*
X95335056Y-108799500D01*
X95164944Y-108799500D01*
X94999773Y-108840210D01*
X94849150Y-108919263D01*
X94721816Y-109032072D01*
X94625182Y-109172068D01*
X94564860Y-109331125D01*
X94564859Y-109331130D01*
X94544355Y-109500000D01*
X94122500Y-109500000D01*
X94122500Y-107250000D01*
X94544355Y-107250000D01*
X94564859Y-107418869D01*
X94564860Y-107418874D01*
X94625182Y-107577931D01*
X94683107Y-107661848D01*
X94721817Y-107717929D01*
X94827505Y-107811560D01*
X94849150Y-107830736D01*
X94999773Y-107909789D01*
X94999775Y-107909790D01*
X95164944Y-107950500D01*
X95335056Y-107950500D01*
X95500225Y-107909790D01*
X95583682Y-107865988D01*
X95650849Y-107830736D01*
X95650850Y-107830734D01*
X95650852Y-107830734D01*
X95778183Y-107717929D01*
X95874818Y-107577930D01*
X95935140Y-107418872D01*
X95955645Y-107250000D01*
X95935140Y-107081128D01*
X95874818Y-106922070D01*
X95778183Y-106782071D01*
X95650852Y-106669266D01*
X95650849Y-106669263D01*
X95500226Y-106590210D01*
X95335056Y-106549500D01*
X95164944Y-106549500D01*
X94999773Y-106590210D01*
X94849150Y-106669263D01*
X94721816Y-106782072D01*
X94625182Y-106922068D01*
X94564860Y-107081125D01*
X94564859Y-107081130D01*
X94544355Y-107250000D01*
X94122500Y-107250000D01*
X94122500Y-105000000D01*
X94544355Y-105000000D01*
X94564859Y-105168869D01*
X94564860Y-105168874D01*
X94625182Y-105327931D01*
X94687475Y-105418177D01*
X94721817Y-105467929D01*
X94827505Y-105561560D01*
X94849150Y-105580736D01*
X94999773Y-105659789D01*
X94999775Y-105659790D01*
X95164944Y-105700500D01*
X95335056Y-105700500D01*
X95500225Y-105659790D01*
X95579692Y-105618081D01*
X95650849Y-105580736D01*
X95650850Y-105580734D01*
X95650852Y-105580734D01*
X95778183Y-105467929D01*
X95874818Y-105327930D01*
X95935140Y-105168872D01*
X95955645Y-105000000D01*
X95935140Y-104831128D01*
X95923524Y-104800500D01*
X95874817Y-104672068D01*
X95781460Y-104536819D01*
X95778183Y-104532071D01*
X95650852Y-104419266D01*
X95650849Y-104419263D01*
X95500226Y-104340210D01*
X95335056Y-104299500D01*
X95164944Y-104299500D01*
X94999773Y-104340210D01*
X94849150Y-104419263D01*
X94721816Y-104532072D01*
X94625182Y-104672068D01*
X94564860Y-104831125D01*
X94564859Y-104831130D01*
X94544355Y-105000000D01*
X94122500Y-105000000D01*
X94122500Y-102100000D01*
X100094323Y-102100000D01*
X100114804Y-102242456D01*
X100178277Y-102381440D01*
X100174708Y-102383069D01*
X100189496Y-102432001D01*
X100189500Y-102432978D01*
X100189500Y-106018726D01*
X100216793Y-106120589D01*
X100243156Y-106166250D01*
X100269520Y-106211913D01*
X100269522Y-106211915D01*
X100567369Y-106509762D01*
X100600854Y-106571085D01*
X100602426Y-106579795D01*
X100603923Y-106590210D01*
X100606835Y-106610457D01*
X100666623Y-106741373D01*
X100760872Y-106850143D01*
X100881947Y-106927953D01*
X100881950Y-106927954D01*
X100881949Y-106927954D01*
X101020036Y-106968499D01*
X101020038Y-106968500D01*
X101020039Y-106968500D01*
X101163962Y-106968500D01*
X101163962Y-106968499D01*
X101302053Y-106927953D01*
X101423128Y-106850143D01*
X101517377Y-106741373D01*
X101577165Y-106610457D01*
X101597647Y-106468000D01*
X101577165Y-106325543D01*
X101517377Y-106194627D01*
X101423128Y-106085857D01*
X101388581Y-106063655D01*
X101302051Y-106008045D01*
X101185736Y-105973893D01*
X101132990Y-105942597D01*
X101026819Y-105836426D01*
X100993334Y-105775103D01*
X100990500Y-105748745D01*
X100990500Y-102459837D01*
X101010185Y-102392798D01*
X101020786Y-102378636D01*
X101025347Y-102373373D01*
X101085135Y-102242457D01*
X101105617Y-102100000D01*
X101085135Y-101957543D01*
X101025347Y-101826627D01*
X100931098Y-101717857D01*
X100810023Y-101640047D01*
X100810021Y-101640046D01*
X100810019Y-101640045D01*
X100810020Y-101640045D01*
X100671933Y-101599500D01*
X100671931Y-101599500D01*
X100528009Y-101599500D01*
X100528006Y-101599500D01*
X100389919Y-101640045D01*
X100268843Y-101717856D01*
X100174593Y-101826626D01*
X100174592Y-101826628D01*
X100114804Y-101957543D01*
X100094323Y-102100000D01*
X94122500Y-102100000D01*
X94122500Y-101528650D01*
X94142185Y-101461611D01*
X94158815Y-101440973D01*
X94613465Y-100986322D01*
X94674786Y-100952839D01*
X94744477Y-100957823D01*
X94800411Y-100999694D01*
X94813938Y-101022493D01*
X94814835Y-101024457D01*
X94874623Y-101155373D01*
X94968872Y-101264143D01*
X95089947Y-101341953D01*
X95089950Y-101341954D01*
X95089949Y-101341954D01*
X95228036Y-101382499D01*
X95228038Y-101382500D01*
X95228039Y-101382500D01*
X95371962Y-101382500D01*
X95371962Y-101382499D01*
X95510053Y-101341953D01*
X95631128Y-101264143D01*
X95686745Y-101199955D01*
X95738992Y-101166377D01*
X95738477Y-101165133D01*
X95745377Y-101162274D01*
X95745520Y-101162183D01*
X95745763Y-101162114D01*
X95745991Y-101162020D01*
X95814504Y-101122464D01*
X95814503Y-101122464D01*
X95814511Y-101122460D01*
X95870460Y-101066511D01*
X96050152Y-100886819D01*
X96111475Y-100853334D01*
X96137833Y-100850500D01*
X115824314Y-100850500D01*
X115891353Y-100870185D01*
X115937108Y-100922989D01*
X115947052Y-100992147D01*
X115942087Y-101010247D01*
X115942527Y-101010365D01*
X115940423Y-101018214D01*
X115940423Y-101018216D01*
X115903672Y-101155373D01*
X115899500Y-101170943D01*
X115899500Y-108163330D01*
X115899499Y-108163348D01*
X115899499Y-108329054D01*
X115899498Y-108329054D01*
X115940422Y-108481782D01*
X115940425Y-108481790D01*
X115945432Y-108490461D01*
X115945434Y-108490464D01*
X116019477Y-108618712D01*
X116019481Y-108618717D01*
X116138349Y-108737585D01*
X116138355Y-108737590D01*
X120131284Y-112730519D01*
X120268215Y-112809577D01*
X120420942Y-112850500D01*
X120420944Y-112850500D01*
X120579055Y-112850500D01*
X120579057Y-112850500D01*
X120731784Y-112809577D01*
X120868716Y-112730519D01*
X120980519Y-112618716D01*
X121059577Y-112481784D01*
X121100500Y-112329057D01*
X121100500Y-112170942D01*
X121059577Y-112018215D01*
X120980519Y-111881284D01*
X117136819Y-108037584D01*
X117103334Y-107976261D01*
X117100500Y-107949903D01*
X117100500Y-101170945D01*
X117100500Y-101170943D01*
X117059577Y-101018216D01*
X117059576Y-101018214D01*
X117057473Y-101010365D01*
X117059809Y-101009739D01*
X117053658Y-100952472D01*
X117084939Y-100889996D01*
X117145031Y-100854349D01*
X117175686Y-100850500D01*
X121571560Y-100850500D01*
X121571562Y-100850500D01*
X121647989Y-100830021D01*
X121716511Y-100790460D01*
X121772460Y-100734511D01*
X122262152Y-100244819D01*
X122323475Y-100211334D01*
X122349833Y-100208500D01*
X122523500Y-100208500D01*
X122590539Y-100228185D01*
X122636294Y-100280989D01*
X122647500Y-100332500D01*
X122647500Y-100777752D01*
X122659131Y-100836229D01*
X122659132Y-100836230D01*
X122703445Y-100902549D01*
X122712082Y-100911185D01*
X122709250Y-100914016D01*
X122739694Y-100950442D01*
X122750000Y-100999936D01*
X122750000Y-102219189D01*
X122730315Y-102286228D01*
X122682296Y-102329673D01*
X122568388Y-102387713D01*
X122402786Y-102508028D01*
X122258028Y-102652786D01*
X122137715Y-102818386D01*
X122044781Y-103000776D01*
X121981522Y-103195465D01*
X121949500Y-103397648D01*
X121949500Y-103602351D01*
X121981522Y-103804534D01*
X122044781Y-103999223D01*
X122137715Y-104181613D01*
X122258028Y-104347213D01*
X122402786Y-104491971D01*
X122568385Y-104612284D01*
X122568387Y-104612285D01*
X122568390Y-104612287D01*
X122682296Y-104670325D01*
X122733091Y-104718298D01*
X122750000Y-104780809D01*
X122750000Y-113513625D01*
X122740562Y-113561076D01*
X122736131Y-113571771D01*
X122724500Y-113630247D01*
X122724500Y-115369752D01*
X122736131Y-115428229D01*
X122740560Y-115438919D01*
X122750000Y-115486374D01*
X122750000Y-120126000D01*
X122730315Y-120193039D01*
X122677511Y-120238794D01*
X122626000Y-120250000D01*
X110716041Y-120250000D01*
X110649002Y-120230315D01*
X110603247Y-120177511D01*
X110593303Y-120108353D01*
X110622328Y-120044797D01*
X110644917Y-120024426D01*
X110661078Y-120013109D01*
X110828105Y-119846082D01*
X110963600Y-119652578D01*
X111063429Y-119438492D01*
X111063432Y-119438486D01*
X111120636Y-119225000D01*
X110223012Y-119225000D01*
X110255925Y-119167993D01*
X110290000Y-119040826D01*
X110290000Y-118909174D01*
X110255925Y-118782007D01*
X110223012Y-118725000D01*
X111120636Y-118725000D01*
X111120635Y-118724999D01*
X111063432Y-118511513D01*
X111063429Y-118511507D01*
X110963600Y-118297422D01*
X110963599Y-118297420D01*
X110828113Y-118103926D01*
X110828108Y-118103920D01*
X110661082Y-117936894D01*
X110467578Y-117801399D01*
X110253492Y-117701570D01*
X110253486Y-117701567D01*
X110040000Y-117644364D01*
X110040000Y-118541988D01*
X109982993Y-118509075D01*
X109855826Y-118475000D01*
X109724174Y-118475000D01*
X109597007Y-118509075D01*
X109540000Y-118541988D01*
X109540000Y-117644364D01*
X109539999Y-117644364D01*
X109326513Y-117701567D01*
X109326507Y-117701570D01*
X109112422Y-117801399D01*
X109112420Y-117801400D01*
X108918926Y-117936886D01*
X108918920Y-117936891D01*
X108751891Y-118103920D01*
X108751886Y-118103926D01*
X108616400Y-118297420D01*
X108616399Y-118297422D01*
X108536882Y-118467948D01*
X108490710Y-118520387D01*
X108423516Y-118539539D01*
X108356635Y-118519323D01*
X108311300Y-118466158D01*
X108300500Y-118415543D01*
X108300500Y-118105249D01*
X108300499Y-118105247D01*
X108288868Y-118046770D01*
X108288867Y-118046769D01*
X108244552Y-117980447D01*
X108178230Y-117936132D01*
X108178229Y-117936131D01*
X108119752Y-117924500D01*
X108119748Y-117924500D01*
X106380252Y-117924500D01*
X106380247Y-117924500D01*
X106321770Y-117936131D01*
X106321769Y-117936132D01*
X106255447Y-117980447D01*
X106211132Y-118046769D01*
X106211131Y-118046770D01*
X106199500Y-118105247D01*
X106199500Y-119844752D01*
X106211131Y-119903229D01*
X106211132Y-119903230D01*
X106255447Y-119969552D01*
X106331923Y-120020652D01*
X106330318Y-120023052D01*
X106370312Y-120055282D01*
X106392375Y-120121577D01*
X106375094Y-120189276D01*
X106323956Y-120236885D01*
X106268454Y-120250000D01*
X77874000Y-120250000D01*
X77806961Y-120230315D01*
X77761206Y-120177511D01*
X77750000Y-120126000D01*
X77750000Y-118500000D01*
X94544355Y-118500000D01*
X94564859Y-118668869D01*
X94564860Y-118668874D01*
X94625182Y-118827931D01*
X94681261Y-118909174D01*
X94721817Y-118967929D01*
X94804101Y-119040826D01*
X94849150Y-119080736D01*
X94985906Y-119152511D01*
X94999775Y-119159790D01*
X95164944Y-119200500D01*
X95335056Y-119200500D01*
X95500225Y-119159790D01*
X95612239Y-119101000D01*
X95650849Y-119080736D01*
X95650850Y-119080734D01*
X95650852Y-119080734D01*
X95778183Y-118967929D01*
X95874818Y-118827930D01*
X95935140Y-118668872D01*
X95955645Y-118500000D01*
X95935140Y-118331128D01*
X95874818Y-118172070D01*
X95778183Y-118032071D01*
X95650852Y-117919266D01*
X95650849Y-117919263D01*
X95500226Y-117840210D01*
X95335056Y-117799500D01*
X95164944Y-117799500D01*
X94999773Y-117840210D01*
X94849150Y-117919263D01*
X94721816Y-118032072D01*
X94625182Y-118172068D01*
X94564860Y-118331125D01*
X94564859Y-118331130D01*
X94544355Y-118500000D01*
X77750000Y-118500000D01*
X77750000Y-103881039D01*
X77756069Y-103842721D01*
X77768477Y-103804534D01*
X77800500Y-103602352D01*
X77800500Y-103397648D01*
X77768477Y-103195466D01*
X77756069Y-103157277D01*
X77750000Y-103118959D01*
X77750000Y-100332500D01*
X77769685Y-100265461D01*
X77822489Y-100219706D01*
X77874000Y-100208500D01*
X90325834Y-100208500D01*
X90392873Y-100228185D01*
G37*
%TD.AperFunction*%
%TA.AperFunction,Conductor*%
G36*
X122693039Y-87019685D02*
G01*
X122738794Y-87072489D01*
X122750000Y-87124000D01*
X122750000Y-98816064D01*
X122730315Y-98883103D01*
X122710521Y-98903256D01*
X122712081Y-98904816D01*
X122703445Y-98913450D01*
X122659132Y-98979769D01*
X122659131Y-98979770D01*
X122647500Y-99038247D01*
X122647500Y-99483500D01*
X122627815Y-99550539D01*
X122575011Y-99596294D01*
X122523500Y-99607500D01*
X122134438Y-99607500D01*
X122095786Y-99617857D01*
X122058010Y-99627979D01*
X122032411Y-99642758D01*
X121999951Y-99661500D01*
X121997258Y-99663055D01*
X121989485Y-99667542D01*
X121989484Y-99667543D01*
X121443848Y-100213181D01*
X121382525Y-100246666D01*
X121356167Y-100249500D01*
X115250959Y-100249500D01*
X115183920Y-100229815D01*
X115138165Y-100177011D01*
X115128221Y-100107853D01*
X115157246Y-100044297D01*
X115175377Y-100023373D01*
X115235165Y-99892457D01*
X115255647Y-99750000D01*
X115235165Y-99607543D01*
X115175377Y-99476627D01*
X115175375Y-99476625D01*
X115175374Y-99476622D01*
X115080787Y-99367462D01*
X115051762Y-99303906D01*
X115050500Y-99286260D01*
X115050500Y-90713738D01*
X115070185Y-90646699D01*
X115080787Y-90632535D01*
X115081124Y-90632144D01*
X115081128Y-90632143D01*
X115175377Y-90523373D01*
X115235165Y-90392457D01*
X115255647Y-90250000D01*
X115235165Y-90107543D01*
X115175377Y-89976627D01*
X115081128Y-89867857D01*
X114960053Y-89790047D01*
X114960051Y-89790046D01*
X114960049Y-89790045D01*
X114960050Y-89790045D01*
X114821963Y-89749500D01*
X114821961Y-89749500D01*
X114678039Y-89749500D01*
X114678036Y-89749500D01*
X114539949Y-89790045D01*
X114418873Y-89867856D01*
X114324623Y-89976626D01*
X114324622Y-89976628D01*
X114264834Y-90107543D01*
X114244353Y-90250000D01*
X114264834Y-90392456D01*
X114313949Y-90500000D01*
X114324623Y-90523373D01*
X114418872Y-90632143D01*
X114418875Y-90632144D01*
X114419213Y-90632535D01*
X114448238Y-90696091D01*
X114449500Y-90713738D01*
X114449500Y-99286260D01*
X114429815Y-99353299D01*
X114419213Y-99367462D01*
X114324625Y-99476622D01*
X114324622Y-99476628D01*
X114264834Y-99607543D01*
X114244353Y-99750000D01*
X114264834Y-99892456D01*
X114287669Y-99942456D01*
X114324623Y-100023373D01*
X114342754Y-100044297D01*
X114371779Y-100107853D01*
X114361835Y-100177011D01*
X114316081Y-100229815D01*
X114249041Y-100249500D01*
X112862878Y-100249500D01*
X112795839Y-100229815D01*
X112750084Y-100177011D01*
X112740140Y-100107853D01*
X112745009Y-100073988D01*
X112755647Y-100000000D01*
X112735165Y-99857543D01*
X112675377Y-99726627D01*
X112675375Y-99726625D01*
X112675374Y-99726622D01*
X112580787Y-99617462D01*
X112551762Y-99553906D01*
X112550500Y-99536260D01*
X112550500Y-98463738D01*
X112570185Y-98396699D01*
X112580787Y-98382535D01*
X112581124Y-98382144D01*
X112581128Y-98382143D01*
X112675377Y-98273373D01*
X112735165Y-98142457D01*
X112755647Y-98000000D01*
X112735165Y-97857543D01*
X112675377Y-97726627D01*
X112581128Y-97617857D01*
X112460053Y-97540047D01*
X112460051Y-97540046D01*
X112460049Y-97540045D01*
X112460050Y-97540045D01*
X112321963Y-97499500D01*
X112321961Y-97499500D01*
X112178039Y-97499500D01*
X112178036Y-97499500D01*
X112039949Y-97540045D01*
X111918873Y-97617856D01*
X111824623Y-97726626D01*
X111824622Y-97726628D01*
X111764834Y-97857543D01*
X111744353Y-98000000D01*
X111764834Y-98142456D01*
X111822173Y-98268009D01*
X111824623Y-98273373D01*
X111918872Y-98382143D01*
X111918875Y-98382144D01*
X111919213Y-98382535D01*
X111948238Y-98446091D01*
X111949500Y-98463738D01*
X111949500Y-99536260D01*
X111929815Y-99603299D01*
X111919213Y-99617462D01*
X111824625Y-99726622D01*
X111824622Y-99726628D01*
X111764834Y-99857543D01*
X111752626Y-99942456D01*
X111744353Y-100000000D01*
X111754902Y-100073373D01*
X111759860Y-100107853D01*
X111749916Y-100177011D01*
X111704161Y-100229815D01*
X111637122Y-100249500D01*
X108865707Y-100249500D01*
X108798668Y-100229815D01*
X108752913Y-100177011D01*
X108742969Y-100107853D01*
X108752913Y-100073988D01*
X108776029Y-100023371D01*
X108812982Y-99942457D01*
X108833464Y-99800000D01*
X108812982Y-99657543D01*
X108753194Y-99526627D01*
X108753192Y-99526625D01*
X108753191Y-99526622D01*
X108658604Y-99417462D01*
X108629579Y-99353906D01*
X108628317Y-99336260D01*
X108628317Y-91288256D01*
X108607837Y-91211826D01*
X108607834Y-91211821D01*
X108568281Y-91143312D01*
X108568275Y-91143304D01*
X107789395Y-90364424D01*
X107755910Y-90303101D01*
X107754339Y-90259094D01*
X107755647Y-90250000D01*
X107735165Y-90107543D01*
X107675377Y-89976627D01*
X107581128Y-89867857D01*
X107460053Y-89790047D01*
X107460051Y-89790046D01*
X107460049Y-89790045D01*
X107460050Y-89790045D01*
X107321963Y-89749500D01*
X107321961Y-89749500D01*
X107178039Y-89749500D01*
X107178036Y-89749500D01*
X107039949Y-89790045D01*
X106918873Y-89867856D01*
X106824623Y-89976626D01*
X106824622Y-89976628D01*
X106764834Y-90107543D01*
X106744353Y-90250000D01*
X106764834Y-90392456D01*
X106813949Y-90500000D01*
X106824623Y-90523373D01*
X106918872Y-90632143D01*
X107039947Y-90709953D01*
X107039950Y-90709954D01*
X107039949Y-90709954D01*
X107147107Y-90741417D01*
X107175280Y-90749690D01*
X107178036Y-90750499D01*
X107178038Y-90750500D01*
X107274167Y-90750500D01*
X107341206Y-90770185D01*
X107361848Y-90786819D01*
X107990998Y-91415969D01*
X108024483Y-91477292D01*
X108027317Y-91503650D01*
X108027317Y-99336260D01*
X108007632Y-99403299D01*
X107997030Y-99417462D01*
X107902442Y-99526622D01*
X107902439Y-99526628D01*
X107842651Y-99657543D01*
X107822170Y-99800000D01*
X107842651Y-99942456D01*
X107902721Y-100073988D01*
X107912665Y-100143147D01*
X107883640Y-100206702D01*
X107824862Y-100244477D01*
X107789927Y-100249500D01*
X96212348Y-100249500D01*
X96150348Y-100232887D01*
X96127991Y-100219979D01*
X96127988Y-100219978D01*
X96051562Y-100199500D01*
X95972438Y-100199500D01*
X95896010Y-100219978D01*
X95827489Y-100259539D01*
X95675026Y-100412002D01*
X95613702Y-100445486D01*
X95544011Y-100440501D01*
X95520307Y-100428637D01*
X95510053Y-100422047D01*
X95510051Y-100422046D01*
X95510049Y-100422045D01*
X95453694Y-100405498D01*
X95394915Y-100367724D01*
X95365890Y-100304168D01*
X95375833Y-100235010D01*
X95400944Y-100198844D01*
X95998460Y-99601329D01*
X96000077Y-99598528D01*
X96038021Y-99532807D01*
X96058500Y-99456380D01*
X96058500Y-98344438D01*
X96038021Y-98268011D01*
X96020875Y-98238314D01*
X96004402Y-98170416D01*
X96005523Y-98158676D01*
X96009647Y-98130000D01*
X95989165Y-97987543D01*
X95929377Y-97856627D01*
X95841925Y-97755701D01*
X95812901Y-97692147D01*
X95822845Y-97622988D01*
X95868600Y-97570184D01*
X95935639Y-97550500D01*
X96110578Y-97550500D01*
X96177617Y-97570185D01*
X96217968Y-97612505D01*
X96224020Y-97622989D01*
X96226121Y-97626627D01*
X96259540Y-97684511D01*
X98034540Y-99459511D01*
X98090489Y-99515460D01*
X98090491Y-99515461D01*
X98090495Y-99515464D01*
X98151248Y-99550539D01*
X98159011Y-99555021D01*
X98235438Y-99575500D01*
X98235440Y-99575500D01*
X102264560Y-99575500D01*
X102264562Y-99575500D01*
X102340989Y-99555021D01*
X102409511Y-99515460D01*
X102465460Y-99459511D01*
X102838152Y-99086819D01*
X102899475Y-99053334D01*
X102925833Y-99050500D01*
X104291499Y-99050500D01*
X104358538Y-99070185D01*
X104385211Y-99093296D01*
X104418872Y-99132143D01*
X104539947Y-99209953D01*
X104539950Y-99209954D01*
X104539949Y-99209954D01*
X104647107Y-99241417D01*
X104676336Y-99250000D01*
X104678036Y-99250499D01*
X104678038Y-99250500D01*
X104678039Y-99250500D01*
X104821962Y-99250500D01*
X104821962Y-99250499D01*
X104960053Y-99209953D01*
X105081128Y-99132143D01*
X105175377Y-99023373D01*
X105235165Y-98892457D01*
X105255647Y-98750000D01*
X105235165Y-98607543D01*
X105175377Y-98476627D01*
X105081128Y-98367857D01*
X104960053Y-98290047D01*
X104960051Y-98290046D01*
X104960049Y-98290045D01*
X104960050Y-98290045D01*
X104821963Y-98249500D01*
X104821961Y-98249500D01*
X104678039Y-98249500D01*
X104678036Y-98249500D01*
X104539949Y-98290045D01*
X104418873Y-98367856D01*
X104418872Y-98367856D01*
X104418872Y-98367857D01*
X104404875Y-98384011D01*
X104385212Y-98406703D01*
X104326433Y-98444477D01*
X104291499Y-98449500D01*
X102710438Y-98449500D01*
X102634011Y-98469979D01*
X102619200Y-98478530D01*
X102565492Y-98509537D01*
X102565487Y-98509541D01*
X102136848Y-98938181D01*
X102075525Y-98971666D01*
X102049167Y-98974500D01*
X98450833Y-98974500D01*
X98383794Y-98954815D01*
X98363152Y-98938181D01*
X96836819Y-97411848D01*
X96803334Y-97350525D01*
X96800500Y-97324167D01*
X96800500Y-97210439D01*
X96780020Y-97134009D01*
X96780017Y-97134004D01*
X96740464Y-97065495D01*
X96740458Y-97065487D01*
X96684512Y-97009541D01*
X96684504Y-97009535D01*
X96615995Y-96969982D01*
X96615990Y-96969979D01*
X96590513Y-96963152D01*
X96539562Y-96949500D01*
X95411049Y-96949500D01*
X95344010Y-96929815D01*
X95298255Y-96877011D01*
X95288311Y-96807853D01*
X95317336Y-96744297D01*
X95324773Y-96736859D01*
X95327124Y-96734145D01*
X95327128Y-96734143D01*
X95421377Y-96625373D01*
X95481165Y-96494457D01*
X95501647Y-96352000D01*
X95481165Y-96209543D01*
X95421377Y-96078627D01*
X95421375Y-96078625D01*
X95421374Y-96078622D01*
X95326787Y-95969462D01*
X95297762Y-95905906D01*
X95296500Y-95888260D01*
X95296500Y-94007738D01*
X95316185Y-93940699D01*
X95326787Y-93926535D01*
X95327124Y-93926144D01*
X95327128Y-93926143D01*
X95421377Y-93817373D01*
X95481165Y-93686457D01*
X95499634Y-93558000D01*
X98549353Y-93558000D01*
X98569834Y-93700456D01*
X98609123Y-93786485D01*
X98629623Y-93831373D01*
X98629627Y-93831378D01*
X98634418Y-93838833D01*
X98631364Y-93840795D01*
X98653235Y-93888663D01*
X98654500Y-93906332D01*
X98654500Y-96317726D01*
X98681793Y-96419589D01*
X98708156Y-96465250D01*
X98734520Y-96510913D01*
X98734522Y-96510915D01*
X100177048Y-97953441D01*
X100210533Y-98014764D01*
X100212105Y-98023472D01*
X100214834Y-98042454D01*
X100214835Y-98042458D01*
X100274622Y-98173371D01*
X100274623Y-98173373D01*
X100368872Y-98282143D01*
X100489947Y-98359953D01*
X100489950Y-98359954D01*
X100489949Y-98359954D01*
X100628036Y-98400499D01*
X100628038Y-98400500D01*
X100628039Y-98400500D01*
X100771962Y-98400500D01*
X100771962Y-98400499D01*
X100910053Y-98359953D01*
X101031128Y-98282143D01*
X101125377Y-98173373D01*
X101185165Y-98042457D01*
X101205647Y-97900000D01*
X101185165Y-97757543D01*
X101125377Y-97626627D01*
X101031128Y-97517857D01*
X100996581Y-97495655D01*
X100910051Y-97440045D01*
X100779579Y-97401736D01*
X100726833Y-97370440D01*
X99491819Y-96135426D01*
X99458334Y-96074103D01*
X99455500Y-96047745D01*
X99455500Y-93906332D01*
X99475185Y-93839293D01*
X99475901Y-93838336D01*
X99480368Y-93831382D01*
X99480377Y-93831373D01*
X99540165Y-93700457D01*
X99560647Y-93558000D01*
X99540165Y-93415543D01*
X99480377Y-93284627D01*
X99386128Y-93175857D01*
X99265053Y-93098047D01*
X99265051Y-93098046D01*
X99265049Y-93098045D01*
X99265050Y-93098045D01*
X99126963Y-93057500D01*
X99126961Y-93057500D01*
X98983039Y-93057500D01*
X98983036Y-93057500D01*
X98844949Y-93098045D01*
X98723873Y-93175856D01*
X98629623Y-93284626D01*
X98629622Y-93284628D01*
X98569834Y-93415543D01*
X98549353Y-93558000D01*
X95499634Y-93558000D01*
X95501647Y-93544000D01*
X95481165Y-93401543D01*
X95421377Y-93270627D01*
X95327128Y-93161857D01*
X95206053Y-93084047D01*
X95206051Y-93084046D01*
X95206049Y-93084045D01*
X95206050Y-93084045D01*
X95067963Y-93043500D01*
X95067961Y-93043500D01*
X94924039Y-93043500D01*
X94924036Y-93043500D01*
X94785949Y-93084045D01*
X94664873Y-93161856D01*
X94570623Y-93270626D01*
X94570622Y-93270628D01*
X94510834Y-93401543D01*
X94490353Y-93544000D01*
X94510834Y-93686456D01*
X94570622Y-93817371D01*
X94570623Y-93817373D01*
X94664872Y-93926143D01*
X94664875Y-93926144D01*
X94665213Y-93926535D01*
X94694238Y-93990091D01*
X94695500Y-94007738D01*
X94695500Y-95888260D01*
X94675815Y-95955299D01*
X94665213Y-95969462D01*
X94570625Y-96078622D01*
X94570622Y-96078628D01*
X94510834Y-96209543D01*
X94490353Y-96352000D01*
X94510834Y-96494456D01*
X94518350Y-96510913D01*
X94570623Y-96625373D01*
X94664872Y-96734143D01*
X94664873Y-96734143D01*
X94670680Y-96740845D01*
X94668942Y-96742350D01*
X94699927Y-96790563D01*
X94699929Y-96860432D01*
X94662156Y-96919211D01*
X94598601Y-96948237D01*
X94580951Y-96949500D01*
X93960438Y-96949500D01*
X93922224Y-96959739D01*
X93884009Y-96969979D01*
X93884004Y-96969982D01*
X93815495Y-97009535D01*
X93815487Y-97009541D01*
X92509541Y-98315487D01*
X92509535Y-98315495D01*
X92469982Y-98384004D01*
X92469979Y-98384009D01*
X92449500Y-98460439D01*
X92449500Y-113074167D01*
X92429815Y-113141206D01*
X92413181Y-113161848D01*
X92012181Y-113562848D01*
X91950858Y-113596333D01*
X91881166Y-113591349D01*
X91825233Y-113549477D01*
X91800816Y-113484013D01*
X91800500Y-113475167D01*
X91800500Y-91175833D01*
X91820185Y-91108794D01*
X91836819Y-91088152D01*
X91888152Y-91036819D01*
X91949475Y-91003334D01*
X91975833Y-91000500D01*
X92071962Y-91000500D01*
X92071962Y-91000499D01*
X92208398Y-90960439D01*
X92210050Y-90959954D01*
X92210050Y-90959953D01*
X92210053Y-90959953D01*
X92331128Y-90882143D01*
X92425377Y-90773373D01*
X92485165Y-90642457D01*
X92505647Y-90500000D01*
X92485165Y-90357543D01*
X92425377Y-90226627D01*
X92331128Y-90117857D01*
X92235158Y-90056181D01*
X92214520Y-90039549D01*
X92184512Y-90009541D01*
X92184504Y-90009535D01*
X92115995Y-89969982D01*
X92115990Y-89969979D01*
X92090513Y-89963152D01*
X92039562Y-89949500D01*
X91960438Y-89949500D01*
X91922224Y-89959739D01*
X91884009Y-89969979D01*
X91884004Y-89969982D01*
X91815496Y-90009535D01*
X91815490Y-90009539D01*
X91785477Y-90039551D01*
X91764839Y-90056182D01*
X91668870Y-90117858D01*
X91668866Y-90117862D01*
X91574625Y-90226622D01*
X91574622Y-90226628D01*
X91514834Y-90357543D01*
X91494353Y-90500000D01*
X91494353Y-90500001D01*
X91495661Y-90509103D01*
X91485713Y-90578261D01*
X91460603Y-90614424D01*
X91315489Y-90759540D01*
X91259541Y-90815487D01*
X91259535Y-90815495D01*
X91219982Y-90884004D01*
X91219979Y-90884009D01*
X91199500Y-90960439D01*
X91199500Y-99553270D01*
X91179815Y-99620309D01*
X91127011Y-99666064D01*
X91057853Y-99676008D01*
X91040567Y-99672248D01*
X91003961Y-99661500D01*
X90885275Y-99661500D01*
X90823274Y-99644887D01*
X90793989Y-99627979D01*
X90717562Y-99607500D01*
X77874000Y-99607500D01*
X77806961Y-99587815D01*
X77761206Y-99535011D01*
X77750000Y-99483500D01*
X77750000Y-87124000D01*
X77769685Y-87056961D01*
X77822489Y-87011206D01*
X77874000Y-87000000D01*
X122626000Y-87000000D01*
X122693039Y-87019685D01*
G37*
%TD.AperFunction*%
M02*
