%TF.GenerationSoftware,KiCad,Pcbnew,8.0.4*%
%TF.CreationDate,2024-07-20T20:35:12+02:00*%
%TF.ProjectId,pico-HABakuk,7069636f-2d48-4414-9261-6b756b2e6b69,REV1*%
%TF.SameCoordinates,Original*%
%TF.FileFunction,Paste,Top*%
%TF.FilePolarity,Positive*%
%FSLAX46Y46*%
G04 Gerber Fmt 4.6, Leading zero omitted, Abs format (unit mm)*
G04 Created by KiCad (PCBNEW 8.0.4) date 2024-07-20 20:35:12*
%MOMM*%
%LPD*%
G01*
G04 APERTURE LIST*
G04 Aperture macros list*
%AMRoundRect*
0 Rectangle with rounded corners*
0 $1 Rounding radius*
0 $2 $3 $4 $5 $6 $7 $8 $9 X,Y pos of 4 corners*
0 Add a 4 corners polygon primitive as box body*
4,1,4,$2,$3,$4,$5,$6,$7,$8,$9,$2,$3,0*
0 Add four circle primitives for the rounded corners*
1,1,$1+$1,$2,$3*
1,1,$1+$1,$4,$5*
1,1,$1+$1,$6,$7*
1,1,$1+$1,$8,$9*
0 Add four rect primitives between the rounded corners*
20,1,$1+$1,$2,$3,$4,$5,0*
20,1,$1+$1,$4,$5,$6,$7,0*
20,1,$1+$1,$6,$7,$8,$9,0*
20,1,$1+$1,$8,$9,$2,$3,0*%
G04 Aperture macros list end*
%ADD10RoundRect,0.250000X-0.475000X0.250000X-0.475000X-0.250000X0.475000X-0.250000X0.475000X0.250000X0*%
%ADD11R,0.400000X1.750000*%
%ADD12R,1.825000X0.700000*%
%ADD13R,2.000000X1.460000*%
%ADD14RoundRect,0.384800X0.265200X1.240200X-0.265200X1.240200X-0.265200X-1.240200X0.265200X-1.240200X0*%
%ADD15R,1.425000X2.400000*%
%ADD16RoundRect,0.225000X0.250000X-0.225000X0.250000X0.225000X-0.250000X0.225000X-0.250000X-0.225000X0*%
%ADD17RoundRect,0.225000X0.225000X0.250000X-0.225000X0.250000X-0.225000X-0.250000X0.225000X-0.250000X0*%
%ADD18R,2.000000X1.500000*%
%ADD19R,2.000000X3.800000*%
%ADD20RoundRect,0.150000X-0.650000X-0.150000X0.650000X-0.150000X0.650000X0.150000X-0.650000X0.150000X0*%
%ADD21RoundRect,0.200000X0.275000X-0.200000X0.275000X0.200000X-0.275000X0.200000X-0.275000X-0.200000X0*%
%ADD22RoundRect,0.225000X-0.225000X-0.250000X0.225000X-0.250000X0.225000X0.250000X-0.225000X0.250000X0*%
%ADD23RoundRect,0.225000X-0.250000X0.225000X-0.250000X-0.225000X0.250000X-0.225000X0.250000X0.225000X0*%
%ADD24RoundRect,0.200000X-0.275000X0.200000X-0.275000X-0.200000X0.275000X-0.200000X0.275000X0.200000X0*%
%ADD25RoundRect,0.250000X-0.292217X-0.292217X0.292217X-0.292217X0.292217X0.292217X-0.292217X0.292217X0*%
%ADD26RoundRect,0.050000X-0.387500X-0.050000X0.387500X-0.050000X0.387500X0.050000X-0.387500X0.050000X0*%
%ADD27RoundRect,0.050000X-0.050000X-0.387500X0.050000X-0.387500X0.050000X0.387500X-0.050000X0.387500X0*%
%ADD28R,0.800000X2.700000*%
%ADD29RoundRect,0.200000X0.200000X0.275000X-0.200000X0.275000X-0.200000X-0.275000X0.200000X-0.275000X0*%
%ADD30RoundRect,0.200000X-0.200000X-0.275000X0.200000X-0.275000X0.200000X0.275000X-0.200000X0.275000X0*%
%ADD31RoundRect,0.150000X-0.587500X-0.150000X0.587500X-0.150000X0.587500X0.150000X-0.587500X0.150000X0*%
%ADD32RoundRect,0.250000X-0.425000X0.450000X-0.425000X-0.450000X0.425000X-0.450000X0.425000X0.450000X0*%
%ADD33RoundRect,0.250000X-0.250000X-0.475000X0.250000X-0.475000X0.250000X0.475000X-0.250000X0.475000X0*%
%ADD34R,1.200000X0.500000*%
%ADD35R,1.400000X1.200000*%
%ADD36R,0.700000X0.700000*%
%ADD37RoundRect,0.100000X-0.637500X-0.100000X0.637500X-0.100000X0.637500X0.100000X-0.637500X0.100000X0*%
%ADD38RoundRect,0.175000X0.725000X0.175000X-0.725000X0.175000X-0.725000X-0.175000X0.725000X-0.175000X0*%
%ADD39RoundRect,0.200000X0.700000X0.200000X-0.700000X0.200000X-0.700000X-0.200000X0.700000X-0.200000X0*%
%ADD40R,1.400000X1.600000*%
%ADD41RoundRect,0.150000X0.150000X-0.587500X0.150000X0.587500X-0.150000X0.587500X-0.150000X-0.587500X0*%
%ADD42RoundRect,0.112500X0.112500X0.237500X-0.112500X0.237500X-0.112500X-0.237500X0.112500X-0.237500X0*%
%ADD43R,0.850000X0.750000*%
%ADD44R,0.550000X0.700000*%
%ADD45R,2.040000X1.800000*%
G04 APERTURE END LIST*
D10*
X95508000Y-77145000D03*
X95508000Y-75245000D03*
D11*
X102625000Y-75375000D03*
X101975000Y-75375000D03*
X101325000Y-75375000D03*
X100675000Y-75375000D03*
X100025000Y-75375000D03*
D12*
X104312500Y-74250000D03*
D13*
X104225000Y-75580000D03*
D14*
X104050000Y-72975000D03*
D15*
X102287500Y-72350000D03*
X100362500Y-72350000D03*
D14*
X98600000Y-72975000D03*
D13*
X98425000Y-75580000D03*
D12*
X98337500Y-74250000D03*
D16*
X105664000Y-94290000D03*
X105664000Y-92740000D03*
X104140000Y-94290000D03*
X104140000Y-92740000D03*
D17*
X94290000Y-101200000D03*
X92740000Y-101200000D03*
X85611000Y-89748000D03*
X84061000Y-89748000D03*
D18*
X86516000Y-72879000D03*
X86516000Y-75179000D03*
D19*
X92816000Y-75179000D03*
D18*
X86516000Y-77479000D03*
D20*
X81236000Y-91907000D03*
X81236000Y-93177000D03*
X81236000Y-94447000D03*
X81236000Y-95717000D03*
X88436000Y-95717000D03*
X88436000Y-94447000D03*
X88436000Y-93177000D03*
X88436000Y-91907000D03*
D21*
X94996000Y-92605000D03*
X94996000Y-90955000D03*
D16*
X99060000Y-92301000D03*
X99060000Y-90751000D03*
D22*
X105710000Y-101200000D03*
X107260000Y-101200000D03*
D23*
X100838000Y-107725000D03*
X100838000Y-109275000D03*
D24*
X100584000Y-92690000D03*
X100584000Y-94340000D03*
D23*
X102500000Y-107975000D03*
X102500000Y-109525000D03*
D10*
X83824000Y-78801000D03*
X83824000Y-80701000D03*
D17*
X94290000Y-97622000D03*
X92740000Y-97622000D03*
D22*
X116573000Y-94828000D03*
X118123000Y-94828000D03*
D25*
X99362500Y-99362500D03*
X99362500Y-100637500D03*
X100637500Y-99362500D03*
X100637500Y-100637500D03*
D26*
X96562500Y-97400000D03*
X96562500Y-97800000D03*
X96562500Y-98200000D03*
X96562500Y-98600000D03*
X96562500Y-99000000D03*
X96562500Y-99400000D03*
X96562500Y-99800000D03*
X96562500Y-100200000D03*
X96562500Y-100600000D03*
X96562500Y-101000000D03*
X96562500Y-101400000D03*
X96562500Y-101800000D03*
X96562500Y-102200000D03*
X96562500Y-102600000D03*
D27*
X97400000Y-103437500D03*
X97800000Y-103437500D03*
X98200000Y-103437500D03*
X98600000Y-103437500D03*
X99000000Y-103437500D03*
X99400000Y-103437500D03*
X99800000Y-103437500D03*
X100200000Y-103437500D03*
X100600000Y-103437500D03*
X101000000Y-103437500D03*
X101400000Y-103437500D03*
X101800000Y-103437500D03*
X102200000Y-103437500D03*
X102600000Y-103437500D03*
D26*
X103437500Y-102600000D03*
X103437500Y-102200000D03*
X103437500Y-101800000D03*
X103437500Y-101400000D03*
X103437500Y-101000000D03*
X103437500Y-100600000D03*
X103437500Y-100200000D03*
X103437500Y-99800000D03*
X103437500Y-99400000D03*
X103437500Y-99000000D03*
X103437500Y-98600000D03*
X103437500Y-98200000D03*
X103437500Y-97800000D03*
X103437500Y-97400000D03*
D27*
X102600000Y-96562500D03*
X102200000Y-96562500D03*
X101800000Y-96562500D03*
X101400000Y-96562500D03*
X101000000Y-96562500D03*
X100600000Y-96562500D03*
X100200000Y-96562500D03*
X99800000Y-96562500D03*
X99400000Y-96562500D03*
X99000000Y-96562500D03*
X98600000Y-96562500D03*
X98200000Y-96562500D03*
X97800000Y-96562500D03*
X97400000Y-96562500D03*
D24*
X102362000Y-92690000D03*
X102362000Y-94340000D03*
D16*
X97282000Y-93063000D03*
X97282000Y-91513000D03*
D22*
X105710000Y-96352000D03*
X107260000Y-96352000D03*
D10*
X119750000Y-114300000D03*
X119750000Y-116200000D03*
D28*
X107314000Y-108250000D03*
X109514000Y-108250000D03*
D29*
X115075000Y-114250000D03*
X113425000Y-114250000D03*
D21*
X120250000Y-110639000D03*
X120250000Y-108989000D03*
D17*
X99073000Y-111234000D03*
X97523000Y-111234000D03*
D22*
X107725000Y-112000000D03*
X109275000Y-112000000D03*
D30*
X92647000Y-102956000D03*
X94297000Y-102956000D03*
D31*
X86062500Y-104300000D03*
X86062500Y-106200000D03*
X87937500Y-105250000D03*
D32*
X80500000Y-101400000D03*
X80500000Y-104100000D03*
D30*
X92647000Y-99400000D03*
X94297000Y-99400000D03*
D33*
X116600000Y-102750000D03*
X118500000Y-102750000D03*
D34*
X105550000Y-102850000D03*
X105550000Y-104150000D03*
X107450000Y-103500000D03*
D22*
X101079000Y-111234000D03*
X102629000Y-111234000D03*
D35*
X98900000Y-114884000D03*
X101100000Y-114884000D03*
X101100000Y-113184000D03*
X98900000Y-113184000D03*
D23*
X118750000Y-111225000D03*
X118750000Y-112775000D03*
D36*
X118263000Y-98934000D03*
X118263000Y-97834000D03*
X116433000Y-97834000D03*
X116433000Y-98934000D03*
D37*
X112137500Y-107025000D03*
X112137500Y-107675000D03*
X112137500Y-108325000D03*
X112137500Y-108975000D03*
X117862500Y-108975000D03*
X117862500Y-108325000D03*
X117862500Y-107675000D03*
X117862500Y-107025000D03*
D23*
X124000000Y-107725000D03*
X124000000Y-109275000D03*
D30*
X103675000Y-105750000D03*
X105325000Y-105750000D03*
D10*
X111500000Y-114300000D03*
X111500000Y-116200000D03*
D38*
X89586000Y-117516000D03*
D39*
X89586000Y-116416000D03*
X89586000Y-115316000D03*
X89586000Y-114216000D03*
X89586000Y-113116000D03*
X89586000Y-112016000D03*
X89586000Y-110916000D03*
X89586000Y-109816000D03*
D38*
X89586000Y-108716000D03*
X80086000Y-108716000D03*
D39*
X80086000Y-109816000D03*
X80086000Y-110916000D03*
X80086000Y-112016000D03*
X80086000Y-113116000D03*
X80086000Y-114216000D03*
X80086000Y-115316000D03*
X80086000Y-116416000D03*
D38*
X80086000Y-117516000D03*
D21*
X109220000Y-97325000D03*
X109220000Y-95675000D03*
D30*
X113425000Y-112500000D03*
X115075000Y-112500000D03*
D40*
X76494000Y-79941000D03*
X76494000Y-71941000D03*
X80994000Y-79941000D03*
X80994000Y-71941000D03*
D22*
X107725000Y-114000000D03*
X109275000Y-114000000D03*
D41*
X107762000Y-93687500D03*
X109662000Y-93687500D03*
X108712000Y-91812500D03*
D22*
X120225000Y-106750000D03*
X121775000Y-106750000D03*
D24*
X122000000Y-109175000D03*
X122000000Y-110825000D03*
X117250000Y-111175000D03*
X117250000Y-112825000D03*
D22*
X107725000Y-116000000D03*
X109275000Y-116000000D03*
D40*
X118404000Y-80195000D03*
X118404000Y-72195000D03*
X122904000Y-80195000D03*
X122904000Y-72195000D03*
D30*
X110425000Y-105000000D03*
X112075000Y-105000000D03*
D42*
X84150000Y-101250000D03*
X82850000Y-101250000D03*
X83500000Y-103250000D03*
D33*
X116550000Y-104750000D03*
X118450000Y-104750000D03*
D43*
X117250000Y-114725000D03*
D44*
X117250000Y-118050000D03*
D45*
X117250000Y-116000000D03*
D24*
X99300000Y-107409000D03*
X99300000Y-109059000D03*
M02*
